<?xml version="1.0" encoding="utf-8" standalone="no"?>
<!DOCTYPE svg PUBLIC "-//W3C//DTD SVG 1.1//EN"
  "http://www.w3.org/Graphics/SVG/1.1/DTD/svg11.dtd">
<svg xmlns:xlink="http://www.w3.org/1999/xlink" width="576pt" height="432pt" viewBox="0 0 576 432" xmlns="http://www.w3.org/2000/svg" version="1.1">
 <metadata>
  <rdf:RDF xmlns:dc="http://purl.org/dc/elements/1.1/" xmlns:cc="http://creativecommons.org/ns#" xmlns:rdf="http://www.w3.org/1999/02/22-rdf-syntax-ns#">
   <cc:Work>
    <dc:type rdf:resource="http://purl.org/dc/dcmitype/StillImage"/>
    <dc:date>2025-07-17T11:30:29.302506</dc:date>
    <dc:format>image/svg+xml</dc:format>
    <dc:creator>
     <cc:Agent>
      <dc:title>Matplotlib v3.8.4, https://matplotlib.org/</dc:title>
     </cc:Agent>
    </dc:creator>
   </cc:Work>
  </rdf:RDF>
 </metadata>
 <defs>
  <style type="text/css">*{stroke-linejoin: round; stroke-linecap: butt}</style>
 </defs>
 <g id="figure_1">
  <g id="patch_1">
   <path d="M 0 432 
L 576 432 
L 576 0 
L 0 0 
z
" style="fill: #ffffff"/>
  </g>
  <g id="patch_2">
   <path d="M 128.88 384.48 
L 461.52 384.48 
L 461.52 51.84 
L 128.88 51.84 
z
" style="fill: #ffffff"/>
  </g>
  <g id="pane3d_1">
   <g id="patch_3">
    <path d="M 153.996614 302.461636 
L 263.845206 210.384369 
L 262.318205 77.592489 
L 147.212792 161.591176 
" style="fill: #f2f2f2; opacity: 0.5; stroke: #f2f2f2; stroke-linejoin: miter"/>
   </g>
  </g>
  <g id="pane3d_2">
   <g id="patch_4">
    <path d="M 263.845206 210.384369 
L 440.113001 261.618458 
L 446.403377 124.252714 
L 262.318205 77.592489 
" style="fill: #e6e6e6; opacity: 0.5; stroke: #e6e6e6; stroke-linejoin: miter"/>
   </g>
  </g>
  <g id="pane3d_3">
   <g id="patch_5">
    <path d="M 153.996614 302.461636 
L 340.849086 363.487653 
L 440.113001 261.618458 
L 263.845206 210.384369 
" style="fill: #ececec; opacity: 0.5; stroke: #ececec; stroke-linejoin: miter"/>
   </g>
  </g>
  <g id="grid3d_1">
   <g id="Line3DCollection_1">
    <path d="M 186.384465 313.039508 
L 294.510047 219.297427 
L 294.287208 85.695699 
" style="fill: none; stroke: #b0b0b0; stroke-width: 0.8"/>
    <path d="M 225.323521 325.757004 
L 331.315407 229.995292 
L 332.688881 95.429404 
" style="fill: none; stroke: #b0b0b0; stroke-width: 0.8"/>
    <path d="M 265.143129 338.762088 
L 368.883057 240.914725 
L 371.920826 105.373558 
" style="fill: none; stroke: #b0b0b0; stroke-width: 0.8"/>
    <path d="M 305.873501 352.064627 
L 407.236927 252.062681 
L 412.010266 115.535063 
" style="fill: none; stroke: #b0b0b0; stroke-width: 0.8"/>
   </g>
  </g>
  <g id="grid3d_2">
   <g id="Line3DCollection_2">
    <path d="M 164.303489 149.119164 
L 170.254118 288.834274 
L 355.595415 348.354293 
" style="fill: none; stroke: #b0b0b0; stroke-width: 0.8"/>
    <path d="M 178.662625 138.640521 
L 183.927388 277.373068 
L 367.982785 335.641804 
" style="fill: none; stroke: #b0b0b0; stroke-width: 0.8"/>
    <path d="M 192.715952 128.385043 
L 197.321994 266.145444 
L 380.10449 323.201952 
" style="fill: none; stroke: #b0b0b0; stroke-width: 0.8"/>
    <path d="M 206.473136 118.345676 
L 210.446368 255.144333 
L 391.968985 311.026062 
" style="fill: none; stroke: #b0b0b0; stroke-width: 0.8"/>
    <path d="M 219.94344 108.515662 
L 223.308606 244.36295 
L 403.584371 299.105818 
" style="fill: none; stroke: #b0b0b0; stroke-width: 0.8"/>
    <path d="M 233.135746 98.888518 
L 235.916485 233.794776 
L 414.958412 287.433253 
" style="fill: none; stroke: #b0b0b0; stroke-width: 0.8"/>
    <path d="M 246.058571 89.458029 
L 248.277476 223.433548 
L 426.098553 276.000728 
" style="fill: none; stroke: #b0b0b0; stroke-width: 0.8"/>
    <path d="M 258.720089 80.21823 
L 260.39876 213.273247 
L 437.011935 264.800914 
" style="fill: none; stroke: #b0b0b0; stroke-width: 0.8"/>
   </g>
  </g>
  <g id="grid3d_3">
   <g id="Line3DCollection_3">
    <path d="M 440.562246 251.808097 
L 263.735937 200.882055 
L 153.512886 292.416717 
" style="fill: none; stroke: #b0b0b0; stroke-width: 0.8"/>
    <path d="M 441.346589 234.680043 
L 263.545241 184.298699 
L 152.66806 274.873348 
" style="fill: none; stroke: #b0b0b0; stroke-width: 0.8"/>
    <path d="M 442.139716 217.360185 
L 263.352512 167.538519 
L 151.813412 257.126024 
" style="fill: none; stroke: #b0b0b0; stroke-width: 0.8"/>
    <path d="M 442.941774 199.845282 
L 263.157718 150.598672 
L 150.948769 239.171169 
" style="fill: none; stroke: #b0b0b0; stroke-width: 0.8"/>
    <path d="M 443.752915 182.13202 
L 262.960824 133.476252 
L 150.073957 221.005121 
" style="fill: none; stroke: #b0b0b0; stroke-width: 0.8"/>
    <path d="M 444.573296 164.217012 
L 262.761796 116.168292 
L 149.188794 202.62413 
" style="fill: none; stroke: #b0b0b0; stroke-width: 0.8"/>
    <path d="M 445.403073 146.096791 
L 262.5606 98.671761 
L 148.293095 184.024361 
" style="fill: none; stroke: #b0b0b0; stroke-width: 0.8"/>
    <path d="M 446.242411 127.767809 
L 262.357199 80.983559 
L 147.386671 165.201882 
" style="fill: none; stroke: #b0b0b0; stroke-width: 0.8"/>
   </g>
  </g>
  <g id="axis3d_1">
   <g id="line2d_1">
    <path d="M 153.996614 302.461636 
L 340.849086 363.487653 
" style="fill: none; stroke: #000000; stroke-width: 0.8; stroke-linecap: square"/>
   </g>
   <g id="xtick_1">
    <g id="line2d_2">
     <path d="M 187.326482 312.222804 
L 184.496364 314.676443 
" style="fill: none; stroke: #000000; stroke-width: 0.8; stroke-linecap: square"/>
    </g>
    <g id="text_1">
     <!-- −0.2 -->
     <g transform="translate(166.736668 336.453405) scale(0.1 -0.1)">
      <defs>
       <path id="DejaVuSans-2212" d="M 678 2272 
L 4684 2272 
L 4684 1741 
L 678 1741 
L 678 2272 
z
" transform="scale(0.015625)"/>
       <path id="DejaVuSans-30" d="M 2034 4250 
Q 1547 4250 1301 3770 
Q 1056 3291 1056 2328 
Q 1056 1369 1301 889 
Q 1547 409 2034 409 
Q 2525 409 2770 889 
Q 3016 1369 3016 2328 
Q 3016 3291 2770 3770 
Q 2525 4250 2034 4250 
z
M 2034 4750 
Q 2819 4750 3233 4129 
Q 3647 3509 3647 2328 
Q 3647 1150 3233 529 
Q 2819 -91 2034 -91 
Q 1250 -91 836 529 
Q 422 1150 422 2328 
Q 422 3509 836 4129 
Q 1250 4750 2034 4750 
z
" transform="scale(0.015625)"/>
       <path id="DejaVuSans-2e" d="M 684 794 
L 1344 794 
L 1344 0 
L 684 0 
L 684 794 
z
" transform="scale(0.015625)"/>
       <path id="DejaVuSans-32" d="M 1228 531 
L 3431 531 
L 3431 0 
L 469 0 
L 469 531 
Q 828 903 1448 1529 
Q 2069 2156 2228 2338 
Q 2531 2678 2651 2914 
Q 2772 3150 2772 3378 
Q 2772 3750 2511 3984 
Q 2250 4219 1831 4219 
Q 1534 4219 1204 4116 
Q 875 4013 500 3803 
L 500 4441 
Q 881 4594 1212 4672 
Q 1544 4750 1819 4750 
Q 2544 4750 2975 4387 
Q 3406 4025 3406 3419 
Q 3406 3131 3298 2873 
Q 3191 2616 2906 2266 
Q 2828 2175 2409 1742 
Q 1991 1309 1228 531 
z
" transform="scale(0.015625)"/>
      </defs>
      <use xlink:href="#DejaVuSans-2212"/>
      <use xlink:href="#DejaVuSans-30" x="83.789062"/>
      <use xlink:href="#DejaVuSans-2e" x="147.412109"/>
      <use xlink:href="#DejaVuSans-32" x="179.199219"/>
     </g>
    </g>
   </g>
   <g id="xtick_2">
    <g id="line2d_3">
     <path d="M 226.247792 324.921942 
L 223.470943 327.430773 
" style="fill: none; stroke: #000000; stroke-width: 0.8; stroke-linecap: square"/>
    </g>
    <g id="text_2">
     <!-- 0.0 -->
     <g transform="translate(209.899113 349.386706) scale(0.1 -0.1)">
      <use xlink:href="#DejaVuSans-30"/>
      <use xlink:href="#DejaVuSans-2e" x="63.623047"/>
      <use xlink:href="#DejaVuSans-30" x="95.410156"/>
     </g>
    </g>
   </g>
   <g id="xtick_3">
    <g id="line2d_4">
     <path d="M 266.048607 337.908042 
L 263.328176 340.473949 
" style="fill: none; stroke: #000000; stroke-width: 0.8; stroke-linecap: square"/>
    </g>
    <g id="text_3">
     <!-- 0.2 -->
     <g transform="translate(249.75572 362.613371) scale(0.1 -0.1)">
      <use xlink:href="#DejaVuSans-30"/>
      <use xlink:href="#DejaVuSans-2e" x="63.623047"/>
      <use xlink:href="#DejaVuSans-32" x="95.410156"/>
     </g>
    </g>
   </g>
   <g id="xtick_4">
    <g id="line2d_5">
     <path d="M 306.75908 351.190944 
L 304.098389 353.815896 
" style="fill: none; stroke: #000000; stroke-width: 0.8; stroke-linecap: square"/>
    </g>
    <g id="text_4">
     <!-- 0.4 -->
     <g transform="translate(290.526755 376.143494) scale(0.1 -0.1)">
      <defs>
       <path id="DejaVuSans-34" d="M 2419 4116 
L 825 1625 
L 2419 1625 
L 2419 4116 
z
M 2253 4666 
L 3047 4666 
L 3047 1625 
L 3713 1625 
L 3713 1100 
L 3047 1100 
L 3047 0 
L 2419 0 
L 2419 1100 
L 313 1100 
L 313 1709 
L 2253 4666 
z
" transform="scale(0.015625)"/>
      </defs>
      <use xlink:href="#DejaVuSans-30"/>
      <use xlink:href="#DejaVuSans-2e" x="63.623047"/>
      <use xlink:href="#DejaVuSans-34" x="95.410156"/>
     </g>
    </g>
   </g>
   <g id="text_5">
    <!-- PC1 (8.45%) -->
    <g transform="translate(198.311899 360.363332) rotate(-341.912962) scale(0.1 -0.1)">
     <defs>
      <path id="DejaVuSans-50" d="M 1259 4147 
L 1259 2394 
L 2053 2394 
Q 2494 2394 2734 2622 
Q 2975 2850 2975 3272 
Q 2975 3691 2734 3919 
Q 2494 4147 2053 4147 
L 1259 4147 
z
M 628 4666 
L 2053 4666 
Q 2838 4666 3239 4311 
Q 3641 3956 3641 3272 
Q 3641 2581 3239 2228 
Q 2838 1875 2053 1875 
L 1259 1875 
L 1259 0 
L 628 0 
L 628 4666 
z
" transform="scale(0.015625)"/>
      <path id="DejaVuSans-43" d="M 4122 4306 
L 4122 3641 
Q 3803 3938 3442 4084 
Q 3081 4231 2675 4231 
Q 1875 4231 1450 3742 
Q 1025 3253 1025 2328 
Q 1025 1406 1450 917 
Q 1875 428 2675 428 
Q 3081 428 3442 575 
Q 3803 722 4122 1019 
L 4122 359 
Q 3791 134 3420 21 
Q 3050 -91 2638 -91 
Q 1578 -91 968 557 
Q 359 1206 359 2328 
Q 359 3453 968 4101 
Q 1578 4750 2638 4750 
Q 3056 4750 3426 4639 
Q 3797 4528 4122 4306 
z
" transform="scale(0.015625)"/>
      <path id="DejaVuSans-31" d="M 794 531 
L 1825 531 
L 1825 4091 
L 703 3866 
L 703 4441 
L 1819 4666 
L 2450 4666 
L 2450 531 
L 3481 531 
L 3481 0 
L 794 0 
L 794 531 
z
" transform="scale(0.015625)"/>
      <path id="DejaVuSans-20" transform="scale(0.015625)"/>
      <path id="DejaVuSans-28" d="M 1984 4856 
Q 1566 4138 1362 3434 
Q 1159 2731 1159 2009 
Q 1159 1288 1364 580 
Q 1569 -128 1984 -844 
L 1484 -844 
Q 1016 -109 783 600 
Q 550 1309 550 2009 
Q 550 2706 781 3412 
Q 1013 4119 1484 4856 
L 1984 4856 
z
" transform="scale(0.015625)"/>
      <path id="DejaVuSans-38" d="M 2034 2216 
Q 1584 2216 1326 1975 
Q 1069 1734 1069 1313 
Q 1069 891 1326 650 
Q 1584 409 2034 409 
Q 2484 409 2743 651 
Q 3003 894 3003 1313 
Q 3003 1734 2745 1975 
Q 2488 2216 2034 2216 
z
M 1403 2484 
Q 997 2584 770 2862 
Q 544 3141 544 3541 
Q 544 4100 942 4425 
Q 1341 4750 2034 4750 
Q 2731 4750 3128 4425 
Q 3525 4100 3525 3541 
Q 3525 3141 3298 2862 
Q 3072 2584 2669 2484 
Q 3125 2378 3379 2068 
Q 3634 1759 3634 1313 
Q 3634 634 3220 271 
Q 2806 -91 2034 -91 
Q 1263 -91 848 271 
Q 434 634 434 1313 
Q 434 1759 690 2068 
Q 947 2378 1403 2484 
z
M 1172 3481 
Q 1172 3119 1398 2916 
Q 1625 2713 2034 2713 
Q 2441 2713 2670 2916 
Q 2900 3119 2900 3481 
Q 2900 3844 2670 4047 
Q 2441 4250 2034 4250 
Q 1625 4250 1398 4047 
Q 1172 3844 1172 3481 
z
" transform="scale(0.015625)"/>
      <path id="DejaVuSans-35" d="M 691 4666 
L 3169 4666 
L 3169 4134 
L 1269 4134 
L 1269 2991 
Q 1406 3038 1543 3061 
Q 1681 3084 1819 3084 
Q 2600 3084 3056 2656 
Q 3513 2228 3513 1497 
Q 3513 744 3044 326 
Q 2575 -91 1722 -91 
Q 1428 -91 1123 -41 
Q 819 9 494 109 
L 494 744 
Q 775 591 1075 516 
Q 1375 441 1709 441 
Q 2250 441 2565 725 
Q 2881 1009 2881 1497 
Q 2881 1984 2565 2268 
Q 2250 2553 1709 2553 
Q 1456 2553 1204 2497 
Q 953 2441 691 2322 
L 691 4666 
z
" transform="scale(0.015625)"/>
      <path id="DejaVuSans-25" d="M 4653 2053 
Q 4381 2053 4226 1822 
Q 4072 1591 4072 1178 
Q 4072 772 4226 539 
Q 4381 306 4653 306 
Q 4919 306 5073 539 
Q 5228 772 5228 1178 
Q 5228 1588 5073 1820 
Q 4919 2053 4653 2053 
z
M 4653 2450 
Q 5147 2450 5437 2106 
Q 5728 1763 5728 1178 
Q 5728 594 5436 251 
Q 5144 -91 4653 -91 
Q 4153 -91 3862 251 
Q 3572 594 3572 1178 
Q 3572 1766 3864 2108 
Q 4156 2450 4653 2450 
z
M 1428 4353 
Q 1159 4353 1004 4120 
Q 850 3888 850 3481 
Q 850 3069 1003 2837 
Q 1156 2606 1428 2606 
Q 1700 2606 1854 2837 
Q 2009 3069 2009 3481 
Q 2009 3884 1853 4118 
Q 1697 4353 1428 4353 
z
M 4250 4750 
L 4750 4750 
L 1831 -91 
L 1331 -91 
L 4250 4750 
z
M 1428 4750 
Q 1922 4750 2215 4408 
Q 2509 4066 2509 3481 
Q 2509 2891 2217 2550 
Q 1925 2209 1428 2209 
Q 931 2209 642 2551 
Q 353 2894 353 3481 
Q 353 4063 643 4406 
Q 934 4750 1428 4750 
z
" transform="scale(0.015625)"/>
      <path id="DejaVuSans-29" d="M 513 4856 
L 1013 4856 
Q 1481 4119 1714 3412 
Q 1947 2706 1947 2009 
Q 1947 1309 1714 600 
Q 1481 -109 1013 -844 
L 513 -844 
Q 928 -128 1133 580 
Q 1338 1288 1338 2009 
Q 1338 2731 1133 3434 
Q 928 4138 513 4856 
z
" transform="scale(0.015625)"/>
     </defs>
     <use xlink:href="#DejaVuSans-50"/>
     <use xlink:href="#DejaVuSans-43" x="60.302734"/>
     <use xlink:href="#DejaVuSans-31" x="130.126953"/>
     <use xlink:href="#DejaVuSans-20" x="193.75"/>
     <use xlink:href="#DejaVuSans-28" x="225.537109"/>
     <use xlink:href="#DejaVuSans-38" x="264.550781"/>
     <use xlink:href="#DejaVuSans-2e" x="328.173828"/>
     <use xlink:href="#DejaVuSans-34" x="359.960938"/>
     <use xlink:href="#DejaVuSans-35" x="423.583984"/>
     <use xlink:href="#DejaVuSans-25" x="487.207031"/>
     <use xlink:href="#DejaVuSans-29" x="582.226562"/>
    </g>
   </g>
  </g>
  <g id="axis3d_2">
   <g id="line2d_6">
    <path d="M 440.113001 261.618458 
L 340.849086 363.487653 
" style="fill: none; stroke: #000000; stroke-width: 0.8; stroke-linecap: square"/>
   </g>
   <g id="xtick_5">
    <g id="line2d_7">
     <path d="M 354.03408 347.85289 
L 358.722095 349.358387 
" style="fill: none; stroke: #000000; stroke-width: 0.8; stroke-linecap: square"/>
    </g>
    <g id="text_6">
     <!-- −0.4 -->
     <g transform="translate(356.24863 369.278635) scale(0.1 -0.1)">
      <use xlink:href="#DejaVuSans-2212"/>
      <use xlink:href="#DejaVuSans-30" x="83.789062"/>
      <use xlink:href="#DejaVuSans-2e" x="147.412109"/>
      <use xlink:href="#DejaVuSans-34" x="179.199219"/>
     </g>
    </g>
   </g>
   <g id="xtick_6">
    <g id="line2d_8">
     <path d="M 366.433128 335.151209 
L 371.086035 336.624239 
" style="fill: none; stroke: #000000; stroke-width: 0.8; stroke-linecap: square"/>
    </g>
    <g id="text_7">
     <!-- −0.3 -->
     <g transform="translate(368.503077 356.415651) scale(0.1 -0.1)">
      <defs>
       <path id="DejaVuSans-33" d="M 2597 2516 
Q 3050 2419 3304 2112 
Q 3559 1806 3559 1356 
Q 3559 666 3084 287 
Q 2609 -91 1734 -91 
Q 1441 -91 1130 -33 
Q 819 25 488 141 
L 488 750 
Q 750 597 1062 519 
Q 1375 441 1716 441 
Q 2309 441 2620 675 
Q 2931 909 2931 1356 
Q 2931 1769 2642 2001 
Q 2353 2234 1838 2234 
L 1294 2234 
L 1294 2753 
L 1863 2753 
Q 2328 2753 2575 2939 
Q 2822 3125 2822 3475 
Q 2822 3834 2567 4026 
Q 2313 4219 1838 4219 
Q 1578 4219 1281 4162 
Q 984 4106 628 3988 
L 628 4550 
Q 988 4650 1302 4700 
Q 1616 4750 1894 4750 
Q 2613 4750 3031 4423 
Q 3450 4097 3450 3541 
Q 3450 3153 3228 2886 
Q 3006 2619 2597 2516 
z
" transform="scale(0.015625)"/>
      </defs>
      <use xlink:href="#DejaVuSans-2212"/>
      <use xlink:href="#DejaVuSans-30" x="83.789062"/>
      <use xlink:href="#DejaVuSans-2e" x="147.412109"/>
      <use xlink:href="#DejaVuSans-33" x="179.199219"/>
     </g>
    </g>
   </g>
   <g id="xtick_7">
    <g id="line2d_9">
     <path d="M 378.566372 322.721821 
L 383.184591 324.163422 
" style="fill: none; stroke: #000000; stroke-width: 0.8; stroke-linecap: square"/>
    </g>
    <g id="text_8">
     <!-- −0.2 -->
     <g transform="translate(380.494586 343.828661) scale(0.1 -0.1)">
      <use xlink:href="#DejaVuSans-2212"/>
      <use xlink:href="#DejaVuSans-30" x="83.789062"/>
      <use xlink:href="#DejaVuSans-2e" x="147.412109"/>
      <use xlink:href="#DejaVuSans-32" x="179.199219"/>
     </g>
    </g>
   </g>
   <g id="xtick_8">
    <g id="line2d_10">
     <path d="M 390.442268 310.556062 
L 395.026215 311.96723 
" style="fill: none; stroke: #000000; stroke-width: 0.8; stroke-linecap: square"/>
    </g>
    <g id="text_9">
     <!-- −0.1 -->
     <g transform="translate(392.231532 331.508876) scale(0.1 -0.1)">
      <use xlink:href="#DejaVuSans-2212"/>
      <use xlink:href="#DejaVuSans-30" x="83.789062"/>
      <use xlink:href="#DejaVuSans-2e" x="147.412109"/>
      <use xlink:href="#DejaVuSans-31" x="179.199219"/>
     </g>
    </g>
   </g>
   <g id="xtick_9">
    <g id="line2d_11">
     <path d="M 402.068918 298.645633 
L 406.619006 300.027321 
" style="fill: none; stroke: #000000; stroke-width: 0.8; stroke-linecap: square"/>
    </g>
    <g id="text_10">
     <!-- 0.0 -->
     <g transform="translate(407.911778 319.447877) scale(0.1 -0.1)">
      <use xlink:href="#DejaVuSans-30"/>
      <use xlink:href="#DejaVuSans-2e" x="63.623047"/>
      <use xlink:href="#DejaVuSans-30" x="95.410156"/>
     </g>
    </g>
   </g>
   <g id="xtick_10">
    <g id="line2d_12">
     <path d="M 413.454087 286.982578 
L 417.970727 288.335701 
" style="fill: none; stroke: #000000; stroke-width: 0.8; stroke-linecap: square"/>
    </g>
    <g id="text_11">
     <!-- 0.1 -->
     <g transform="translate(419.163324 307.637596) scale(0.1 -0.1)">
      <use xlink:href="#DejaVuSans-30"/>
      <use xlink:href="#DejaVuSans-2e" x="63.623047"/>
      <use xlink:href="#DejaVuSans-31" x="95.410156"/>
     </g>
    </g>
   </g>
   <g id="xtick_11">
    <g id="line2d_13">
     <path d="M 424.60522 275.559272 
L 429.088818 276.884706 
" style="fill: none; stroke: #000000; stroke-width: 0.8; stroke-linecap: square"/>
    </g>
    <g id="text_12">
     <!-- 0.2 -->
     <g transform="translate(430.183386 296.070294) scale(0.1 -0.1)">
      <use xlink:href="#DejaVuSans-30"/>
      <use xlink:href="#DejaVuSans-2e" x="63.623047"/>
      <use xlink:href="#DejaVuSans-32" x="95.410156"/>
     </g>
    </g>
   </g>
   <g id="xtick_12">
    <g id="line2d_14">
     <path d="M 435.529461 264.368395 
L 439.98042 265.666982 
" style="fill: none; stroke: #000000; stroke-width: 0.8; stroke-linecap: square"/>
    </g>
    <g id="text_13">
     <!-- 0.3 -->
     <g transform="translate(440.979034 284.738549) scale(0.1 -0.1)">
      <use xlink:href="#DejaVuSans-30"/>
      <use xlink:href="#DejaVuSans-2e" x="63.623047"/>
      <use xlink:href="#DejaVuSans-33" x="95.410156"/>
     </g>
    </g>
   </g>
   <g id="text_14">
    <!-- PC2 (7.49%) -->
    <g transform="translate(399.965566 362.448897) rotate(-45.742112) scale(0.1 -0.1)">
     <defs>
      <path id="DejaVuSans-37" d="M 525 4666 
L 3525 4666 
L 3525 4397 
L 1831 0 
L 1172 0 
L 2766 4134 
L 525 4134 
L 525 4666 
z
" transform="scale(0.015625)"/>
      <path id="DejaVuSans-39" d="M 703 97 
L 703 672 
Q 941 559 1184 500 
Q 1428 441 1663 441 
Q 2288 441 2617 861 
Q 2947 1281 2994 2138 
Q 2813 1869 2534 1725 
Q 2256 1581 1919 1581 
Q 1219 1581 811 2004 
Q 403 2428 403 3163 
Q 403 3881 828 4315 
Q 1253 4750 1959 4750 
Q 2769 4750 3195 4129 
Q 3622 3509 3622 2328 
Q 3622 1225 3098 567 
Q 2575 -91 1691 -91 
Q 1453 -91 1209 -44 
Q 966 3 703 97 
z
M 1959 2075 
Q 2384 2075 2632 2365 
Q 2881 2656 2881 3163 
Q 2881 3666 2632 3958 
Q 2384 4250 1959 4250 
Q 1534 4250 1286 3958 
Q 1038 3666 1038 3163 
Q 1038 2656 1286 2365 
Q 1534 2075 1959 2075 
z
" transform="scale(0.015625)"/>
     </defs>
     <use xlink:href="#DejaVuSans-50"/>
     <use xlink:href="#DejaVuSans-43" x="60.302734"/>
     <use xlink:href="#DejaVuSans-32" x="130.126953"/>
     <use xlink:href="#DejaVuSans-20" x="193.75"/>
     <use xlink:href="#DejaVuSans-28" x="225.537109"/>
     <use xlink:href="#DejaVuSans-37" x="264.550781"/>
     <use xlink:href="#DejaVuSans-2e" x="328.173828"/>
     <use xlink:href="#DejaVuSans-34" x="359.960938"/>
     <use xlink:href="#DejaVuSans-39" x="423.583984"/>
     <use xlink:href="#DejaVuSans-25" x="487.207031"/>
     <use xlink:href="#DejaVuSans-29" x="582.226562"/>
    </g>
   </g>
  </g>
  <g id="axis3d_3">
   <g id="line2d_15">
    <path d="M 440.113001 261.618458 
L 446.403377 124.252714 
" style="fill: none; stroke: #000000; stroke-width: 0.8; stroke-linecap: square"/>
   </g>
   <g id="xtick_13">
    <g id="line2d_16">
     <path d="M 439.077964 251.380623 
L 443.534351 252.664064 
" style="fill: none; stroke: #000000; stroke-width: 0.8; stroke-linecap: square"/>
    </g>
    <g id="text_15">
     <!-- −0.3 -->
     <g transform="translate(446.737624 256.815275) scale(0.1 -0.1)">
      <use xlink:href="#DejaVuSans-2212"/>
      <use xlink:href="#DejaVuSans-30" x="83.789062"/>
      <use xlink:href="#DejaVuSans-2e" x="147.412109"/>
      <use xlink:href="#DejaVuSans-33" x="179.199219"/>
     </g>
    </g>
   </g>
   <g id="xtick_14">
    <g id="line2d_17">
     <path d="M 439.853733 234.257031 
L 444.335883 235.527082 
" style="fill: none; stroke: #000000; stroke-width: 0.8; stroke-linecap: square"/>
    </g>
    <g id="text_16">
     <!-- −0.2 -->
     <g transform="translate(447.621809 239.714296) scale(0.1 -0.1)">
      <use xlink:href="#DejaVuSans-2212"/>
      <use xlink:href="#DejaVuSans-30" x="83.789062"/>
      <use xlink:href="#DejaVuSans-2e" x="147.412109"/>
      <use xlink:href="#DejaVuSans-32" x="179.199219"/>
     </g>
    </g>
   </g>
   <g id="xtick_15">
    <g id="line2d_18">
     <path d="M 440.638185 216.941762 
L 445.146399 218.198041 
" style="fill: none; stroke: #000000; stroke-width: 0.8; stroke-linecap: square"/>
    </g>
    <g id="text_17">
     <!-- −0.1 -->
     <g transform="translate(448.515871 222.422282) scale(0.1 -0.1)">
      <use xlink:href="#DejaVuSans-2212"/>
      <use xlink:href="#DejaVuSans-30" x="83.789062"/>
      <use xlink:href="#DejaVuSans-2e" x="147.412109"/>
      <use xlink:href="#DejaVuSans-31" x="179.199219"/>
     </g>
    </g>
   </g>
   <g id="xtick_16">
    <g id="line2d_19">
     <path d="M 441.431468 199.431578 
L 445.966049 200.673694 
" style="fill: none; stroke: #000000; stroke-width: 0.8; stroke-linecap: square"/>
    </g>
    <g id="text_18">
     <!-- 0.0 -->
     <g transform="translate(453.60982 204.936013) scale(0.1 -0.1)">
      <use xlink:href="#DejaVuSans-30"/>
      <use xlink:href="#DejaVuSans-2e" x="63.623047"/>
      <use xlink:href="#DejaVuSans-30" x="95.410156"/>
     </g>
    </g>
   </g>
   <g id="xtick_17">
    <g id="line2d_20">
     <path d="M 442.233732 181.723169 
L 446.794989 182.95072 
" style="fill: none; stroke: #000000; stroke-width: 0.8; stroke-linecap: square"/>
    </g>
    <g id="text_19">
     <!-- 0.1 -->
     <g transform="translate(454.52414 187.252198) scale(0.1 -0.1)">
      <use xlink:href="#DejaVuSans-30"/>
      <use xlink:href="#DejaVuSans-2e" x="63.623047"/>
      <use xlink:href="#DejaVuSans-31" x="95.410156"/>
     </g>
    </g>
   </g>
   <g id="xtick_18">
    <g id="line2d_21">
     <path d="M 443.045129 163.813152 
L 447.633379 165.025724 
" style="fill: none; stroke: #000000; stroke-width: 0.8; stroke-linecap: square"/>
    </g>
    <g id="text_20">
     <!-- 0.2 -->
     <g transform="translate(455.448847 169.36747) scale(0.1 -0.1)">
      <use xlink:href="#DejaVuSans-30"/>
      <use xlink:href="#DejaVuSans-2e" x="63.623047"/>
      <use xlink:href="#DejaVuSans-32" x="95.410156"/>
     </g>
    </g>
   </g>
   <g id="xtick_19">
    <g id="line2d_22">
     <path d="M 443.865817 145.698063 
L 448.48138 146.895231 
" style="fill: none; stroke: #000000; stroke-width: 0.8; stroke-linecap: square"/>
    </g>
    <g id="text_21">
     <!-- 0.3 -->
     <g transform="translate(456.384121 151.278386) scale(0.1 -0.1)">
      <use xlink:href="#DejaVuSans-30"/>
      <use xlink:href="#DejaVuSans-2e" x="63.623047"/>
      <use xlink:href="#DejaVuSans-33" x="95.410156"/>
     </g>
    </g>
   </g>
   <g id="xtick_20">
    <g id="line2d_23">
     <path d="M 444.695956 127.374359 
L 449.339159 128.555687 
" style="fill: none; stroke: #000000; stroke-width: 0.8; stroke-linecap: square"/>
    </g>
    <g id="text_22">
     <!-- 0.4 -->
     <g transform="translate(457.330142 132.981423) scale(0.1 -0.1)">
      <use xlink:href="#DejaVuSans-30"/>
      <use xlink:href="#DejaVuSans-2e" x="63.623047"/>
      <use xlink:href="#DejaVuSans-34" x="95.410156"/>
     </g>
    </g>
   </g>
   <g id="text_23">
    <!-- PC3 (6.89%) -->
    <g transform="translate(484.954316 220.179203) rotate(-87.378092) scale(0.1 -0.1)">
     <defs>
      <path id="DejaVuSans-36" d="M 2113 2584 
Q 1688 2584 1439 2293 
Q 1191 2003 1191 1497 
Q 1191 994 1439 701 
Q 1688 409 2113 409 
Q 2538 409 2786 701 
Q 3034 994 3034 1497 
Q 3034 2003 2786 2293 
Q 2538 2584 2113 2584 
z
M 3366 4563 
L 3366 3988 
Q 3128 4100 2886 4159 
Q 2644 4219 2406 4219 
Q 1781 4219 1451 3797 
Q 1122 3375 1075 2522 
Q 1259 2794 1537 2939 
Q 1816 3084 2150 3084 
Q 2853 3084 3261 2657 
Q 3669 2231 3669 1497 
Q 3669 778 3244 343 
Q 2819 -91 2113 -91 
Q 1303 -91 875 529 
Q 447 1150 447 2328 
Q 447 3434 972 4092 
Q 1497 4750 2381 4750 
Q 2619 4750 2861 4703 
Q 3103 4656 3366 4563 
z
" transform="scale(0.015625)"/>
     </defs>
     <use xlink:href="#DejaVuSans-50"/>
     <use xlink:href="#DejaVuSans-43" x="60.302734"/>
     <use xlink:href="#DejaVuSans-33" x="130.126953"/>
     <use xlink:href="#DejaVuSans-20" x="193.75"/>
     <use xlink:href="#DejaVuSans-28" x="225.537109"/>
     <use xlink:href="#DejaVuSans-36" x="264.550781"/>
     <use xlink:href="#DejaVuSans-2e" x="328.173828"/>
     <use xlink:href="#DejaVuSans-38" x="359.960938"/>
     <use xlink:href="#DejaVuSans-39" x="423.583984"/>
     <use xlink:href="#DejaVuSans-25" x="487.207031"/>
     <use xlink:href="#DejaVuSans-29" x="582.226562"/>
    </g>
   </g>
  </g>
  <g id="axes_1">
   <g id="Path3DCollection_1">
    <defs>
     <path id="C0_0_114e0d68dc" d="M 0 3.535534 
C 0.937635 3.535534 1.836992 3.163008 2.5 2.5 
C 3.163008 1.836992 3.535534 0.937635 3.535534 -0 
C 3.535534 -0.937635 3.163008 -1.836992 2.5 -2.5 
C 1.836992 -3.163008 0.937635 -3.535534 0 -3.535534 
C -0.937635 -3.535534 -1.836992 -3.163008 -2.5 -2.5 
C -3.163008 -1.836992 -3.535534 -0.937635 -3.535534 0 
C -3.535534 0.937635 -3.163008 1.836992 -2.5 2.5 
C -1.836992 3.163008 -0.937635 3.535534 0 3.535534 
z
"/>
    </defs>
    <g clip-path="url(#p9cdfdf1c74)">
     <use xlink:href="#C0_0_114e0d68dc" x="345.707407" y="221.191215" style="fill: #3374a1; fill-opacity: 0.8; stroke: #3374a1; stroke-opacity: 0.8"/>
    </g>
    <g clip-path="url(#p9cdfdf1c74)">
     <use xlink:href="#C0_0_114e0d68dc" x="285.785938" y="215.555723" style="fill: #3374a1; fill-opacity: 0.8; stroke: #3374a1; stroke-opacity: 0.8"/>
    </g>
    <g clip-path="url(#p9cdfdf1c74)">
     <use xlink:href="#C0_0_114e0d68dc" x="320.632573" y="161.877784" style="fill: #3374a1; fill-opacity: 0.8; stroke: #3374a1; stroke-opacity: 0.8"/>
    </g>
    <g clip-path="url(#p9cdfdf1c74)">
     <use xlink:href="#C0_0_114e0d68dc" x="310.46221" y="181.397708" style="fill: #3374a1; fill-opacity: 0.8; stroke: #3374a1; stroke-opacity: 0.8"/>
    </g>
    <g clip-path="url(#p9cdfdf1c74)">
     <use xlink:href="#C0_0_114e0d68dc" x="304.167416" y="218.513479" style="fill: #3374a1; fill-opacity: 0.8; stroke: #3374a1; stroke-opacity: 0.8"/>
    </g>
    <g clip-path="url(#p9cdfdf1c74)">
     <use xlink:href="#C0_0_114e0d68dc" x="274.78658" y="186.80281" style="fill: #3374a1; fill-opacity: 0.8; stroke: #3374a1; stroke-opacity: 0.8"/>
    </g>
    <g clip-path="url(#p9cdfdf1c74)">
     <use xlink:href="#C0_0_114e0d68dc" x="274.714592" y="216.184318" style="fill: #3374a1; fill-opacity: 0.8; stroke: #3374a1; stroke-opacity: 0.8"/>
    </g>
    <g clip-path="url(#p9cdfdf1c74)">
     <use xlink:href="#C0_0_114e0d68dc" x="249.677643" y="201.756705" style="fill: #3374a1; fill-opacity: 0.8; stroke: #3374a1; stroke-opacity: 0.8"/>
    </g>
    <g clip-path="url(#p9cdfdf1c74)">
     <use xlink:href="#C0_0_114e0d68dc" x="326.440923" y="130.100028" style="fill: #3374a1; fill-opacity: 0.8; stroke: #3374a1; stroke-opacity: 0.8"/>
    </g>
    <g clip-path="url(#p9cdfdf1c74)">
     <use xlink:href="#C0_0_114e0d68dc" x="255.259384" y="277.717651" style="fill: #3374a1; fill-opacity: 0.8; stroke: #3374a1; stroke-opacity: 0.8"/>
    </g>
   </g>
   <g id="Path3DCollection_2">
    <defs>
     <path id="C1_0_84f8d29bc5" d="M 0 3.535534 
C 0.937635 3.535534 1.836992 3.163008 2.5 2.5 
C 3.163008 1.836992 3.535534 0.937635 3.535534 -0 
C 3.535534 -0.937635 3.163008 -1.836992 2.5 -2.5 
C 1.836992 -3.163008 0.937635 -3.535534 0 -3.535534 
C -0.937635 -3.535534 -1.836992 -3.163008 -2.5 -2.5 
C -3.163008 -1.836992 -3.535534 -0.937635 -3.535534 0 
C -3.535534 0.937635 -3.163008 1.836992 -2.5 2.5 
C -1.836992 3.163008 -0.937635 3.535534 0 3.535534 
z
"/>
    </defs>
    <g clip-path="url(#p9cdfdf1c74)">
     <use xlink:href="#C1_0_84f8d29bc5" x="326.34081" y="233.761409" style="fill: #3a923a; fill-opacity: 0.8; stroke: #3a923a; stroke-opacity: 0.8"/>
    </g>
    <g clip-path="url(#p9cdfdf1c74)">
     <use xlink:href="#C1_0_84f8d29bc5" x="322.244194" y="197.132216" style="fill: #3a923a; fill-opacity: 0.8; stroke: #3a923a; stroke-opacity: 0.8"/>
    </g>
    <g clip-path="url(#p9cdfdf1c74)">
     <use xlink:href="#C1_0_84f8d29bc5" x="339.874777" y="238.589255" style="fill: #3a923a; fill-opacity: 0.8; stroke: #3a923a; stroke-opacity: 0.8"/>
    </g>
    <g clip-path="url(#p9cdfdf1c74)">
     <use xlink:href="#C1_0_84f8d29bc5" x="287.899375" y="176.406535" style="fill: #3a923a; fill-opacity: 0.8; stroke: #3a923a; stroke-opacity: 0.8"/>
    </g>
    <g clip-path="url(#p9cdfdf1c74)">
     <use xlink:href="#C1_0_84f8d29bc5" x="273.950053" y="187.778302" style="fill: #3a923a; fill-opacity: 0.8; stroke: #3a923a; stroke-opacity: 0.8"/>
    </g>
    <g clip-path="url(#p9cdfdf1c74)">
     <use xlink:href="#C1_0_84f8d29bc5" x="311.793467" y="193.641093" style="fill: #3a923a; fill-opacity: 0.8; stroke: #3a923a; stroke-opacity: 0.8"/>
    </g>
    <g clip-path="url(#p9cdfdf1c74)">
     <use xlink:href="#C1_0_84f8d29bc5" x="314.025772" y="235.691907" style="fill: #3a923a; fill-opacity: 0.8; stroke: #3a923a; stroke-opacity: 0.8"/>
    </g>
    <g clip-path="url(#p9cdfdf1c74)">
     <use xlink:href="#C1_0_84f8d29bc5" x="295.84851" y="189.876549" style="fill: #3a923a; fill-opacity: 0.8; stroke: #3a923a; stroke-opacity: 0.8"/>
    </g>
    <g clip-path="url(#p9cdfdf1c74)">
     <use xlink:href="#C1_0_84f8d29bc5" x="260.588414" y="199.580664" style="fill: #3a923a; fill-opacity: 0.8; stroke: #3a923a; stroke-opacity: 0.8"/>
    </g>
    <g clip-path="url(#p9cdfdf1c74)">
     <use xlink:href="#C1_0_84f8d29bc5" x="351.694044" y="152.99267" style="fill: #3a923a; fill-opacity: 0.8; stroke: #3a923a; stroke-opacity: 0.8"/>
    </g>
    <g clip-path="url(#p9cdfdf1c74)">
     <use xlink:href="#C1_0_84f8d29bc5" x="260.2728" y="150.797844" style="fill: #3a923a; fill-opacity: 0.8; stroke: #3a923a; stroke-opacity: 0.8"/>
    </g>
    <g clip-path="url(#p9cdfdf1c74)">
     <use xlink:href="#C1_0_84f8d29bc5" x="273.484553" y="247.576731" style="fill: #3a923a; fill-opacity: 0.8; stroke: #3a923a; stroke-opacity: 0.8"/>
    </g>
    <g clip-path="url(#p9cdfdf1c74)">
     <use xlink:href="#C1_0_84f8d29bc5" x="308.713132" y="212.03349" style="fill: #3a923a; fill-opacity: 0.8; stroke: #3a923a; stroke-opacity: 0.8"/>
    </g>
    <g clip-path="url(#p9cdfdf1c74)">
     <use xlink:href="#C1_0_84f8d29bc5" x="358.213188" y="224.714388" style="fill: #3a923a; fill-opacity: 0.8; stroke: #3a923a; stroke-opacity: 0.8"/>
    </g>
    <g clip-path="url(#p9cdfdf1c74)">
     <use xlink:href="#C1_0_84f8d29bc5" x="343.09543" y="198.71789" style="fill: #3a923a; fill-opacity: 0.8; stroke: #3a923a; stroke-opacity: 0.8"/>
    </g>
    <g clip-path="url(#p9cdfdf1c74)">
     <use xlink:href="#C1_0_84f8d29bc5" x="343.403325" y="222.858481" style="fill: #3a923a; fill-opacity: 0.8; stroke: #3a923a; stroke-opacity: 0.8"/>
    </g>
    <g clip-path="url(#p9cdfdf1c74)">
     <use xlink:href="#C1_0_84f8d29bc5" x="400.405728" y="171.250241" style="fill: #3a923a; fill-opacity: 0.8; stroke: #3a923a; stroke-opacity: 0.8"/>
    </g>
   </g>
   <g id="Path3DCollection_3">
    <defs>
     <path id="C2_0_630440ec94" d="M 0 3.535534 
C 0.937635 3.535534 1.836992 3.163008 2.5 2.5 
C 3.163008 1.836992 3.535534 0.937635 3.535534 -0 
C 3.535534 -0.937635 3.163008 -1.836992 2.5 -2.5 
C 1.836992 -3.163008 0.937635 -3.535534 0 -3.535534 
C -0.937635 -3.535534 -1.836992 -3.163008 -2.5 -2.5 
C -3.163008 -1.836992 -3.535534 -0.937635 -3.535534 0 
C -3.535534 0.937635 -3.163008 1.836992 -2.5 2.5 
C -1.836992 3.163008 -0.937635 3.535534 0 3.535534 
z
"/>
    </defs>
    <g clip-path="url(#p9cdfdf1c74)">
     <use xlink:href="#C2_0_630440ec94" x="312.760243" y="248.429436" style="fill: #e1812c; fill-opacity: 0.8; stroke: #e1812c; stroke-opacity: 0.8"/>
    </g>
    <g clip-path="url(#p9cdfdf1c74)">
     <use xlink:href="#C2_0_630440ec94" x="315.422593" y="221.88373" style="fill: #e1812c; fill-opacity: 0.8; stroke: #e1812c; stroke-opacity: 0.8"/>
    </g>
    <g clip-path="url(#p9cdfdf1c74)">
     <use xlink:href="#C2_0_630440ec94" x="269.590267" y="164.022659" style="fill: #e1812c; fill-opacity: 0.8; stroke: #e1812c; stroke-opacity: 0.8"/>
    </g>
    <g clip-path="url(#p9cdfdf1c74)">
     <use xlink:href="#C2_0_630440ec94" x="287.160296" y="213.023891" style="fill: #e1812c; fill-opacity: 0.8; stroke: #e1812c; stroke-opacity: 0.8"/>
    </g>
    <g clip-path="url(#p9cdfdf1c74)">
     <use xlink:href="#C2_0_630440ec94" x="236.020732" y="162.668556" style="fill: #e1812c; fill-opacity: 0.8; stroke: #e1812c; stroke-opacity: 0.8"/>
    </g>
    <g clip-path="url(#p9cdfdf1c74)">
     <use xlink:href="#C2_0_630440ec94" x="246.521209" y="184.031549" style="fill: #e1812c; fill-opacity: 0.8; stroke: #e1812c; stroke-opacity: 0.8"/>
    </g>
    <g clip-path="url(#p9cdfdf1c74)">
     <use xlink:href="#C2_0_630440ec94" x="225.660859" y="156.646007" style="fill: #e1812c; fill-opacity: 0.8; stroke: #e1812c; stroke-opacity: 0.8"/>
    </g>
    <g clip-path="url(#p9cdfdf1c74)">
     <use xlink:href="#C2_0_630440ec94" x="238.908631" y="163.587607" style="fill: #e1812c; fill-opacity: 0.8; stroke: #e1812c; stroke-opacity: 0.8"/>
    </g>
    <g clip-path="url(#p9cdfdf1c74)">
     <use xlink:href="#C2_0_630440ec94" x="252.207062" y="168.684453" style="fill: #e1812c; fill-opacity: 0.8; stroke: #e1812c; stroke-opacity: 0.8"/>
    </g>
    <g clip-path="url(#p9cdfdf1c74)">
     <use xlink:href="#C2_0_630440ec94" x="281.051029" y="218.044541" style="fill: #e1812c; fill-opacity: 0.8; stroke: #e1812c; stroke-opacity: 0.8"/>
    </g>
    <g clip-path="url(#p9cdfdf1c74)">
     <use xlink:href="#C2_0_630440ec94" x="279.921019" y="215.174581" style="fill: #e1812c; fill-opacity: 0.8; stroke: #e1812c; stroke-opacity: 0.8"/>
    </g>
    <g clip-path="url(#p9cdfdf1c74)">
     <use xlink:href="#C2_0_630440ec94" x="234.960851" y="174.758108" style="fill: #e1812c; fill-opacity: 0.8; stroke: #e1812c; stroke-opacity: 0.8"/>
    </g>
    <g clip-path="url(#p9cdfdf1c74)">
     <use xlink:href="#C2_0_630440ec94" x="266.834845" y="191.706923" style="fill: #e1812c; fill-opacity: 0.8; stroke: #e1812c; stroke-opacity: 0.8"/>
    </g>
    <g clip-path="url(#p9cdfdf1c74)">
     <use xlink:href="#C2_0_630440ec94" x="243.320494" y="212.933255" style="fill: #e1812c; fill-opacity: 0.8; stroke: #e1812c; stroke-opacity: 0.8"/>
    </g>
    <g clip-path="url(#p9cdfdf1c74)">
     <use xlink:href="#C2_0_630440ec94" x="264.838002" y="220.069772" style="fill: #e1812c; fill-opacity: 0.8; stroke: #e1812c; stroke-opacity: 0.8"/>
    </g>
    <g clip-path="url(#p9cdfdf1c74)">
     <use xlink:href="#C2_0_630440ec94" x="249.415631" y="236.15855" style="fill: #e1812c; fill-opacity: 0.8; stroke: #e1812c; stroke-opacity: 0.8"/>
    </g>
    <g clip-path="url(#p9cdfdf1c74)">
     <use xlink:href="#C2_0_630440ec94" x="371.279928" y="175.075363" style="fill: #e1812c; fill-opacity: 0.8; stroke: #e1812c; stroke-opacity: 0.8"/>
    </g>
    <g clip-path="url(#p9cdfdf1c74)">
     <use xlink:href="#C2_0_630440ec94" x="271.771278" y="234.462938" style="fill: #e1812c; fill-opacity: 0.8; stroke: #e1812c; stroke-opacity: 0.8"/>
    </g>
    <g clip-path="url(#p9cdfdf1c74)">
     <use xlink:href="#C2_0_630440ec94" x="329.968181" y="187.295723" style="fill: #e1812c; fill-opacity: 0.8; stroke: #e1812c; stroke-opacity: 0.8"/>
    </g>
    <g clip-path="url(#p9cdfdf1c74)">
     <use xlink:href="#C2_0_630440ec94" x="262.527277" y="285.355323" style="fill: #e1812c; fill-opacity: 0.8; stroke: #e1812c; stroke-opacity: 0.8"/>
    </g>
    <g clip-path="url(#p9cdfdf1c74)">
     <use xlink:href="#C2_0_630440ec94" x="259.670297" y="291.319623" style="fill: #e1812c; fill-opacity: 0.8; stroke: #e1812c; stroke-opacity: 0.8"/>
    </g>
   </g>
  </g>
 </g>
 <defs>
  <clipPath id="p9cdfdf1c74">
   <rect x="128.88" y="51.84" width="332.64" height="332.64"/>
  </clipPath>
 </defs>
</svg>
