<?xml version="1.0" encoding="utf-8" standalone="no"?>
<!DOCTYPE svg PUBLIC "-//W3C//DTD SVG 1.1//EN"
  "http://www.w3.org/Graphics/SVG/1.1/DTD/svg11.dtd">
<svg xmlns:xlink="http://www.w3.org/1999/xlink" width="576pt" height="432pt" viewBox="0 0 576 432" xmlns="http://www.w3.org/2000/svg" version="1.1">
 <metadata>
  <rdf:RDF xmlns:dc="http://purl.org/dc/elements/1.1/" xmlns:cc="http://creativecommons.org/ns#" xmlns:rdf="http://www.w3.org/1999/02/22-rdf-syntax-ns#">
   <cc:Work>
    <dc:type rdf:resource="http://purl.org/dc/dcmitype/StillImage"/>
    <dc:date>2025-07-17T11:29:00.535081</dc:date>
    <dc:format>image/svg+xml</dc:format>
    <dc:creator>
     <cc:Agent>
      <dc:title>Matplotlib v3.8.4, https://matplotlib.org/</dc:title>
     </cc:Agent>
    </dc:creator>
   </cc:Work>
  </rdf:RDF>
 </metadata>
 <defs>
  <style type="text/css">*{stroke-linejoin: round; stroke-linecap: butt}</style>
 </defs>
 <g id="figure_1">
  <g id="patch_1">
   <path d="M 0 432 
L 576 432 
L 576 0 
L 0 0 
z
" style="fill: #ffffff"/>
  </g>
  <g id="patch_2">
   <path d="M 82.8 421.2 
L 493.2 421.2 
L 493.2 10.8 
L 82.8 10.8 
z
" style="fill: #ffffff"/>
  </g>
  <g id="pane3d_1">
   <g id="patch_3">
    <path d="M 113.78803 320.008512 
L 249.315513 206.406689 
L 247.431551 42.572551 
L 105.41838 146.207295 
" style="fill: #f2f2f2; opacity: 0.5; stroke: #f2f2f2; stroke-linejoin: miter"/>
   </g>
  </g>
  <g id="pane3d_2">
   <g id="patch_4">
    <path d="M 249.315513 206.406689 
L 466.788767 269.617578 
L 474.549621 100.140361 
L 247.431551 42.572551 
" style="fill: #e6e6e6; opacity: 0.5; stroke: #e6e6e6; stroke-linejoin: miter"/>
   </g>
  </g>
  <g id="pane3d_3">
   <g id="patch_5">
    <path d="M 113.78803 320.008512 
L 344.320301 395.300351 
L 466.788767 269.617578 
L 249.315513 206.406689 
" style="fill: #ececec; opacity: 0.5; stroke: #ececec; stroke-linejoin: miter"/>
   </g>
  </g>
  <g id="grid3d_1">
   <g id="Line3DCollection_1">
    <path d="M 149.070822 331.531872 
L 282.724283 216.117299 
L 282.259686 51.400468 
" style="fill: none; stroke: #b0b0b0; stroke-width: 0.8"/>
    <path d="M 195.796403 346.792447 
L 326.898533 228.957009 
L 328.345342 63.081838 
" style="fill: none; stroke: #b0b0b0; stroke-width: 0.8"/>
    <path d="M 243.550485 362.38893 
L 371.963459 242.055604 
L 375.400945 75.009062 
" style="fill: none; stroke: #b0b0b0; stroke-width: 0.8"/>
    <path d="M 292.367405 378.332536 
L 417.946273 255.420993 
L 423.457443 87.189983 
" style="fill: none; stroke: #b0b0b0; stroke-width: 0.8"/>
   </g>
  </g>
  <g id="grid3d_2">
   <g id="Line3DCollection_2">
    <path d="M 116.51637 138.108488 
L 124.342165 311.161827 
L 353.896372 385.472947 
" style="fill: none; stroke: #b0b0b0; stroke-width: 0.8"/>
    <path d="M 141.962215 119.539269 
L 148.564663 290.858049 
L 375.849218 362.943927 
" style="fill: none; stroke: #b0b0b0; stroke-width: 0.8"/>
    <path d="M 166.637876 101.532095 
L 172.085477 271.142436 
L 397.132962 341.10157 
" style="fill: none; stroke: #b0b0b0; stroke-width: 0.8"/>
    <path d="M 190.5778 84.061829 
L 194.934661 251.989797 
L 417.777736 319.914953 
" style="fill: none; stroke: #b0b0b0; stroke-width: 0.8"/>
    <path d="M 213.814409 67.10481 
L 217.140577 233.376358 
L 437.811888 299.354984 
" style="fill: none; stroke: #b0b0b0; stroke-width: 0.8"/>
    <path d="M 236.378248 50.638749 
L 238.730014 215.279664 
L 457.262115 279.394266 
" style="fill: none; stroke: #b0b0b0; stroke-width: 0.8"/>
   </g>
  </g>
  <g id="grid3d_3">
   <g id="Line3DCollection_3">
    <path d="M 468.312856 236.335365 
L 248.94491 174.178055 
L 112.146611 285.923369 
" style="fill: none; stroke: #b0b0b0; stroke-width: 0.8"/>
    <path d="M 469.751966 204.908878 
L 248.595252 143.770938 
L 110.595714 253.718006 
" style="fill: none; stroke: #b0b0b0; stroke-width: 0.8"/>
    <path d="M 471.214974 172.960534 
L 248.240069 112.88329 
L 109.01807 220.957206 
" style="fill: none; stroke: #b0b0b0; stroke-width: 0.8"/>
    <path d="M 472.702479 140.477226 
L 247.879228 81.503629 
L 107.412981 187.626476 
" style="fill: none; stroke: #b0b0b0; stroke-width: 0.8"/>
    <path d="M 474.215102 107.445402 
L 247.512593 49.620105 
L 105.779722 153.710812 
" style="fill: none; stroke: #b0b0b0; stroke-width: 0.8"/>
   </g>
  </g>
  <g id="axis3d_1">
   <g id="line2d_1">
    <path d="M 113.78803 320.008512 
L 344.320301 395.300351 
" style="fill: none; stroke: #000000; stroke-width: 0.8; stroke-linecap: square"/>
   </g>
   <g id="xtick_1">
    <g id="line2d_2">
     <path d="M 150.23514 330.526441 
L 146.737163 333.54707 
" style="fill: none; stroke: #000000; stroke-width: 0.8; stroke-linecap: square"/>
    </g>
    <g id="text_1">
     <!-- −0.2 -->
     <g transform="translate(129.424146 354.915876) scale(0.1 -0.1)">
      <defs>
       <path id="DejaVuSans-2212" d="M 678 2272 
L 4684 2272 
L 4684 1741 
L 678 1741 
L 678 2272 
z
" transform="scale(0.015625)"/>
       <path id="DejaVuSans-30" d="M 2034 4250 
Q 1547 4250 1301 3770 
Q 1056 3291 1056 2328 
Q 1056 1369 1301 889 
Q 1547 409 2034 409 
Q 2525 409 2770 889 
Q 3016 1369 3016 2328 
Q 3016 3291 2770 3770 
Q 2525 4250 2034 4250 
z
M 2034 4750 
Q 2819 4750 3233 4129 
Q 3647 3509 3647 2328 
Q 3647 1150 3233 529 
Q 2819 -91 2034 -91 
Q 1250 -91 836 529 
Q 422 1150 422 2328 
Q 422 3509 836 4129 
Q 1250 4750 2034 4750 
z
" transform="scale(0.015625)"/>
       <path id="DejaVuSans-2e" d="M 684 794 
L 1344 794 
L 1344 0 
L 684 0 
L 684 794 
z
" transform="scale(0.015625)"/>
       <path id="DejaVuSans-32" d="M 1228 531 
L 3431 531 
L 3431 0 
L 469 0 
L 469 531 
Q 828 903 1448 1529 
Q 2069 2156 2228 2338 
Q 2531 2678 2651 2914 
Q 2772 3150 2772 3378 
Q 2772 3750 2511 3984 
Q 2250 4219 1831 4219 
Q 1534 4219 1204 4116 
Q 875 4013 500 3803 
L 500 4441 
Q 881 4594 1212 4672 
Q 1544 4750 1819 4750 
Q 2544 4750 2975 4387 
Q 3406 4025 3406 3419 
Q 3406 3131 3298 2873 
Q 3191 2616 2906 2266 
Q 2828 2175 2409 1742 
Q 1991 1309 1228 531 
z
" transform="scale(0.015625)"/>
      </defs>
      <use xlink:href="#DejaVuSans-2212"/>
      <use xlink:href="#DejaVuSans-30" x="83.789062"/>
      <use xlink:href="#DejaVuSans-2e" x="147.412109"/>
      <use xlink:href="#DejaVuSans-32" x="179.199219"/>
     </g>
    </g>
   </g>
   <g id="xtick_2">
    <g id="line2d_3">
     <path d="M 196.93951 345.765014 
L 193.505204 348.851791 
" style="fill: none; stroke: #000000; stroke-width: 0.8; stroke-linecap: square"/>
    </g>
    <g id="text_2">
     <!-- −0.1 -->
     <g transform="translate(176.1821 370.386034) scale(0.1 -0.1)">
      <defs>
       <path id="DejaVuSans-31" d="M 794 531 
L 1825 531 
L 1825 4091 
L 703 3866 
L 703 4441 
L 1819 4666 
L 2450 4666 
L 2450 531 
L 3481 531 
L 3481 0 
L 794 0 
L 794 531 
z
" transform="scale(0.015625)"/>
      </defs>
      <use xlink:href="#DejaVuSans-2212"/>
      <use xlink:href="#DejaVuSans-30" x="83.789062"/>
      <use xlink:href="#DejaVuSans-2e" x="147.412109"/>
      <use xlink:href="#DejaVuSans-31" x="179.199219"/>
     </g>
    </g>
   </g>
   <g id="xtick_3">
    <g id="line2d_4">
     <path d="M 244.671161 361.338766 
L 241.304194 364.493886 
" style="fill: none; stroke: #000000; stroke-width: 0.8; stroke-linecap: square"/>
    </g>
    <g id="text_3">
     <!-- 0.0 -->
     <g transform="translate(228.161656 386.197555) scale(0.1 -0.1)">
      <use xlink:href="#DejaVuSans-30"/>
      <use xlink:href="#DejaVuSans-2e" x="63.623047"/>
      <use xlink:href="#DejaVuSans-30" x="95.410156"/>
     </g>
    </g>
   </g>
   <g id="xtick_4">
    <g id="line2d_5">
     <path d="M 293.464363 377.258878 
L 290.168601 380.484637 
" style="fill: none; stroke: #000000; stroke-width: 0.8; stroke-linecap: square"/>
    </g>
    <g id="text_4">
     <!-- 0.1 -->
     <g transform="translate(277.017658 402.361866) scale(0.1 -0.1)">
      <use xlink:href="#DejaVuSans-30"/>
      <use xlink:href="#DejaVuSans-2e" x="63.623047"/>
      <use xlink:href="#DejaVuSans-31" x="95.410156"/>
     </g>
    </g>
   </g>
   <g id="text_5">
    <!-- PC1 (2.95%) -->
    <g transform="translate(179.387863 384.810876) rotate(-341.912962) scale(0.1 -0.1)">
     <defs>
      <path id="DejaVuSans-50" d="M 1259 4147 
L 1259 2394 
L 2053 2394 
Q 2494 2394 2734 2622 
Q 2975 2850 2975 3272 
Q 2975 3691 2734 3919 
Q 2494 4147 2053 4147 
L 1259 4147 
z
M 628 4666 
L 2053 4666 
Q 2838 4666 3239 4311 
Q 3641 3956 3641 3272 
Q 3641 2581 3239 2228 
Q 2838 1875 2053 1875 
L 1259 1875 
L 1259 0 
L 628 0 
L 628 4666 
z
" transform="scale(0.015625)"/>
      <path id="DejaVuSans-43" d="M 4122 4306 
L 4122 3641 
Q 3803 3938 3442 4084 
Q 3081 4231 2675 4231 
Q 1875 4231 1450 3742 
Q 1025 3253 1025 2328 
Q 1025 1406 1450 917 
Q 1875 428 2675 428 
Q 3081 428 3442 575 
Q 3803 722 4122 1019 
L 4122 359 
Q 3791 134 3420 21 
Q 3050 -91 2638 -91 
Q 1578 -91 968 557 
Q 359 1206 359 2328 
Q 359 3453 968 4101 
Q 1578 4750 2638 4750 
Q 3056 4750 3426 4639 
Q 3797 4528 4122 4306 
z
" transform="scale(0.015625)"/>
      <path id="DejaVuSans-20" transform="scale(0.015625)"/>
      <path id="DejaVuSans-28" d="M 1984 4856 
Q 1566 4138 1362 3434 
Q 1159 2731 1159 2009 
Q 1159 1288 1364 580 
Q 1569 -128 1984 -844 
L 1484 -844 
Q 1016 -109 783 600 
Q 550 1309 550 2009 
Q 550 2706 781 3412 
Q 1013 4119 1484 4856 
L 1984 4856 
z
" transform="scale(0.015625)"/>
      <path id="DejaVuSans-39" d="M 703 97 
L 703 672 
Q 941 559 1184 500 
Q 1428 441 1663 441 
Q 2288 441 2617 861 
Q 2947 1281 2994 2138 
Q 2813 1869 2534 1725 
Q 2256 1581 1919 1581 
Q 1219 1581 811 2004 
Q 403 2428 403 3163 
Q 403 3881 828 4315 
Q 1253 4750 1959 4750 
Q 2769 4750 3195 4129 
Q 3622 3509 3622 2328 
Q 3622 1225 3098 567 
Q 2575 -91 1691 -91 
Q 1453 -91 1209 -44 
Q 966 3 703 97 
z
M 1959 2075 
Q 2384 2075 2632 2365 
Q 2881 2656 2881 3163 
Q 2881 3666 2632 3958 
Q 2384 4250 1959 4250 
Q 1534 4250 1286 3958 
Q 1038 3666 1038 3163 
Q 1038 2656 1286 2365 
Q 1534 2075 1959 2075 
z
" transform="scale(0.015625)"/>
      <path id="DejaVuSans-35" d="M 691 4666 
L 3169 4666 
L 3169 4134 
L 1269 4134 
L 1269 2991 
Q 1406 3038 1543 3061 
Q 1681 3084 1819 3084 
Q 2600 3084 3056 2656 
Q 3513 2228 3513 1497 
Q 3513 744 3044 326 
Q 2575 -91 1722 -91 
Q 1428 -91 1123 -41 
Q 819 9 494 109 
L 494 744 
Q 775 591 1075 516 
Q 1375 441 1709 441 
Q 2250 441 2565 725 
Q 2881 1009 2881 1497 
Q 2881 1984 2565 2268 
Q 2250 2553 1709 2553 
Q 1456 2553 1204 2497 
Q 953 2441 691 2322 
L 691 4666 
z
" transform="scale(0.015625)"/>
      <path id="DejaVuSans-25" d="M 4653 2053 
Q 4381 2053 4226 1822 
Q 4072 1591 4072 1178 
Q 4072 772 4226 539 
Q 4381 306 4653 306 
Q 4919 306 5073 539 
Q 5228 772 5228 1178 
Q 5228 1588 5073 1820 
Q 4919 2053 4653 2053 
z
M 4653 2450 
Q 5147 2450 5437 2106 
Q 5728 1763 5728 1178 
Q 5728 594 5436 251 
Q 5144 -91 4653 -91 
Q 4153 -91 3862 251 
Q 3572 594 3572 1178 
Q 3572 1766 3864 2108 
Q 4156 2450 4653 2450 
z
M 1428 4353 
Q 1159 4353 1004 4120 
Q 850 3888 850 3481 
Q 850 3069 1003 2837 
Q 1156 2606 1428 2606 
Q 1700 2606 1854 2837 
Q 2009 3069 2009 3481 
Q 2009 3884 1853 4118 
Q 1697 4353 1428 4353 
z
M 4250 4750 
L 4750 4750 
L 1831 -91 
L 1331 -91 
L 4250 4750 
z
M 1428 4750 
Q 1922 4750 2215 4408 
Q 2509 4066 2509 3481 
Q 2509 2891 2217 2550 
Q 1925 2209 1428 2209 
Q 931 2209 642 2551 
Q 353 2894 353 3481 
Q 353 4063 643 4406 
Q 934 4750 1428 4750 
z
" transform="scale(0.015625)"/>
      <path id="DejaVuSans-29" d="M 513 4856 
L 1013 4856 
Q 1481 4119 1714 3412 
Q 1947 2706 1947 2009 
Q 1947 1309 1714 600 
Q 1481 -109 1013 -844 
L 513 -844 
Q 928 -128 1133 580 
Q 1338 1288 1338 2009 
Q 1338 2731 1133 3434 
Q 928 4138 513 4856 
z
" transform="scale(0.015625)"/>
     </defs>
     <use xlink:href="#DejaVuSans-50"/>
     <use xlink:href="#DejaVuSans-43" x="60.302734"/>
     <use xlink:href="#DejaVuSans-31" x="130.126953"/>
     <use xlink:href="#DejaVuSans-20" x="193.75"/>
     <use xlink:href="#DejaVuSans-28" x="225.537109"/>
     <use xlink:href="#DejaVuSans-32" x="264.550781"/>
     <use xlink:href="#DejaVuSans-2e" x="328.173828"/>
     <use xlink:href="#DejaVuSans-39" x="359.960938"/>
     <use xlink:href="#DejaVuSans-35" x="423.583984"/>
     <use xlink:href="#DejaVuSans-25" x="487.207031"/>
     <use xlink:href="#DejaVuSans-29" x="582.226562"/>
    </g>
   </g>
  </g>
  <g id="axis3d_2">
   <g id="line2d_6">
    <path d="M 466.788767 269.617578 
L 344.320301 395.300351 
" style="fill: none; stroke: #000000; stroke-width: 0.8; stroke-linecap: square"/>
   </g>
   <g id="xtick_5">
    <g id="line2d_7">
     <path d="M 351.961988 384.84675 
L 357.770139 386.72696 
" style="fill: none; stroke: #000000; stroke-width: 0.8; stroke-linecap: square"/>
    </g>
    <g id="text_6">
     <!-- −0.3 -->
     <g transform="translate(354.623314 406.48099) scale(0.1 -0.1)">
      <defs>
       <path id="DejaVuSans-33" d="M 2597 2516 
Q 3050 2419 3304 2112 
Q 3559 1806 3559 1356 
Q 3559 666 3084 287 
Q 2609 -91 1734 -91 
Q 1441 -91 1130 -33 
Q 819 25 488 141 
L 488 750 
Q 750 597 1062 519 
Q 1375 441 1716 441 
Q 2309 441 2620 675 
Q 2931 909 2931 1356 
Q 2931 1769 2642 2001 
Q 2353 2234 1838 2234 
L 1294 2234 
L 1294 2753 
L 1863 2753 
Q 2328 2753 2575 2939 
Q 2822 3125 2822 3475 
Q 2822 3834 2567 4026 
Q 2313 4219 1838 4219 
Q 1578 4219 1281 4162 
Q 984 4106 628 3988 
L 628 4550 
Q 988 4650 1302 4700 
Q 1616 4750 1894 4750 
Q 2613 4750 3031 4423 
Q 3450 4097 3450 3541 
Q 3450 3153 3228 2886 
Q 3006 2619 2597 2516 
z
" transform="scale(0.015625)"/>
      </defs>
      <use xlink:href="#DejaVuSans-2212"/>
      <use xlink:href="#DejaVuSans-30" x="83.789062"/>
      <use xlink:href="#DejaVuSans-2e" x="147.412109"/>
      <use xlink:href="#DejaVuSans-33" x="179.199219"/>
     </g>
    </g>
   </g>
   <g id="xtick_6">
    <g id="line2d_8">
     <path d="M 373.935459 362.336957 
L 379.681603 364.159412 
" style="fill: none; stroke: #000000; stroke-width: 0.8; stroke-linecap: square"/>
    </g>
    <g id="text_7">
     <!-- −0.2 -->
     <g transform="translate(376.385325 383.735769) scale(0.1 -0.1)">
      <use xlink:href="#DejaVuSans-2212"/>
      <use xlink:href="#DejaVuSans-30" x="83.789062"/>
      <use xlink:href="#DejaVuSans-2e" x="147.412109"/>
      <use xlink:href="#DejaVuSans-32" x="179.199219"/>
     </g>
    </g>
   </g>
   <g id="xtick_7">
    <g id="line2d_9">
     <path d="M 395.23948 340.512955 
L 400.924669 342.280275 
" style="fill: none; stroke: #000000; stroke-width: 0.8; stroke-linecap: square"/>
    </g>
    <g id="text_8">
     <!-- −0.1 -->
     <g transform="translate(397.483801 361.684061) scale(0.1 -0.1)">
      <use xlink:href="#DejaVuSans-2212"/>
      <use xlink:href="#DejaVuSans-30" x="83.789062"/>
      <use xlink:href="#DejaVuSans-2e" x="147.412109"/>
      <use xlink:href="#DejaVuSans-31" x="179.199219"/>
     </g>
    </g>
   </g>
   <g id="xtick_8">
    <g id="line2d_10">
     <path d="M 415.904184 319.343873 
L 421.529461 321.058523 
" style="fill: none; stroke: #000000; stroke-width: 0.8; stroke-linecap: square"/>
    </g>
    <g id="text_9">
     <!-- 0.0 -->
     <g transform="translate(422.138478 340.294624) scale(0.1 -0.1)">
      <use xlink:href="#DejaVuSans-30"/>
      <use xlink:href="#DejaVuSans-2e" x="63.623047"/>
      <use xlink:href="#DejaVuSans-30" x="95.410156"/>
     </g>
    </g>
   </g>
   <g id="xtick_9">
    <g id="line2d_11">
     <path d="M 435.957925 298.800667 
L 441.524321 300.464966 
" style="fill: none; stroke: #000000; stroke-width: 0.8; stroke-linecap: square"/>
    </g>
    <g id="text_10">
     <!-- 0.1 -->
     <g transform="translate(441.997791 319.538065) scale(0.1 -0.1)">
      <use xlink:href="#DejaVuSans-30"/>
      <use xlink:href="#DejaVuSans-2e" x="63.623047"/>
      <use xlink:href="#DejaVuSans-31" x="95.410156"/>
     </g>
    </g>
   </g>
   <g id="xtick_10">
    <g id="line2d_12">
     <path d="M 455.427403 278.855985 
L 460.935935 280.472119 
" style="fill: none; stroke: #000000; stroke-width: 0.8; stroke-linecap: square"/>
    </g>
    <g id="text_11">
     <!-- 0.2 -->
     <g transform="translate(461.278066 299.386704) scale(0.1 -0.1)">
      <use xlink:href="#DejaVuSans-30"/>
      <use xlink:href="#DejaVuSans-2e" x="63.623047"/>
      <use xlink:href="#DejaVuSans-32" x="95.410156"/>
     </g>
    </g>
   </g>
   <g id="text_12">
    <!-- PC2 (2.75%) -->
    <g transform="translate(415.553697 381.8161) rotate(-45.742112) scale(0.1 -0.1)">
     <defs>
      <path id="DejaVuSans-37" d="M 525 4666 
L 3525 4666 
L 3525 4397 
L 1831 0 
L 1172 0 
L 2766 4134 
L 525 4134 
L 525 4666 
z
" transform="scale(0.015625)"/>
     </defs>
     <use xlink:href="#DejaVuSans-50"/>
     <use xlink:href="#DejaVuSans-43" x="60.302734"/>
     <use xlink:href="#DejaVuSans-32" x="130.126953"/>
     <use xlink:href="#DejaVuSans-20" x="193.75"/>
     <use xlink:href="#DejaVuSans-28" x="225.537109"/>
     <use xlink:href="#DejaVuSans-32" x="264.550781"/>
     <use xlink:href="#DejaVuSans-2e" x="328.173828"/>
     <use xlink:href="#DejaVuSans-37" x="359.960938"/>
     <use xlink:href="#DejaVuSans-35" x="423.583984"/>
     <use xlink:href="#DejaVuSans-25" x="487.207031"/>
     <use xlink:href="#DejaVuSans-29" x="582.226562"/>
    </g>
   </g>
  </g>
  <g id="axis3d_3">
   <g id="line2d_13">
    <path d="M 466.788767 269.617578 
L 474.549621 100.140361 
" style="fill: none; stroke: #000000; stroke-width: 0.8; stroke-linecap: square"/>
   </g>
   <g id="xtick_11">
    <g id="line2d_14">
     <path d="M 466.470997 235.813479 
L 472.000993 237.380389 
" style="fill: none; stroke: #000000; stroke-width: 0.8; stroke-linecap: square"/>
    </g>
    <g id="text_13">
     <!-- −0.1 -->
     <g transform="translate(474.596748 241.368501) scale(0.1 -0.1)">
      <use xlink:href="#DejaVuSans-2212"/>
      <use xlink:href="#DejaVuSans-30" x="83.789062"/>
      <use xlink:href="#DejaVuSans-2e" x="147.412109"/>
      <use xlink:href="#DejaVuSans-31" x="179.199219"/>
     </g>
    </g>
   </g>
   <g id="xtick_12">
    <g id="line2d_15">
     <path d="M 467.894367 204.395352 
L 473.471658 205.937173 
" style="fill: none; stroke: #000000; stroke-width: 0.8; stroke-linecap: square"/>
    </g>
    <g id="text_14">
     <!-- 0.0 -->
     <g transform="translate(480.374275 209.983137) scale(0.1 -0.1)">
      <use xlink:href="#DejaVuSans-30"/>
      <use xlink:href="#DejaVuSans-2e" x="63.623047"/>
      <use xlink:href="#DejaVuSans-30" x="95.410156"/>
     </g>
    </g>
   </g>
   <g id="xtick_13">
    <g id="line2d_16">
     <path d="M 469.341364 172.455718 
L 474.966764 173.971398 
" style="fill: none; stroke: #000000; stroke-width: 0.8; stroke-linecap: square"/>
    </g>
    <g id="text_15">
     <!-- 0.1 -->
     <g transform="translate(481.988271 178.077639) scale(0.1 -0.1)">
      <use xlink:href="#DejaVuSans-30"/>
      <use xlink:href="#DejaVuSans-2e" x="63.623047"/>
      <use xlink:href="#DejaVuSans-31" x="95.410156"/>
     </g>
    </g>
   </g>
   <g id="xtick_14">
    <g id="line2d_17">
     <path d="M 470.812579 139.981484 
L 476.486926 141.469927 
" style="fill: none; stroke: #000000; stroke-width: 0.8; stroke-linecap: square"/>
    </g>
    <g id="text_16">
     <!-- 0.2 -->
     <g transform="translate(483.629238 145.638969) scale(0.1 -0.1)">
      <use xlink:href="#DejaVuSans-30"/>
      <use xlink:href="#DejaVuSans-2e" x="63.623047"/>
      <use xlink:href="#DejaVuSans-32" x="95.410156"/>
     </g>
    </g>
   </g>
   <g id="xtick_15">
    <g id="line2d_18">
     <path d="M 472.308628 106.959116 
L 478.032778 108.419182 
" style="fill: none; stroke: #000000; stroke-width: 0.8; stroke-linecap: square"/>
    </g>
    <g id="text_17">
     <!-- 0.3 -->
     <g transform="translate(485.297858 112.65365) scale(0.1 -0.1)">
      <use xlink:href="#DejaVuSans-30"/>
      <use xlink:href="#DejaVuSans-2e" x="63.623047"/>
      <use xlink:href="#DejaVuSans-33" x="95.410156"/>
     </g>
    </g>
   </g>
   <g id="text_18">
    <!-- PC3 (2.47%) -->
    <g transform="translate(512.389978 212.468875) rotate(-87.378092) scale(0.1 -0.1)">
     <defs>
      <path id="DejaVuSans-34" d="M 2419 4116 
L 825 1625 
L 2419 1625 
L 2419 4116 
z
M 2253 4666 
L 3047 4666 
L 3047 1625 
L 3713 1625 
L 3713 1100 
L 3047 1100 
L 3047 0 
L 2419 0 
L 2419 1100 
L 313 1100 
L 313 1709 
L 2253 4666 
z
" transform="scale(0.015625)"/>
     </defs>
     <use xlink:href="#DejaVuSans-50"/>
     <use xlink:href="#DejaVuSans-43" x="60.302734"/>
     <use xlink:href="#DejaVuSans-33" x="130.126953"/>
     <use xlink:href="#DejaVuSans-20" x="193.75"/>
     <use xlink:href="#DejaVuSans-28" x="225.537109"/>
     <use xlink:href="#DejaVuSans-32" x="264.550781"/>
     <use xlink:href="#DejaVuSans-2e" x="328.173828"/>
     <use xlink:href="#DejaVuSans-34" x="359.960938"/>
     <use xlink:href="#DejaVuSans-37" x="423.583984"/>
     <use xlink:href="#DejaVuSans-25" x="487.207031"/>
     <use xlink:href="#DejaVuSans-29" x="582.226562"/>
    </g>
   </g>
  </g>
  <g id="axes_1">
   <g id="Path3DCollection_1">
    <defs>
     <path id="C0_0_f92ef1f196" d="M 0 3.535534 
C 0.937635 3.535534 1.836992 3.163008 2.5 2.5 
C 3.163008 1.836992 3.535534 0.937635 3.535534 -0 
C 3.535534 -0.937635 3.163008 -1.836992 2.5 -2.5 
C 1.836992 -3.163008 0.937635 -3.535534 0 -3.535534 
C -0.937635 -3.535534 -1.836992 -3.163008 -2.5 -2.5 
C -3.163008 -1.836992 -3.535534 -0.937635 -3.535534 0 
C -3.535534 0.937635 -3.163008 1.836992 -2.5 2.5 
C -1.836992 3.163008 -0.937635 3.535534 0 3.535534 
z
"/>
    </defs>
    <g clip-path="url(#pedd0b650ca)">
     <use xlink:href="#C0_0_f92ef1f196" x="267.336098" y="219.534712" style="fill: #3374a1; fill-opacity: 0.8; stroke: #3374a1; stroke-opacity: 0.8"/>
    </g>
    <g clip-path="url(#pedd0b650ca)">
     <use xlink:href="#C0_0_f92ef1f196" x="224.70317" y="234.058874" style="fill: #3374a1; fill-opacity: 0.8; stroke: #3374a1; stroke-opacity: 0.8"/>
    </g>
    <g clip-path="url(#pedd0b650ca)">
     <use xlink:href="#C0_0_f92ef1f196" x="248.693461" y="255.542578" style="fill: #3374a1; fill-opacity: 0.8; stroke: #3374a1; stroke-opacity: 0.8"/>
    </g>
    <g clip-path="url(#pedd0b650ca)">
     <use xlink:href="#C0_0_f92ef1f196" x="369.412815" y="252.902181" style="fill: #3374a1; fill-opacity: 0.8; stroke: #3374a1; stroke-opacity: 0.8"/>
    </g>
    <g clip-path="url(#pedd0b650ca)">
     <use xlink:href="#C0_0_f92ef1f196" x="390.237147" y="244.671047" style="fill: #3374a1; fill-opacity: 0.8; stroke: #3374a1; stroke-opacity: 0.8"/>
    </g>
    <g clip-path="url(#pedd0b650ca)">
     <use xlink:href="#C0_0_f92ef1f196" x="345.91814" y="264.913707" style="fill: #3374a1; fill-opacity: 0.8; stroke: #3374a1; stroke-opacity: 0.8"/>
    </g>
    <g clip-path="url(#pedd0b650ca)">
     <use xlink:href="#C0_0_f92ef1f196" x="376.476947" y="235.469647" style="fill: #3374a1; fill-opacity: 0.8; stroke: #3374a1; stroke-opacity: 0.8"/>
    </g>
    <g clip-path="url(#pedd0b650ca)">
     <use xlink:href="#C0_0_f92ef1f196" x="226.205651" y="185.129385" style="fill: #3374a1; fill-opacity: 0.8; stroke: #3374a1; stroke-opacity: 0.8"/>
    </g>
    <g clip-path="url(#pedd0b650ca)">
     <use xlink:href="#C0_0_f92ef1f196" x="407.075446" y="237.957803" style="fill: #3374a1; fill-opacity: 0.8; stroke: #3374a1; stroke-opacity: 0.8"/>
    </g>
    <g clip-path="url(#pedd0b650ca)">
     <use xlink:href="#C0_0_f92ef1f196" x="341.746187" y="281.150005" style="fill: #3374a1; fill-opacity: 0.8; stroke: #3374a1; stroke-opacity: 0.8"/>
    </g>
   </g>
   <g id="Path3DCollection_2">
    <defs>
     <path id="C1_0_4934fa5b83" d="M 0 3.535534 
C 0.937635 3.535534 1.836992 3.163008 2.5 2.5 
C 3.163008 1.836992 3.535534 0.937635 3.535534 -0 
C 3.535534 -0.937635 3.163008 -1.836992 2.5 -2.5 
C 1.836992 -3.163008 0.937635 -3.535534 0 -3.535534 
C -0.937635 -3.535534 -1.836992 -3.163008 -2.5 -2.5 
C -3.163008 -1.836992 -3.535534 -0.937635 -3.535534 0 
C -3.535534 0.937635 -3.163008 1.836992 -2.5 2.5 
C -1.836992 3.163008 -0.937635 3.535534 0 3.535534 
z
"/>
    </defs>
    <g clip-path="url(#pedd0b650ca)">
     <use xlink:href="#C1_0_4934fa5b83" x="253.568429" y="112.770808" style="fill: #3a923a; fill-opacity: 0.8; stroke: #3a923a; stroke-opacity: 0.8"/>
    </g>
    <g clip-path="url(#pedd0b650ca)">
     <use xlink:href="#C1_0_4934fa5b83" x="242.01302" y="223.267961" style="fill: #3a923a; fill-opacity: 0.8; stroke: #3a923a; stroke-opacity: 0.8"/>
    </g>
    <g clip-path="url(#pedd0b650ca)">
     <use xlink:href="#C1_0_4934fa5b83" x="302.704589" y="213.854988" style="fill: #3a923a; fill-opacity: 0.8; stroke: #3a923a; stroke-opacity: 0.8"/>
    </g>
    <g clip-path="url(#pedd0b650ca)">
     <use xlink:href="#C1_0_4934fa5b83" x="324.751054" y="214.232976" style="fill: #3a923a; fill-opacity: 0.8; stroke: #3a923a; stroke-opacity: 0.8"/>
    </g>
    <g clip-path="url(#pedd0b650ca)">
     <use xlink:href="#C1_0_4934fa5b83" x="255.159018" y="201.39079" style="fill: #3a923a; fill-opacity: 0.8; stroke: #3a923a; stroke-opacity: 0.8"/>
    </g>
    <g clip-path="url(#pedd0b650ca)">
     <use xlink:href="#C1_0_4934fa5b83" x="341.809039" y="239.146765" style="fill: #3a923a; fill-opacity: 0.8; stroke: #3a923a; stroke-opacity: 0.8"/>
    </g>
    <g clip-path="url(#pedd0b650ca)">
     <use xlink:href="#C1_0_4934fa5b83" x="254.140805" y="163.105671" style="fill: #3a923a; fill-opacity: 0.8; stroke: #3a923a; stroke-opacity: 0.8"/>
    </g>
    <g clip-path="url(#pedd0b650ca)">
     <use xlink:href="#C1_0_4934fa5b83" x="382.302972" y="198.322961" style="fill: #3a923a; fill-opacity: 0.8; stroke: #3a923a; stroke-opacity: 0.8"/>
    </g>
    <g clip-path="url(#pedd0b650ca)">
     <use xlink:href="#C1_0_4934fa5b83" x="366.251805" y="168.096467" style="fill: #3a923a; fill-opacity: 0.8; stroke: #3a923a; stroke-opacity: 0.8"/>
    </g>
    <g clip-path="url(#pedd0b650ca)">
     <use xlink:href="#C1_0_4934fa5b83" x="212.504197" y="95.346249" style="fill: #3a923a; fill-opacity: 0.8; stroke: #3a923a; stroke-opacity: 0.8"/>
    </g>
    <g clip-path="url(#pedd0b650ca)">
     <use xlink:href="#C1_0_4934fa5b83" x="432.075646" y="185.840638" style="fill: #3a923a; fill-opacity: 0.8; stroke: #3a923a; stroke-opacity: 0.8"/>
    </g>
    <g clip-path="url(#pedd0b650ca)">
     <use xlink:href="#C1_0_4934fa5b83" x="272.410745" y="174.642356" style="fill: #3a923a; fill-opacity: 0.8; stroke: #3a923a; stroke-opacity: 0.8"/>
    </g>
    <g clip-path="url(#pedd0b650ca)">
     <use xlink:href="#C1_0_4934fa5b83" x="267.981092" y="221.753876" style="fill: #3a923a; fill-opacity: 0.8; stroke: #3a923a; stroke-opacity: 0.8"/>
    </g>
    <g clip-path="url(#pedd0b650ca)">
     <use xlink:href="#C1_0_4934fa5b83" x="248.1433" y="231.27014" style="fill: #3a923a; fill-opacity: 0.8; stroke: #3a923a; stroke-opacity: 0.8"/>
    </g>
    <g clip-path="url(#pedd0b650ca)">
     <use xlink:href="#C1_0_4934fa5b83" x="275.811267" y="211.669148" style="fill: #3a923a; fill-opacity: 0.8; stroke: #3a923a; stroke-opacity: 0.8"/>
    </g>
    <g clip-path="url(#pedd0b650ca)">
     <use xlink:href="#C1_0_4934fa5b83" x="295.377628" y="142.997986" style="fill: #3a923a; fill-opacity: 0.8; stroke: #3a923a; stroke-opacity: 0.8"/>
    </g>
    <g clip-path="url(#pedd0b650ca)">
     <use xlink:href="#C1_0_4934fa5b83" x="309.11788" y="230.415004" style="fill: #3a923a; fill-opacity: 0.8; stroke: #3a923a; stroke-opacity: 0.8"/>
    </g>
   </g>
   <g id="Path3DCollection_3">
    <defs>
     <path id="C2_0_a59482c770" d="M 0 3.535534 
C 0.937635 3.535534 1.836992 3.163008 2.5 2.5 
C 3.163008 1.836992 3.535534 0.937635 3.535534 -0 
C 3.535534 -0.937635 3.163008 -1.836992 2.5 -2.5 
C 1.836992 -3.163008 0.937635 -3.535534 0 -3.535534 
C -0.937635 -3.535534 -1.836992 -3.163008 -2.5 -2.5 
C -3.163008 -1.836992 -3.535534 -0.937635 -3.535534 0 
C -3.535534 0.937635 -3.163008 1.836992 -2.5 2.5 
C -1.836992 3.163008 -0.937635 3.535534 0 3.535534 
z
"/>
    </defs>
    <g clip-path="url(#pedd0b650ca)">
     <use xlink:href="#C2_0_a59482c770" x="311.30401" y="240.556634" style="fill: #e1812c; fill-opacity: 0.8; stroke: #e1812c; stroke-opacity: 0.8"/>
    </g>
    <g clip-path="url(#pedd0b650ca)">
     <use xlink:href="#C2_0_a59482c770" x="328.537707" y="209.491005" style="fill: #e1812c; fill-opacity: 0.8; stroke: #e1812c; stroke-opacity: 0.8"/>
    </g>
    <g clip-path="url(#pedd0b650ca)">
     <use xlink:href="#C2_0_a59482c770" x="376.90538" y="219.972665" style="fill: #e1812c; fill-opacity: 0.8; stroke: #e1812c; stroke-opacity: 0.8"/>
    </g>
    <g clip-path="url(#pedd0b650ca)">
     <use xlink:href="#C2_0_a59482c770" x="368.371489" y="230.15239" style="fill: #e1812c; fill-opacity: 0.8; stroke: #e1812c; stroke-opacity: 0.8"/>
    </g>
    <g clip-path="url(#pedd0b650ca)">
     <use xlink:href="#C2_0_a59482c770" x="283.698343" y="265.027913" style="fill: #e1812c; fill-opacity: 0.8; stroke: #e1812c; stroke-opacity: 0.8"/>
    </g>
    <g clip-path="url(#pedd0b650ca)">
     <use xlink:href="#C2_0_a59482c770" x="335.11591" y="282.767082" style="fill: #e1812c; fill-opacity: 0.8; stroke: #e1812c; stroke-opacity: 0.8"/>
    </g>
    <g clip-path="url(#pedd0b650ca)">
     <use xlink:href="#C2_0_a59482c770" x="383.902974" y="242.605093" style="fill: #e1812c; fill-opacity: 0.8; stroke: #e1812c; stroke-opacity: 0.8"/>
    </g>
    <g clip-path="url(#pedd0b650ca)">
     <use xlink:href="#C2_0_a59482c770" x="371.101103" y="226.915353" style="fill: #e1812c; fill-opacity: 0.8; stroke: #e1812c; stroke-opacity: 0.8"/>
    </g>
    <g clip-path="url(#pedd0b650ca)">
     <use xlink:href="#C2_0_a59482c770" x="399.338606" y="222.906019" style="fill: #e1812c; fill-opacity: 0.8; stroke: #e1812c; stroke-opacity: 0.8"/>
    </g>
    <g clip-path="url(#pedd0b650ca)">
     <use xlink:href="#C2_0_a59482c770" x="273.523885" y="232.789384" style="fill: #e1812c; fill-opacity: 0.8; stroke: #e1812c; stroke-opacity: 0.8"/>
    </g>
    <g clip-path="url(#pedd0b650ca)">
     <use xlink:href="#C2_0_a59482c770" x="290.363297" y="274.440006" style="fill: #e1812c; fill-opacity: 0.8; stroke: #e1812c; stroke-opacity: 0.8"/>
    </g>
    <g clip-path="url(#pedd0b650ca)">
     <use xlink:href="#C2_0_a59482c770" x="262.758282" y="276.989749" style="fill: #e1812c; fill-opacity: 0.8; stroke: #e1812c; stroke-opacity: 0.8"/>
    </g>
    <g clip-path="url(#pedd0b650ca)">
     <use xlink:href="#C2_0_a59482c770" x="406.183857" y="210.495658" style="fill: #e1812c; fill-opacity: 0.8; stroke: #e1812c; stroke-opacity: 0.8"/>
    </g>
    <g clip-path="url(#pedd0b650ca)">
     <use xlink:href="#C2_0_a59482c770" x="398.055523" y="243.896467" style="fill: #e1812c; fill-opacity: 0.8; stroke: #e1812c; stroke-opacity: 0.8"/>
    </g>
    <g clip-path="url(#pedd0b650ca)">
     <use xlink:href="#C2_0_a59482c770" x="398.907228" y="185.281546" style="fill: #e1812c; fill-opacity: 0.8; stroke: #e1812c; stroke-opacity: 0.8"/>
    </g>
    <g clip-path="url(#pedd0b650ca)">
     <use xlink:href="#C2_0_a59482c770" x="315.964744" y="282.258078" style="fill: #e1812c; fill-opacity: 0.8; stroke: #e1812c; stroke-opacity: 0.8"/>
    </g>
    <g clip-path="url(#pedd0b650ca)">
     <use xlink:href="#C2_0_a59482c770" x="406.21778" y="194.151773" style="fill: #e1812c; fill-opacity: 0.8; stroke: #e1812c; stroke-opacity: 0.8"/>
    </g>
    <g clip-path="url(#pedd0b650ca)">
     <use xlink:href="#C2_0_a59482c770" x="381.732926" y="251.403951" style="fill: #e1812c; fill-opacity: 0.8; stroke: #e1812c; stroke-opacity: 0.8"/>
    </g>
    <g clip-path="url(#pedd0b650ca)">
     <use xlink:href="#C2_0_a59482c770" x="368.590598" y="262.930239" style="fill: #e1812c; fill-opacity: 0.8; stroke: #e1812c; stroke-opacity: 0.8"/>
    </g>
    <g clip-path="url(#pedd0b650ca)">
     <use xlink:href="#C2_0_a59482c770" x="271.332136" y="307.7121" style="fill: #e1812c; fill-opacity: 0.8; stroke: #e1812c; stroke-opacity: 0.8"/>
    </g>
    <g clip-path="url(#pedd0b650ca)">
     <use xlink:href="#C2_0_a59482c770" x="254.000786" y="305.610252" style="fill: #e1812c; fill-opacity: 0.8; stroke: #e1812c; stroke-opacity: 0.8"/>
    </g>
   </g>
   <g id="legend_1">
    <g id="patch_6">
     <path d="M 419.903125 77.5125 
L 486.2 77.5125 
Q 488.2 77.5125 488.2 75.5125 
L 488.2 17.8 
Q 488.2 15.8 486.2 15.8 
L 419.903125 15.8 
Q 417.903125 15.8 417.903125 17.8 
L 417.903125 75.5125 
Q 417.903125 77.5125 419.903125 77.5125 
z
" style="fill: #ffffff; opacity: 0.8; stroke: #cccccc; stroke-linejoin: miter"/>
    </g>
    <g id="text_19">
     <!-- Type -->
     <g transform="translate(441.56875 27.398438) scale(0.1 -0.1)">
      <defs>
       <path id="DejaVuSans-54" d="M -19 4666 
L 3928 4666 
L 3928 4134 
L 2272 4134 
L 2272 0 
L 1638 0 
L 1638 4134 
L -19 4134 
L -19 4666 
z
" transform="scale(0.015625)"/>
       <path id="DejaVuSans-79" d="M 2059 -325 
Q 1816 -950 1584 -1140 
Q 1353 -1331 966 -1331 
L 506 -1331 
L 506 -850 
L 844 -850 
Q 1081 -850 1212 -737 
Q 1344 -625 1503 -206 
L 1606 56 
L 191 3500 
L 800 3500 
L 1894 763 
L 2988 3500 
L 3597 3500 
L 2059 -325 
z
" transform="scale(0.015625)"/>
       <path id="DejaVuSans-70" d="M 1159 525 
L 1159 -1331 
L 581 -1331 
L 581 3500 
L 1159 3500 
L 1159 2969 
Q 1341 3281 1617 3432 
Q 1894 3584 2278 3584 
Q 2916 3584 3314 3078 
Q 3713 2572 3713 1747 
Q 3713 922 3314 415 
Q 2916 -91 2278 -91 
Q 1894 -91 1617 61 
Q 1341 213 1159 525 
z
M 3116 1747 
Q 3116 2381 2855 2742 
Q 2594 3103 2138 3103 
Q 1681 3103 1420 2742 
Q 1159 2381 1159 1747 
Q 1159 1113 1420 752 
Q 1681 391 2138 391 
Q 2594 391 2855 752 
Q 3116 1113 3116 1747 
z
" transform="scale(0.015625)"/>
       <path id="DejaVuSans-65" d="M 3597 1894 
L 3597 1613 
L 953 1613 
Q 991 1019 1311 708 
Q 1631 397 2203 397 
Q 2534 397 2845 478 
Q 3156 559 3463 722 
L 3463 178 
Q 3153 47 2828 -22 
Q 2503 -91 2169 -91 
Q 1331 -91 842 396 
Q 353 884 353 1716 
Q 353 2575 817 3079 
Q 1281 3584 2069 3584 
Q 2775 3584 3186 3129 
Q 3597 2675 3597 1894 
z
M 3022 2063 
Q 3016 2534 2758 2815 
Q 2500 3097 2075 3097 
Q 1594 3097 1305 2825 
Q 1016 2553 972 2059 
L 3022 2063 
z
" transform="scale(0.015625)"/>
      </defs>
      <use xlink:href="#DejaVuSans-54"/>
      <use xlink:href="#DejaVuSans-79" x="45.458984"/>
      <use xlink:href="#DejaVuSans-70" x="104.638672"/>
      <use xlink:href="#DejaVuSans-65" x="168.115234"/>
     </g>
    </g>
    <g id="Path3DCollection_4">
     <defs>
      <path id="mb5a4e074cb" d="M 0 3.535534 
C 0.937635 3.535534 1.836992 3.163008 2.5 2.5 
C 3.163008 1.836992 3.535534 0.937635 3.535534 0 
C 3.535534 -0.937635 3.163008 -1.836992 2.5 -2.5 
C 1.836992 -3.163008 0.937635 -3.535534 0 -3.535534 
C -0.937635 -3.535534 -1.836992 -3.163008 -2.5 -2.5 
C -3.163008 -1.836992 -3.535534 -0.937635 -3.535534 0 
C -3.535534 0.937635 -3.163008 1.836992 -2.5 2.5 
C -1.836992 3.163008 -0.937635 3.535534 0 3.535534 
z
" style="stroke: #3374a1; stroke-opacity: 0.8"/>
     </defs>
     <g>
      <use xlink:href="#mb5a4e074cb" x="431.903125" y="39.451563" style="fill: #3374a1; fill-opacity: 0.8; stroke: #3374a1; stroke-opacity: 0.8"/>
     </g>
    </g>
    <g id="text_20">
     <!-- H -->
     <g transform="translate(449.903125 42.076563) scale(0.1 -0.1)">
      <defs>
       <path id="DejaVuSans-48" d="M 628 4666 
L 1259 4666 
L 1259 2753 
L 3553 2753 
L 3553 4666 
L 4184 4666 
L 4184 0 
L 3553 0 
L 3553 2222 
L 1259 2222 
L 1259 0 
L 628 0 
L 628 4666 
z
" transform="scale(0.015625)"/>
      </defs>
      <use xlink:href="#DejaVuSans-48"/>
     </g>
    </g>
    <g id="Path3DCollection_5">
     <defs>
      <path id="mf10267b4dc" d="M 0 3.535534 
C 0.937635 3.535534 1.836992 3.163008 2.5 2.5 
C 3.163008 1.836992 3.535534 0.937635 3.535534 0 
C 3.535534 -0.937635 3.163008 -1.836992 2.5 -2.5 
C 1.836992 -3.163008 0.937635 -3.535534 0 -3.535534 
C -0.937635 -3.535534 -1.836992 -3.163008 -2.5 -2.5 
C -3.163008 -1.836992 -3.535534 -0.937635 -3.535534 0 
C -3.535534 0.937635 -3.163008 1.836992 -2.5 2.5 
C -1.836992 3.163008 -0.937635 3.535534 0 3.535534 
z
" style="stroke: #3a923a; stroke-opacity: 0.8"/>
     </defs>
     <g>
      <use xlink:href="#mf10267b4dc" x="431.903125" y="54.129688" style="fill: #3a923a; fill-opacity: 0.8; stroke: #3a923a; stroke-opacity: 0.8"/>
     </g>
    </g>
    <g id="text_21">
     <!-- T3cDM -->
     <g transform="translate(449.903125 56.754688) scale(0.1 -0.1)">
      <defs>
       <path id="DejaVuSans-63" d="M 3122 3366 
L 3122 2828 
Q 2878 2963 2633 3030 
Q 2388 3097 2138 3097 
Q 1578 3097 1268 2742 
Q 959 2388 959 1747 
Q 959 1106 1268 751 
Q 1578 397 2138 397 
Q 2388 397 2633 464 
Q 2878 531 3122 666 
L 3122 134 
Q 2881 22 2623 -34 
Q 2366 -91 2075 -91 
Q 1284 -91 818 406 
Q 353 903 353 1747 
Q 353 2603 823 3093 
Q 1294 3584 2113 3584 
Q 2378 3584 2631 3529 
Q 2884 3475 3122 3366 
z
" transform="scale(0.015625)"/>
       <path id="DejaVuSans-44" d="M 1259 4147 
L 1259 519 
L 2022 519 
Q 2988 519 3436 956 
Q 3884 1394 3884 2338 
Q 3884 3275 3436 3711 
Q 2988 4147 2022 4147 
L 1259 4147 
z
M 628 4666 
L 1925 4666 
Q 3281 4666 3915 4102 
Q 4550 3538 4550 2338 
Q 4550 1131 3912 565 
Q 3275 0 1925 0 
L 628 0 
L 628 4666 
z
" transform="scale(0.015625)"/>
       <path id="DejaVuSans-4d" d="M 628 4666 
L 1569 4666 
L 2759 1491 
L 3956 4666 
L 4897 4666 
L 4897 0 
L 4281 0 
L 4281 4097 
L 3078 897 
L 2444 897 
L 1241 4097 
L 1241 0 
L 628 0 
L 628 4666 
z
" transform="scale(0.015625)"/>
      </defs>
      <use xlink:href="#DejaVuSans-54"/>
      <use xlink:href="#DejaVuSans-33" x="61.083984"/>
      <use xlink:href="#DejaVuSans-63" x="124.707031"/>
      <use xlink:href="#DejaVuSans-44" x="179.6875"/>
      <use xlink:href="#DejaVuSans-4d" x="256.689453"/>
     </g>
    </g>
    <g id="Path3DCollection_6">
     <defs>
      <path id="mcb40dc1e09" d="M 0 3.535534 
C 0.937635 3.535534 1.836992 3.163008 2.5 2.5 
C 3.163008 1.836992 3.535534 0.937635 3.535534 0 
C 3.535534 -0.937635 3.163008 -1.836992 2.5 -2.5 
C 1.836992 -3.163008 0.937635 -3.535534 0 -3.535534 
C -0.937635 -3.535534 -1.836992 -3.163008 -2.5 -2.5 
C -3.163008 -1.836992 -3.535534 -0.937635 -3.535534 0 
C -3.535534 0.937635 -3.163008 1.836992 -2.5 2.5 
C -1.836992 3.163008 -0.937635 3.535534 0 3.535534 
z
" style="stroke: #e1812c; stroke-opacity: 0.8"/>
     </defs>
     <g>
      <use xlink:href="#mcb40dc1e09" x="431.903125" y="68.807813" style="fill: #e1812c; fill-opacity: 0.8; stroke: #e1812c; stroke-opacity: 0.8"/>
     </g>
    </g>
    <g id="text_22">
     <!-- T1DM -->
     <g transform="translate(449.903125 71.432813) scale(0.1 -0.1)">
      <use xlink:href="#DejaVuSans-54"/>
      <use xlink:href="#DejaVuSans-31" x="61.083984"/>
      <use xlink:href="#DejaVuSans-44" x="124.707031"/>
      <use xlink:href="#DejaVuSans-4d" x="201.708984"/>
     </g>
    </g>
   </g>
  </g>
 </g>
 <defs>
  <clipPath id="pedd0b650ca">
   <rect x="82.8" y="10.8" width="410.4" height="410.4"/>
  </clipPath>
 </defs>
</svg>
