<?xml version="1.0" encoding="UTF-8" standalone="no"?>
<svg
   class="svglite"
   width="360.00pt"
   height="216.00pt"
   viewBox="0 0 360.00 216.00"
   version="1.1"
   id="svg56"
   sodipodi:docname="linear_regression_Escherichia-Shigella_Pancreatectomy.svg"
   inkscape:export-filename="linear_regression_Escherichia-Shigella_Pancreatectomy.png"
   inkscape:export-xdpi="300"
   inkscape:export-ydpi="300"
   inkscape:version="1.3.2 (1:1.3.2+202311252150+091e20ef0f)"
   xmlns:inkscape="http://www.inkscape.org/namespaces/inkscape"
   xmlns:sodipodi="http://sodipodi.sourceforge.net/DTD/sodipodi-0.dtd"
   xmlns="http://www.w3.org/2000/svg"
   xmlns:svg="http://www.w3.org/2000/svg">
  <sodipodi:namedview
     id="namedview56"
     pagecolor="#ffffff"
     bordercolor="#000000"
     borderopacity="0.25"
     inkscape:showpageshadow="2"
     inkscape:pageopacity="0.0"
     inkscape:pagecheckerboard="0"
     inkscape:deskcolor="#d1d1d1"
     inkscape:document-units="pt"
     inkscape:export-bgcolor="#ffffffff"
     inkscape:zoom="2.6333333"
     inkscape:cx="240"
     inkscape:cy="144.11393"
     inkscape:window-width="1920"
     inkscape:window-height="1043"
     inkscape:window-x="0"
     inkscape:window-y="0"
     inkscape:window-maximized="1"
     inkscape:current-layer="g56" />
  <defs
     id="defs1">
    <style
       type="text/css"
       id="style1"><![CDATA[
    .svglite line, .svglite polyline, .svglite polygon, .svglite path, .svglite rect, .svglite circle {
      fill: none;
      stroke: #000000;
      stroke-linecap: round;
      stroke-linejoin: round;
      stroke-miterlimit: 10.00;
    }
    .svglite text {
      white-space: pre;
    }
  ]]></style>
  </defs>
  <rect
     width="100%"
     height="100%"
     style="stroke: none; fill: none;"
     id="rect1" />
  <defs
     id="defs2">
    <clipPath
       id="cpMC4wMHwzNjAuMDB8MC4wMHwyMTYuMDA=">
      <rect
         x="0.00"
         y="0.00"
         width="360.00"
         height="216.00"
         id="rect2" />
    </clipPath>
  </defs>
  <g
     clip-path="url(#cpMC4wMHwzNjAuMDB8MC4wMHwyMTYuMDA=)"
     id="g2" />
  <defs
     id="defs3">
    <clipPath
       id="cpMzcuNDR8Mjc5LjY4fDIzLjMyfDE4NC4yOQ==">
      <rect
         x="37.44"
         y="23.32"
         width="242.23"
         height="160.97"
         id="rect3" />
    </clipPath>
  </defs>
  <g
     clip-path="url(#cpMzcuNDR8Mjc5LjY4fDIzLjMyfDE4NC4yOQ==)"
     id="g42">
    <polyline
       points="37.44,158.48 279.68,158.48 "
       style="stroke-width: 0.53; stroke: #EBEBEB; stroke-linecap: butt;"
       id="polyline3" />
    <polyline
       points="37.44,121.47 279.68,121.47 "
       style="stroke-width: 0.53; stroke: #EBEBEB; stroke-linecap: butt;"
       id="polyline4" />
    <polyline
       points="37.44,84.47 279.68,84.47 "
       style="stroke-width: 0.53; stroke: #EBEBEB; stroke-linecap: butt;"
       id="polyline5" />
    <polyline
       points="37.44,47.46 279.68,47.46 "
       style="stroke-width: 0.53; stroke: #EBEBEB; stroke-linecap: butt;"
       id="polyline6" />
    <polyline
       points="76.02,184.29 76.02,23.32 "
       style="stroke-width: 0.53; stroke: #EBEBEB; stroke-linecap: butt;"
       id="polyline7" />
    <polyline
       points="131.15,184.29 131.15,23.32 "
       style="stroke-width: 0.53; stroke: #EBEBEB; stroke-linecap: butt;"
       id="polyline8" />
    <polyline
       points="186.28,184.29 186.28,23.32 "
       style="stroke-width: 0.53; stroke: #EBEBEB; stroke-linecap: butt;"
       id="polyline9" />
    <polyline
       points="241.40,184.29 241.40,23.32 "
       style="stroke-width: 0.53; stroke: #EBEBEB; stroke-linecap: butt;"
       id="polyline10" />
    <polyline
       points="37.44,176.98 279.68,176.98 "
       style="stroke-width: 1.07; stroke: #EBEBEB; stroke-linecap: butt;"
       id="polyline11" />
    <polyline
       points="37.44,139.97 279.68,139.97 "
       style="stroke-width: 1.07; stroke: #EBEBEB; stroke-linecap: butt;"
       id="polyline12" />
    <polyline
       points="37.44,102.97 279.68,102.97 "
       style="stroke-width: 1.07; stroke: #EBEBEB; stroke-linecap: butt;"
       id="polyline13" />
    <polyline
       points="37.44,65.96 279.68,65.96 "
       style="stroke-width: 1.07; stroke: #EBEBEB; stroke-linecap: butt;"
       id="polyline14" />
    <polyline
       points="37.44,28.96 279.68,28.96 "
       style="stroke-width: 1.07; stroke: #EBEBEB; stroke-linecap: butt;"
       id="polyline15" />
    <polyline
       points="48.45,184.29 48.45,23.32 "
       style="stroke-width: 1.07; stroke: #EBEBEB; stroke-linecap: butt;"
       id="polyline16" />
    <polyline
       points="103.58,184.29 103.58,23.32 "
       style="stroke-width: 1.07; stroke: #EBEBEB; stroke-linecap: butt;"
       id="polyline17" />
    <polyline
       points="158.71,184.29 158.71,23.32 "
       style="stroke-width: 1.07; stroke: #EBEBEB; stroke-linecap: butt;"
       id="polyline18" />
    <polyline
       points="213.84,184.29 213.84,23.32 "
       style="stroke-width: 1.07; stroke: #EBEBEB; stroke-linecap: butt;"
       id="polyline19" />
    <polyline
       points="268.97,184.29 268.97,23.32 "
       style="stroke-width: 1.07; stroke: #EBEBEB; stroke-linecap: butt;"
       id="polyline20" />
    <circle
       cx="48.58"
       cy="176.98"
       r="2.49"
       style="stroke-width: 0.71; stroke: #3A923A; fill: #3A923A;"
       id="circle20" />
    <circle
       cx="48.50"
       cy="176.98"
       r="2.49"
       style="stroke-width: 0.71; stroke: #3A923A; fill: #3A923A;"
       id="circle21" />
    <circle
       cx="49.75"
       cy="176.98"
       r="2.49"
       style="stroke-width: 0.71; stroke: #3A923A; fill: #3A923A;"
       id="circle22" />
    <circle
       cx="48.45"
       cy="176.98"
       r="2.49"
       style="stroke-width: 0.71; stroke: #3A923A; fill: #3A923A;"
       id="circle23" />
    <circle
       cx="61.66"
       cy="176.98"
       r="2.49"
       style="stroke-width: 0.71; stroke: #3A923A; fill: #3A923A;"
       id="circle24" />
    <circle
       cx="61.56"
       cy="102.97"
       r="2.49"
       style="stroke-width: 0.71; stroke: #3A923A; fill: #3A923A;"
       id="circle25" />
    <circle
       cx="48.69"
       cy="102.97"
       r="2.49"
       style="stroke-width: 0.71; stroke: #3A923A; fill: #3A923A;"
       id="circle26" />
    <circle
       cx="48.89"
       cy="102.97"
       r="2.49"
       style="stroke-width: 0.71; stroke: #3A923A; fill: #3A923A;"
       id="circle27" />
    <circle
       cx="48.63"
       cy="176.98"
       r="2.49"
       style="stroke-width: 0.71; stroke: #3A923A; fill: #3A923A;"
       id="circle28" />
    <circle
       cx="177.76"
       cy="102.97"
       r="2.49"
       style="stroke-width: 0.71; stroke: #3A923A; fill: #3A923A;"
       id="circle29" />
    <circle
       cx="149.67"
       cy="102.97"
       r="2.49"
       style="stroke-width: 0.71; stroke: #3A923A; fill: #3A923A;"
       id="circle30" />
    <circle
       cx="48.45"
       cy="176.98"
       r="2.49"
       style="stroke-width: 0.71; stroke: #3A923A; fill: #3A923A;"
       id="circle31" />
    <circle
       cx="184.09"
       cy="102.97"
       r="2.49"
       style="stroke-width: 0.71; stroke: #3A923A; fill: #3A923A;"
       id="circle32" />
    <circle
       cx="268.66"
       cy="102.97"
       r="2.49"
       style="stroke-width: 0.71; stroke: #3A923A; fill: #3A923A;"
       id="circle33" />
    <circle
       cx="49.52"
       cy="176.98"
       r="2.49"
       style="stroke-width: 0.71; stroke: #3A923A; fill: #3A923A;"
       id="circle34" />
    <circle
       cx="48.45"
       cy="176.98"
       r="2.49"
       style="stroke-width: 0.71; stroke: #3A923A; fill: #3A923A;"
       id="circle35" />
    <circle
       cx="85.86"
       cy="102.97"
       r="2.49"
       style="stroke-width: 0.71; stroke: #3A923A; fill: #3A923A;"
       id="circle36" />
    <polygon
       points="48.45,136.60 51.24,135.99 54.03,135.35 56.82,134.69 59.60,134.01 62.39,133.31 65.18,132.58 67.97,131.82 70.75,131.04 73.54,130.23 76.33,129.39 79.12,128.53 81.90,127.63 84.69,126.70 87.48,125.74 90.27,124.76 93.05,123.74 95.84,122.69 98.63,121.61 101.42,120.51 104.20,119.37 106.99,118.21 109.78,117.02 112.57,115.81 115.35,114.57 118.14,113.31 120.93,112.03 123.72,110.73 126.50,109.40 129.29,108.06 132.08,106.70 134.87,105.32 137.65,103.93 140.44,102.52 143.23,101.10 146.02,99.67 148.80,98.22 151.59,96.76 154.38,95.29 157.17,93.82 159.95,92.33 162.74,90.83 165.53,89.33 168.32,87.81 171.10,86.30 173.89,84.77 176.68,83.24 179.47,81.70 182.25,80.15 185.04,78.60 187.83,77.05 190.62,75.49 193.40,73.92 196.19,72.36 198.98,70.78 201.77,69.21 204.55,67.63 207.34,66.05 210.13,64.46 212.92,62.87 215.70,61.28 218.49,59.68 221.28,58.09 224.07,56.49 226.85,54.88 229.64,53.28 232.43,51.67 235.22,50.07 238.00,48.46 240.79,46.84 243.58,45.23 246.36,43.61 249.15,42.00 251.94,40.38 254.73,38.76 257.51,37.14 260.30,35.51 263.09,33.89 265.88,32.26 268.66,30.64 268.66,127.68 265.88,127.99 263.09,128.29 260.30,128.60 257.51,128.91 254.73,129.22 251.94,129.53 249.15,129.84 246.36,130.16 243.58,130.48 240.79,130.79 238.00,131.11 235.22,131.44 232.43,131.76 229.64,132.08 226.85,132.41 224.07,132.74 221.28,133.07 218.49,133.41 215.70,133.75 212.92,134.09 210.13,134.43 207.34,134.78 204.55,135.12 201.77,135.48 198.98,135.83 196.19,136.19 193.40,136.56 190.62,136.92 187.83,137.30 185.04,137.67 182.25,138.06 179.47,138.44 176.68,138.84 173.89,139.24 171.10,139.64 168.32,140.05 165.53,140.47 162.74,140.90 159.95,141.34 157.17,141.78 154.38,142.23 151.59,142.70 148.80,143.17 146.02,143.66 143.23,144.15 140.44,144.67 137.65,145.19 134.87,145.73 132.08,146.28 129.29,146.86 126.50,147.45 123.72,148.05 120.93,148.68 118.14,149.33 115.35,150.00 112.57,150.70 109.78,151.41 106.99,152.16 104.20,152.93 101.42,153.73 98.63,154.55 95.84,155.41 93.05,156.29 90.27,157.20 87.48,158.15 84.69,159.12 81.90,160.13 79.12,161.16 76.33,162.23 73.54,163.32 70.75,164.45 67.97,165.60 65.18,166.77 62.39,167.98 59.60,169.20 56.82,170.45 54.03,171.73 51.24,173.02 48.45,174.34 "
       style="stroke-width: 0.00; stroke: none; stroke-linecap: butt; fill: #999999; fill-opacity: 0.40;"
       id="polygon36" />
    <polyline
       points="48.45,136.60 51.24,135.99 54.03,135.35 56.82,134.69 59.60,134.01 62.39,133.31 65.18,132.58 67.97,131.82 70.75,131.04 73.54,130.23 76.33,129.39 79.12,128.53 81.90,127.63 84.69,126.70 87.48,125.74 90.27,124.76 93.05,123.74 95.84,122.69 98.63,121.61 101.42,120.51 104.20,119.37 106.99,118.21 109.78,117.02 112.57,115.81 115.35,114.57 118.14,113.31 120.93,112.03 123.72,110.73 126.50,109.40 129.29,108.06 132.08,106.70 134.87,105.32 137.65,103.93 140.44,102.52 143.23,101.10 146.02,99.67 148.80,98.22 151.59,96.76 154.38,95.29 157.17,93.82 159.95,92.33 162.74,90.83 165.53,89.33 168.32,87.81 171.10,86.30 173.89,84.77 176.68,83.24 179.47,81.70 182.25,80.15 185.04,78.60 187.83,77.05 190.62,75.49 193.40,73.92 196.19,72.36 198.98,70.78 201.77,69.21 204.55,67.63 207.34,66.05 210.13,64.46 212.92,62.87 215.70,61.28 218.49,59.68 221.28,58.09 224.07,56.49 226.85,54.88 229.64,53.28 232.43,51.67 235.22,50.07 238.00,48.46 240.79,46.84 243.58,45.23 246.36,43.61 249.15,42.00 251.94,40.38 254.73,38.76 257.51,37.14 260.30,35.51 263.09,33.89 265.88,32.26 268.66,30.64 "
       style="stroke-width: 2.13; stroke: none; stroke-linecap: butt;"
       id="polyline36" />
    <polyline
       points="268.66,127.68 265.88,127.99 263.09,128.29 260.30,128.60 257.51,128.91 254.73,129.22 251.94,129.53 249.15,129.84 246.36,130.16 243.58,130.48 240.79,130.79 238.00,131.11 235.22,131.44 232.43,131.76 229.64,132.08 226.85,132.41 224.07,132.74 221.28,133.07 218.49,133.41 215.70,133.75 212.92,134.09 210.13,134.43 207.34,134.78 204.55,135.12 201.77,135.48 198.98,135.83 196.19,136.19 193.40,136.56 190.62,136.92 187.83,137.30 185.04,137.67 182.25,138.06 179.47,138.44 176.68,138.84 173.89,139.24 171.10,139.64 168.32,140.05 165.53,140.47 162.74,140.90 159.95,141.34 157.17,141.78 154.38,142.23 151.59,142.70 148.80,143.17 146.02,143.66 143.23,144.15 140.44,144.67 137.65,145.19 134.87,145.73 132.08,146.28 129.29,146.86 126.50,147.45 123.72,148.05 120.93,148.68 118.14,149.33 115.35,150.00 112.57,150.70 109.78,151.41 106.99,152.16 104.20,152.93 101.42,153.73 98.63,154.55 95.84,155.41 93.05,156.29 90.27,157.20 87.48,158.15 84.69,159.12 81.90,160.13 79.12,161.16 76.33,162.23 73.54,163.32 70.75,164.45 67.97,165.60 65.18,166.77 62.39,167.98 59.60,169.20 56.82,170.45 54.03,171.73 51.24,173.02 48.45,174.34 "
       style="stroke-width: 2.13; stroke: none; stroke-linecap: butt;"
       id="polyline37" />
    <polyline
       points="48.45,155.47 51.24,154.50 54.03,153.54 56.82,152.57 59.60,151.61 62.39,150.64 65.18,149.67 67.97,148.71 70.75,147.74 73.54,146.78 76.33,145.81 79.12,144.85 81.90,143.88 84.69,142.91 87.48,141.95 90.27,140.98 93.05,140.02 95.84,139.05 98.63,138.08 101.42,137.12 104.20,136.15 106.99,135.19 109.78,134.22 112.57,133.25 115.35,132.29 118.14,131.32 120.93,130.36 123.72,129.39 126.50,128.42 129.29,127.46 132.08,126.49 134.87,125.53 137.65,124.56 140.44,123.59 143.23,122.63 146.02,121.66 148.80,120.70 151.59,119.73 154.38,118.76 157.17,117.80 159.95,116.83 162.74,115.87 165.53,114.90 168.32,113.93 171.10,112.97 173.89,112.00 176.68,111.04 179.47,110.07 182.25,109.10 185.04,108.14 187.83,107.17 190.62,106.21 193.40,105.24 196.19,104.27 198.98,103.31 201.77,102.34 204.55,101.38 207.34,100.41 210.13,99.44 212.92,98.48 215.70,97.51 218.49,96.55 221.28,95.58 224.07,94.61 226.85,93.65 229.64,92.68 232.43,91.72 235.22,90.75 238.00,89.78 240.79,88.82 243.58,87.85 246.36,86.89 249.15,85.92 251.94,84.95 254.73,83.99 257.51,83.02 260.30,82.06 263.09,81.09 265.88,80.13 268.66,79.16 "
       style="stroke-width: 2.13; stroke: #3A923A; stroke-linecap: butt;"
       id="polyline38" />
    <text
       x="49.56"
       y="39.56"
       style="font-size: 11.04px; font-style: italic;fill: #3A923A; font-family: &quot;Nimbus Sans&quot;;"
       textLength="6.65px"
       lengthAdjust="spacingAndGlyphs"
       id="text38">P</text>
    <text
       x="56.21"
       y="39.56"
       style="font-size: 11.04px; font-weight: 0;fill: #3A923A; font-family: &quot;Standard Symbols PS&quot;;"
       textLength="2.76px"
       lengthAdjust="spacingAndGlyphs"
       id="text39" />
    <text
       x="58.97"
       y="39.56"
       style="font-size: 11.04px;fill: #3A923A; font-family: &quot;Nimbus Sans&quot;;"
       textLength="9.24px"
       lengthAdjust="spacingAndGlyphs"
       id="text40">=</text>
    <text
       x="68.21"
       y="39.56"
       style="font-size: 11.04px; font-weight: 0;fill: #3A923A; font-family: &quot;Standard Symbols PS&quot;;"
       textLength="2.76px"
       lengthAdjust="spacingAndGlyphs"
       id="text41" />
    <text
       x="70.97"
       y="39.56"
       style="font-size: 11.04px;fill: #3A923A; font-family: &quot;Nimbus Sans&quot;;"
       textLength="31.59px"
       lengthAdjust="spacingAndGlyphs"
       id="text42">0.010</text>
  </g>
  <g
     clip-path="url(#cpMC4wMHwzNjAuMDB8MC4wMHwyMTYuMDA=)"
     id="g56">
    <text
       x="32.51"
       y="180.19"
       text-anchor="end"
       style="font-size: 8.80px;fill: #4D4D4D; font-family: &quot;Nimbus Sans&quot;;"
       textLength="13.98px"
       lengthAdjust="spacingAndGlyphs"
       id="text43">0.0</text>
    <text
       x="32.51"
       y="143.18"
       text-anchor="end"
       style="font-size: 8.80px;fill: #4D4D4D; font-family: &quot;Nimbus Sans&quot;;"
       textLength="13.98px"
       lengthAdjust="spacingAndGlyphs"
       id="text44">0.5</text>
    <text
       x="32.51"
       y="106.18"
       text-anchor="end"
       style="font-size: 8.80px;fill: #4D4D4D; font-family: &quot;Nimbus Sans&quot;;"
       textLength="13.98px"
       lengthAdjust="spacingAndGlyphs"
       id="text45">1.0</text>
    <text
       x="32.51"
       y="69.17"
       text-anchor="end"
       style="font-size: 8.80px;fill: #4D4D4D; font-family: &quot;Nimbus Sans&quot;;"
       textLength="13.98px"
       lengthAdjust="spacingAndGlyphs"
       id="text46">1.5</text>
    <text
       x="32.51"
       y="32.17"
       text-anchor="end"
       style="font-size: 8.80px;fill: #4D4D4D; font-family: &quot;Nimbus Sans&quot;;"
       textLength="13.98px"
       lengthAdjust="spacingAndGlyphs"
       id="text47">2.0</text>
    <text
       x="48.45"
       y="195.64"
       text-anchor="middle"
       style="font-size: 8.80px;fill: #4D4D4D; font-family: &quot;Nimbus Sans&quot;;"
       textLength="13.98px"
       lengthAdjust="spacingAndGlyphs"
       id="text48">0.0</text>
    <text
       x="103.58"
       y="195.64"
       text-anchor="middle"
       style="font-size: 8.80px;fill: #4D4D4D; font-family: &quot;Nimbus Sans&quot;;"
       textLength="13.98px"
       lengthAdjust="spacingAndGlyphs"
       id="text49">0.2</text>
    <text
       x="158.71"
       y="195.64"
       text-anchor="middle"
       style="font-size: 8.80px;fill: #4D4D4D; font-family: &quot;Nimbus Sans&quot;;"
       textLength="13.98px"
       lengthAdjust="spacingAndGlyphs"
       id="text50">0.4</text>
    <text
       x="213.84"
       y="195.64"
       text-anchor="middle"
       style="font-size: 8.80px;fill: #4D4D4D; font-family: &quot;Nimbus Sans&quot;;"
       textLength="13.98px"
       lengthAdjust="spacingAndGlyphs"
       id="text51">0.6</text>
    <text
       x="268.97"
       y="195.64"
       text-anchor="middle"
       style="font-size: 8.80px;fill: #4D4D4D; font-family: &quot;Nimbus Sans&quot;;"
       textLength="13.98px"
       lengthAdjust="spacingAndGlyphs"
       id="text52">0.8</text>
    <text
       x="158.56"
       y="208.23"
       text-anchor="middle"
       style="font-size:11px;font-family:'Nimbus Sans'"
       textLength="110.46"
       lengthAdjust="spacingAndGlyphs"
       id="text53"
       transform="matrix(1.2946362,0,0,0.73215771,-54.750699,60.068994)">Escherichia-Shigella relative abundace</text>
    <text
       transform="translate(13.50,103.81) rotate(-90)"
       text-anchor="middle"
       style="font-size: 11.00px; font-family: &quot;Nimbus Sans&quot;;"
       textLength="89.07px"
       lengthAdjust="spacingAndGlyphs"
       id="text54">Pancreatectomy</text>
    <circle
       cx="304.75"
       cy="111.70"
       r="2.49"
       style="stroke-width: 0.71; stroke: #3A923A; fill: #3A923A;"
       id="circle55" />
    <line
       x1="297.84"
       y1="111.70"
       x2="311.67"
       y2="111.70"
       style="stroke-width: 2.13; stroke: #3A923A; stroke-linecap: butt;"
       id="line55" />
    <text
       x="318.87"
       y="114.91"
       style="font-size: 8.80px; font-family: &quot;Nimbus Sans&quot;;"
       textLength="30.17px"
       lengthAdjust="spacingAndGlyphs"
       id="text56">T3cDM</text>
  </g>
</svg>
