<?xml version="1.0" encoding="utf-8" standalone="no"?>
<!DOCTYPE svg PUBLIC "-//W3C//DTD SVG 1.1//EN"
  "http://www.w3.org/Graphics/SVG/1.1/DTD/svg11.dtd">
<svg xmlns:xlink="http://www.w3.org/1999/xlink" width="360pt" height="360pt" viewBox="0 0 360 360" xmlns="http://www.w3.org/2000/svg" version="1.1">
 <metadata>
  <rdf:RDF xmlns:dc="http://purl.org/dc/elements/1.1/" xmlns:cc="http://creativecommons.org/ns#" xmlns:rdf="http://www.w3.org/1999/02/22-rdf-syntax-ns#">
   <cc:Work>
    <dc:type rdf:resource="http://purl.org/dc/dcmitype/StillImage"/>
    <dc:date>2025-07-16T16:15:26.712337</dc:date>
    <dc:format>image/svg+xml</dc:format>
    <dc:creator>
     <cc:Agent>
      <dc:title>Matplotlib v3.8.4, https://matplotlib.org/</dc:title>
     </cc:Agent>
    </dc:creator>
   </cc:Work>
  </rdf:RDF>
 </metadata>
 <defs>
  <style type="text/css">*{stroke-linejoin: round; stroke-linecap: butt}</style>
 </defs>
 <g id="figure_1">
  <g id="patch_1">
   <path d="M 0 360 
L 360 360 
L 360 0 
L 0 0 
z
" style="fill: #ffffff"/>
  </g>
  <g id="axes_1">
   <g id="patch_2">
    <path d="M 25.6 334.4 
L 349.2 334.4 
L 349.2 10.8 
L 25.6 10.8 
z
" style="fill: #ffffff"/>
   </g>
   <g id="PathCollection_1">
    <defs>
     <path id="C0_0_6a422cc313" d="M 0 5 
C 1.326016 5 2.597899 4.473168 3.535534 3.535534 
C 4.473168 2.597899 5 1.326016 5 -0 
C 5 -1.326016 4.473168 -2.597899 3.535534 -3.535534 
C 2.597899 -4.473168 1.326016 -5 0 -5 
C -1.326016 -5 -2.597899 -4.473168 -3.535534 -3.535534 
C -4.473168 -2.597899 -5 -1.326016 -5 0 
C -5 1.326016 -4.473168 2.597899 -3.535534 3.535534 
C -2.597899 4.473168 -1.326016 5 0 5 
z
"/>
    </defs>
    <g clip-path="url(#p1cec4ba44c)">
     <use xlink:href="#C0_0_6a422cc313" x="125.001223" y="163.885508" style="fill: #1f77b4; fill-opacity: 0.7; stroke: #ffffff; stroke-opacity: 0.7; stroke-width: 0.8"/>
    </g>
    <g clip-path="url(#p1cec4ba44c)">
     <use xlink:href="#C0_0_6a422cc313" x="117.560084" y="144.744565" style="fill: #2ca02c; fill-opacity: 0.7; stroke: #ffffff; stroke-opacity: 0.7; stroke-width: 0.8"/>
    </g>
    <g clip-path="url(#p1cec4ba44c)">
     <use xlink:href="#C0_0_6a422cc313" x="149.218851" y="201.575353" style="fill: #2ca02c; fill-opacity: 0.7; stroke: #ffffff; stroke-opacity: 0.7; stroke-width: 0.8"/>
    </g>
    <g clip-path="url(#p1cec4ba44c)">
     <use xlink:href="#C0_0_6a422cc313" x="171.333337" y="222.235911" style="fill: #ff7f0e; fill-opacity: 0.7; stroke: #ffffff; stroke-opacity: 0.7; stroke-width: 0.8"/>
    </g>
    <g clip-path="url(#p1cec4ba44c)">
     <use xlink:href="#C0_0_6a422cc313" x="200.338332" y="173.040172" style="fill: #ff7f0e; fill-opacity: 0.7; stroke: #ffffff; stroke-opacity: 0.7; stroke-width: 0.8"/>
    </g>
    <g clip-path="url(#p1cec4ba44c)">
     <use xlink:href="#C0_0_6a422cc313" x="156.473242" y="198.468456" style="fill: #1f77b4; fill-opacity: 0.7; stroke: #ffffff; stroke-opacity: 0.7; stroke-width: 0.8"/>
    </g>
    <g clip-path="url(#p1cec4ba44c)">
     <use xlink:href="#C0_0_6a422cc313" x="141.134023" y="186.965706" style="fill: #2ca02c; fill-opacity: 0.7; stroke: #ffffff; stroke-opacity: 0.7; stroke-width: 0.8"/>
    </g>
    <g clip-path="url(#p1cec4ba44c)">
     <use xlink:href="#C0_0_6a422cc313" x="151.241535" y="191.660485" style="fill: #2ca02c; fill-opacity: 0.7; stroke: #ffffff; stroke-opacity: 0.7; stroke-width: 0.8"/>
    </g>
    <g clip-path="url(#p1cec4ba44c)">
     <use xlink:href="#C0_0_6a422cc313" x="137.833528" y="178.093632" style="fill: #ff7f0e; fill-opacity: 0.7; stroke: #ffffff; stroke-opacity: 0.7; stroke-width: 0.8"/>
    </g>
    <g clip-path="url(#p1cec4ba44c)">
     <use xlink:href="#C0_0_6a422cc313" x="134.124568" y="186.587792" style="fill: #ff7f0e; fill-opacity: 0.7; stroke: #ffffff; stroke-opacity: 0.7; stroke-width: 0.8"/>
    </g>
    <g clip-path="url(#p1cec4ba44c)">
     <use xlink:href="#C0_0_6a422cc313" x="127.254987" y="168.659752" style="fill: #1f77b4; fill-opacity: 0.7; stroke: #ffffff; stroke-opacity: 0.7; stroke-width: 0.8"/>
    </g>
    <g clip-path="url(#p1cec4ba44c)">
     <use xlink:href="#C0_0_6a422cc313" x="175.776272" y="224.78385" style="fill: #2ca02c; fill-opacity: 0.7; stroke: #ffffff; stroke-opacity: 0.7; stroke-width: 0.8"/>
    </g>
    <g clip-path="url(#p1cec4ba44c)">
     <use xlink:href="#C0_0_6a422cc313" x="145.745774" y="191.198732" style="fill: #ff7f0e; fill-opacity: 0.7; stroke: #ffffff; stroke-opacity: 0.7; stroke-width: 0.8"/>
    </g>
    <g clip-path="url(#p1cec4ba44c)">
     <use xlink:href="#C0_0_6a422cc313" x="162.43386" y="244.209465" style="fill: #ff7f0e; fill-opacity: 0.7; stroke: #ffffff; stroke-opacity: 0.7; stroke-width: 0.8"/>
    </g>
    <g clip-path="url(#p1cec4ba44c)">
     <use xlink:href="#C0_0_6a422cc313" x="163.631269" y="221.896484" style="fill: #1f77b4; fill-opacity: 0.7; stroke: #ffffff; stroke-opacity: 0.7; stroke-width: 0.8"/>
    </g>
    <g clip-path="url(#p1cec4ba44c)">
     <use xlink:href="#C0_0_6a422cc313" x="151.144358" y="200.598322" style="fill: #2ca02c; fill-opacity: 0.7; stroke: #ffffff; stroke-opacity: 0.7; stroke-width: 0.8"/>
    </g>
    <g clip-path="url(#p1cec4ba44c)">
     <use xlink:href="#C0_0_6a422cc313" x="150.679587" y="251.402227" style="fill: #2ca02c; fill-opacity: 0.7; stroke: #ffffff; stroke-opacity: 0.7; stroke-width: 0.8"/>
    </g>
    <g clip-path="url(#p1cec4ba44c)">
     <use xlink:href="#C0_0_6a422cc313" x="62.498967" y="63.748987" style="fill: #ff7f0e; fill-opacity: 0.7; stroke: #ffffff; stroke-opacity: 0.7; stroke-width: 0.8"/>
    </g>
    <g clip-path="url(#p1cec4ba44c)">
     <use xlink:href="#C0_0_6a422cc313" x="116.843201" y="139.960001" style="fill: #ff7f0e; fill-opacity: 0.7; stroke: #ffffff; stroke-opacity: 0.7; stroke-width: 0.8"/>
    </g>
    <g clip-path="url(#p1cec4ba44c)">
     <use xlink:href="#C0_0_6a422cc313" x="168.369158" y="219.935296" style="fill: #1f77b4; fill-opacity: 0.7; stroke: #ffffff; stroke-opacity: 0.7; stroke-width: 0.8"/>
    </g>
    <g clip-path="url(#p1cec4ba44c)">
     <use xlink:href="#C0_0_6a422cc313" x="161.907148" y="205.782754" style="fill: #2ca02c; fill-opacity: 0.7; stroke: #ffffff; stroke-opacity: 0.7; stroke-width: 0.8"/>
    </g>
    <g clip-path="url(#p1cec4ba44c)">
     <use xlink:href="#C0_0_6a422cc313" x="122.309341" y="152.467046" style="fill: #2ca02c; fill-opacity: 0.7; stroke: #ffffff; stroke-opacity: 0.7; stroke-width: 0.8"/>
    </g>
    <g clip-path="url(#p1cec4ba44c)">
     <use xlink:href="#C0_0_6a422cc313" x="193.258725" y="208.352522" style="fill: #ff7f0e; fill-opacity: 0.7; stroke: #ffffff; stroke-opacity: 0.7; stroke-width: 0.8"/>
    </g>
    <g clip-path="url(#p1cec4ba44c)">
     <use xlink:href="#C0_0_6a422cc313" x="143.790743" y="182.905156" style="fill: #ff7f0e; fill-opacity: 0.7; stroke: #ffffff; stroke-opacity: 0.7; stroke-width: 0.8"/>
    </g>
    <g clip-path="url(#p1cec4ba44c)">
     <use xlink:href="#C0_0_6a422cc313" x="326.443722" y="73.172173" style="fill: #1f77b4; fill-opacity: 0.7; stroke: #ffffff; stroke-opacity: 0.7; stroke-width: 0.8"/>
    </g>
    <g clip-path="url(#p1cec4ba44c)">
     <use xlink:href="#C0_0_6a422cc313" x="119.563363" y="150.554608" style="fill: #2ca02c; fill-opacity: 0.7; stroke: #ffffff; stroke-opacity: 0.7; stroke-width: 0.8"/>
    </g>
    <g clip-path="url(#p1cec4ba44c)">
     <use xlink:href="#C0_0_6a422cc313" x="185.593293" y="253.966509" style="fill: #2ca02c; fill-opacity: 0.7; stroke: #ffffff; stroke-opacity: 0.7; stroke-width: 0.8"/>
    </g>
    <g clip-path="url(#p1cec4ba44c)">
     <use xlink:href="#C0_0_6a422cc313" x="157.277471" y="205.095974" style="fill: #ff7f0e; fill-opacity: 0.7; stroke: #ffffff; stroke-opacity: 0.7; stroke-width: 0.8"/>
    </g>
    <g clip-path="url(#p1cec4ba44c)">
     <use xlink:href="#C0_0_6a422cc313" x="136.429765" y="160.59956" style="fill: #ff7f0e; fill-opacity: 0.7; stroke: #ffffff; stroke-opacity: 0.7; stroke-width: 0.8"/>
    </g>
    <g clip-path="url(#p1cec4ba44c)">
     <use xlink:href="#C0_0_6a422cc313" x="171.371274" y="226.998127" style="fill: #1f77b4; fill-opacity: 0.7; stroke: #ffffff; stroke-opacity: 0.7; stroke-width: 0.8"/>
    </g>
    <g clip-path="url(#p1cec4ba44c)">
     <use xlink:href="#C0_0_6a422cc313" x="147.567338" y="203.375502" style="fill: #2ca02c; fill-opacity: 0.7; stroke: #ffffff; stroke-opacity: 0.7; stroke-width: 0.8"/>
    </g>
    <g clip-path="url(#p1cec4ba44c)">
     <use xlink:href="#C0_0_6a422cc313" x="278.516671" y="119.023692" style="fill: #ff7f0e; fill-opacity: 0.7; stroke: #ffffff; stroke-opacity: 0.7; stroke-width: 0.8"/>
    </g>
    <g clip-path="url(#p1cec4ba44c)">
     <use xlink:href="#C0_0_6a422cc313" x="144.084143" y="182.945596" style="fill: #ff7f0e; fill-opacity: 0.7; stroke: #ffffff; stroke-opacity: 0.7; stroke-width: 0.8"/>
    </g>
    <g clip-path="url(#p1cec4ba44c)">
     <use xlink:href="#C0_0_6a422cc313" x="169.634347" y="222.38394" style="fill: #1f77b4; fill-opacity: 0.7; stroke: #ffffff; stroke-opacity: 0.7; stroke-width: 0.8"/>
    </g>
    <g clip-path="url(#p1cec4ba44c)">
     <use xlink:href="#C0_0_6a422cc313" x="183.373613" y="295.144577" style="fill: #2ca02c; fill-opacity: 0.7; stroke: #ffffff; stroke-opacity: 0.7; stroke-width: 0.8"/>
    </g>
    <g clip-path="url(#p1cec4ba44c)">
     <use xlink:href="#C0_0_6a422cc313" x="290.507342" y="123.848167" style="fill: #ff7f0e; fill-opacity: 0.7; stroke: #ffffff; stroke-opacity: 0.7; stroke-width: 0.8"/>
    </g>
    <g clip-path="url(#p1cec4ba44c)">
     <use xlink:href="#C0_0_6a422cc313" x="40.309091" y="25.509091" style="fill: #ff7f0e; fill-opacity: 0.7; stroke: #ffffff; stroke-opacity: 0.7; stroke-width: 0.8"/>
    </g>
    <g clip-path="url(#p1cec4ba44c)">
     <use xlink:href="#C0_0_6a422cc313" x="140.027846" y="173.887023" style="fill: #1f77b4; fill-opacity: 0.7; stroke: #ffffff; stroke-opacity: 0.7; stroke-width: 0.8"/>
    </g>
    <g clip-path="url(#p1cec4ba44c)">
     <use xlink:href="#C0_0_6a422cc313" x="244.975527" y="241.631922" style="fill: #2ca02c; fill-opacity: 0.7; stroke: #ffffff; stroke-opacity: 0.7; stroke-width: 0.8"/>
    </g>
    <g clip-path="url(#p1cec4ba44c)">
     <use xlink:href="#C0_0_6a422cc313" x="334.490909" y="90.875201" style="fill: #ff7f0e; fill-opacity: 0.7; stroke: #ffffff; stroke-opacity: 0.7; stroke-width: 0.8"/>
    </g>
    <g clip-path="url(#p1cec4ba44c)">
     <use xlink:href="#C0_0_6a422cc313" x="162.28249" y="319.690909" style="fill: #ff7f0e; fill-opacity: 0.7; stroke: #ffffff; stroke-opacity: 0.7; stroke-width: 0.8"/>
    </g>
    <g clip-path="url(#p1cec4ba44c)">
     <use xlink:href="#C0_0_6a422cc313" x="143.348007" y="182.762509" style="fill: #1f77b4; fill-opacity: 0.7; stroke: #ffffff; stroke-opacity: 0.7; stroke-width: 0.8"/>
    </g>
    <g clip-path="url(#p1cec4ba44c)">
     <use xlink:href="#C0_0_6a422cc313" x="156.621656" y="217.247009" style="fill: #2ca02c; fill-opacity: 0.7; stroke: #ffffff; stroke-opacity: 0.7; stroke-width: 0.8"/>
    </g>
    <g clip-path="url(#p1cec4ba44c)">
     <use xlink:href="#C0_0_6a422cc313" x="165.312901" y="181.433234" style="fill: #ff7f0e; fill-opacity: 0.7; stroke: #ffffff; stroke-opacity: 0.7; stroke-width: 0.8"/>
    </g>
    <g clip-path="url(#p1cec4ba44c)">
     <use xlink:href="#C0_0_6a422cc313" x="197.246299" y="219.30322" style="fill: #2ca02c; fill-opacity: 0.7; stroke: #ffffff; stroke-opacity: 0.7; stroke-width: 0.8"/>
    </g>
    <g clip-path="url(#p1cec4ba44c)">
     <use xlink:href="#C0_0_6a422cc313" x="146.425011" y="186.640197" style="fill: #ff7f0e; fill-opacity: 0.7; stroke: #ffffff; stroke-opacity: 0.7; stroke-width: 0.8"/>
    </g>
    <g clip-path="url(#p1cec4ba44c)">
     <use xlink:href="#C0_0_6a422cc313" x="168.911186" y="222.085106" style="fill: #2ca02c; fill-opacity: 0.7; stroke: #ffffff; stroke-opacity: 0.7; stroke-width: 0.8"/>
    </g>
    <g clip-path="url(#p1cec4ba44c)">
     <use xlink:href="#C0_0_6a422cc313" x="155.111021" y="229.24983" style="fill: #ff7f0e; fill-opacity: 0.7; stroke: #ffffff; stroke-opacity: 0.7; stroke-width: 0.8"/>
    </g>
   </g>
   <g id="matplotlib.axis_1">
    <g id="text_1">
     <!-- PC1 (43.09%) -->
     <g transform="translate(146.308437 347.518125) scale(0.12 -0.12)">
      <defs>
       <path id="DejaVuSans-50" d="M 1259 4147 
L 1259 2394 
L 2053 2394 
Q 2494 2394 2734 2622 
Q 2975 2850 2975 3272 
Q 2975 3691 2734 3919 
Q 2494 4147 2053 4147 
L 1259 4147 
z
M 628 4666 
L 2053 4666 
Q 2838 4666 3239 4311 
Q 3641 3956 3641 3272 
Q 3641 2581 3239 2228 
Q 2838 1875 2053 1875 
L 1259 1875 
L 1259 0 
L 628 0 
L 628 4666 
z
" transform="scale(0.015625)"/>
       <path id="DejaVuSans-43" d="M 4122 4306 
L 4122 3641 
Q 3803 3938 3442 4084 
Q 3081 4231 2675 4231 
Q 1875 4231 1450 3742 
Q 1025 3253 1025 2328 
Q 1025 1406 1450 917 
Q 1875 428 2675 428 
Q 3081 428 3442 575 
Q 3803 722 4122 1019 
L 4122 359 
Q 3791 134 3420 21 
Q 3050 -91 2638 -91 
Q 1578 -91 968 557 
Q 359 1206 359 2328 
Q 359 3453 968 4101 
Q 1578 4750 2638 4750 
Q 3056 4750 3426 4639 
Q 3797 4528 4122 4306 
z
" transform="scale(0.015625)"/>
       <path id="DejaVuSans-31" d="M 794 531 
L 1825 531 
L 1825 4091 
L 703 3866 
L 703 4441 
L 1819 4666 
L 2450 4666 
L 2450 531 
L 3481 531 
L 3481 0 
L 794 0 
L 794 531 
z
" transform="scale(0.015625)"/>
       <path id="DejaVuSans-20" transform="scale(0.015625)"/>
       <path id="DejaVuSans-28" d="M 1984 4856 
Q 1566 4138 1362 3434 
Q 1159 2731 1159 2009 
Q 1159 1288 1364 580 
Q 1569 -128 1984 -844 
L 1484 -844 
Q 1016 -109 783 600 
Q 550 1309 550 2009 
Q 550 2706 781 3412 
Q 1013 4119 1484 4856 
L 1984 4856 
z
" transform="scale(0.015625)"/>
       <path id="DejaVuSans-34" d="M 2419 4116 
L 825 1625 
L 2419 1625 
L 2419 4116 
z
M 2253 4666 
L 3047 4666 
L 3047 1625 
L 3713 1625 
L 3713 1100 
L 3047 1100 
L 3047 0 
L 2419 0 
L 2419 1100 
L 313 1100 
L 313 1709 
L 2253 4666 
z
" transform="scale(0.015625)"/>
       <path id="DejaVuSans-33" d="M 2597 2516 
Q 3050 2419 3304 2112 
Q 3559 1806 3559 1356 
Q 3559 666 3084 287 
Q 2609 -91 1734 -91 
Q 1441 -91 1130 -33 
Q 819 25 488 141 
L 488 750 
Q 750 597 1062 519 
Q 1375 441 1716 441 
Q 2309 441 2620 675 
Q 2931 909 2931 1356 
Q 2931 1769 2642 2001 
Q 2353 2234 1838 2234 
L 1294 2234 
L 1294 2753 
L 1863 2753 
Q 2328 2753 2575 2939 
Q 2822 3125 2822 3475 
Q 2822 3834 2567 4026 
Q 2313 4219 1838 4219 
Q 1578 4219 1281 4162 
Q 984 4106 628 3988 
L 628 4550 
Q 988 4650 1302 4700 
Q 1616 4750 1894 4750 
Q 2613 4750 3031 4423 
Q 3450 4097 3450 3541 
Q 3450 3153 3228 2886 
Q 3006 2619 2597 2516 
z
" transform="scale(0.015625)"/>
       <path id="DejaVuSans-2e" d="M 684 794 
L 1344 794 
L 1344 0 
L 684 0 
L 684 794 
z
" transform="scale(0.015625)"/>
       <path id="DejaVuSans-30" d="M 2034 4250 
Q 1547 4250 1301 3770 
Q 1056 3291 1056 2328 
Q 1056 1369 1301 889 
Q 1547 409 2034 409 
Q 2525 409 2770 889 
Q 3016 1369 3016 2328 
Q 3016 3291 2770 3770 
Q 2525 4250 2034 4250 
z
M 2034 4750 
Q 2819 4750 3233 4129 
Q 3647 3509 3647 2328 
Q 3647 1150 3233 529 
Q 2819 -91 2034 -91 
Q 1250 -91 836 529 
Q 422 1150 422 2328 
Q 422 3509 836 4129 
Q 1250 4750 2034 4750 
z
" transform="scale(0.015625)"/>
       <path id="DejaVuSans-39" d="M 703 97 
L 703 672 
Q 941 559 1184 500 
Q 1428 441 1663 441 
Q 2288 441 2617 861 
Q 2947 1281 2994 2138 
Q 2813 1869 2534 1725 
Q 2256 1581 1919 1581 
Q 1219 1581 811 2004 
Q 403 2428 403 3163 
Q 403 3881 828 4315 
Q 1253 4750 1959 4750 
Q 2769 4750 3195 4129 
Q 3622 3509 3622 2328 
Q 3622 1225 3098 567 
Q 2575 -91 1691 -91 
Q 1453 -91 1209 -44 
Q 966 3 703 97 
z
M 1959 2075 
Q 2384 2075 2632 2365 
Q 2881 2656 2881 3163 
Q 2881 3666 2632 3958 
Q 2384 4250 1959 4250 
Q 1534 4250 1286 3958 
Q 1038 3666 1038 3163 
Q 1038 2656 1286 2365 
Q 1534 2075 1959 2075 
z
" transform="scale(0.015625)"/>
       <path id="DejaVuSans-25" d="M 4653 2053 
Q 4381 2053 4226 1822 
Q 4072 1591 4072 1178 
Q 4072 772 4226 539 
Q 4381 306 4653 306 
Q 4919 306 5073 539 
Q 5228 772 5228 1178 
Q 5228 1588 5073 1820 
Q 4919 2053 4653 2053 
z
M 4653 2450 
Q 5147 2450 5437 2106 
Q 5728 1763 5728 1178 
Q 5728 594 5436 251 
Q 5144 -91 4653 -91 
Q 4153 -91 3862 251 
Q 3572 594 3572 1178 
Q 3572 1766 3864 2108 
Q 4156 2450 4653 2450 
z
M 1428 4353 
Q 1159 4353 1004 4120 
Q 850 3888 850 3481 
Q 850 3069 1003 2837 
Q 1156 2606 1428 2606 
Q 1700 2606 1854 2837 
Q 2009 3069 2009 3481 
Q 2009 3884 1853 4118 
Q 1697 4353 1428 4353 
z
M 4250 4750 
L 4750 4750 
L 1831 -91 
L 1331 -91 
L 4250 4750 
z
M 1428 4750 
Q 1922 4750 2215 4408 
Q 2509 4066 2509 3481 
Q 2509 2891 2217 2550 
Q 1925 2209 1428 2209 
Q 931 2209 642 2551 
Q 353 2894 353 3481 
Q 353 4063 643 4406 
Q 934 4750 1428 4750 
z
" transform="scale(0.015625)"/>
       <path id="DejaVuSans-29" d="M 513 4856 
L 1013 4856 
Q 1481 4119 1714 3412 
Q 1947 2706 1947 2009 
Q 1947 1309 1714 600 
Q 1481 -109 1013 -844 
L 513 -844 
Q 928 -128 1133 580 
Q 1338 1288 1338 2009 
Q 1338 2731 1133 3434 
Q 928 4138 513 4856 
z
" transform="scale(0.015625)"/>
      </defs>
      <use xlink:href="#DejaVuSans-50"/>
      <use xlink:href="#DejaVuSans-43" x="60.302734"/>
      <use xlink:href="#DejaVuSans-31" x="130.126953"/>
      <use xlink:href="#DejaVuSans-20" x="193.75"/>
      <use xlink:href="#DejaVuSans-28" x="225.537109"/>
      <use xlink:href="#DejaVuSans-34" x="264.550781"/>
      <use xlink:href="#DejaVuSans-33" x="328.173828"/>
      <use xlink:href="#DejaVuSans-2e" x="391.796875"/>
      <use xlink:href="#DejaVuSans-30" x="423.583984"/>
      <use xlink:href="#DejaVuSans-39" x="487.207031"/>
      <use xlink:href="#DejaVuSans-25" x="550.830078"/>
      <use xlink:href="#DejaVuSans-29" x="645.849609"/>
     </g>
    </g>
   </g>
   <g id="matplotlib.axis_2">
    <g id="text_2">
     <!-- PC2 (23.56%) -->
     <g transform="translate(19.104375 213.691563) rotate(-90) scale(0.12 -0.12)">
      <defs>
       <path id="DejaVuSans-32" d="M 1228 531 
L 3431 531 
L 3431 0 
L 469 0 
L 469 531 
Q 828 903 1448 1529 
Q 2069 2156 2228 2338 
Q 2531 2678 2651 2914 
Q 2772 3150 2772 3378 
Q 2772 3750 2511 3984 
Q 2250 4219 1831 4219 
Q 1534 4219 1204 4116 
Q 875 4013 500 3803 
L 500 4441 
Q 881 4594 1212 4672 
Q 1544 4750 1819 4750 
Q 2544 4750 2975 4387 
Q 3406 4025 3406 3419 
Q 3406 3131 3298 2873 
Q 3191 2616 2906 2266 
Q 2828 2175 2409 1742 
Q 1991 1309 1228 531 
z
" transform="scale(0.015625)"/>
       <path id="DejaVuSans-35" d="M 691 4666 
L 3169 4666 
L 3169 4134 
L 1269 4134 
L 1269 2991 
Q 1406 3038 1543 3061 
Q 1681 3084 1819 3084 
Q 2600 3084 3056 2656 
Q 3513 2228 3513 1497 
Q 3513 744 3044 326 
Q 2575 -91 1722 -91 
Q 1428 -91 1123 -41 
Q 819 9 494 109 
L 494 744 
Q 775 591 1075 516 
Q 1375 441 1709 441 
Q 2250 441 2565 725 
Q 2881 1009 2881 1497 
Q 2881 1984 2565 2268 
Q 2250 2553 1709 2553 
Q 1456 2553 1204 2497 
Q 953 2441 691 2322 
L 691 4666 
z
" transform="scale(0.015625)"/>
       <path id="DejaVuSans-36" d="M 2113 2584 
Q 1688 2584 1439 2293 
Q 1191 2003 1191 1497 
Q 1191 994 1439 701 
Q 1688 409 2113 409 
Q 2538 409 2786 701 
Q 3034 994 3034 1497 
Q 3034 2003 2786 2293 
Q 2538 2584 2113 2584 
z
M 3366 4563 
L 3366 3988 
Q 3128 4100 2886 4159 
Q 2644 4219 2406 4219 
Q 1781 4219 1451 3797 
Q 1122 3375 1075 2522 
Q 1259 2794 1537 2939 
Q 1816 3084 2150 3084 
Q 2853 3084 3261 2657 
Q 3669 2231 3669 1497 
Q 3669 778 3244 343 
Q 2819 -91 2113 -91 
Q 1303 -91 875 529 
Q 447 1150 447 2328 
Q 447 3434 972 4092 
Q 1497 4750 2381 4750 
Q 2619 4750 2861 4703 
Q 3103 4656 3366 4563 
z
" transform="scale(0.015625)"/>
      </defs>
      <use xlink:href="#DejaVuSans-50"/>
      <use xlink:href="#DejaVuSans-43" x="60.302734"/>
      <use xlink:href="#DejaVuSans-32" x="130.126953"/>
      <use xlink:href="#DejaVuSans-20" x="193.75"/>
      <use xlink:href="#DejaVuSans-28" x="225.537109"/>
      <use xlink:href="#DejaVuSans-32" x="264.550781"/>
      <use xlink:href="#DejaVuSans-33" x="328.173828"/>
      <use xlink:href="#DejaVuSans-2e" x="391.796875"/>
      <use xlink:href="#DejaVuSans-35" x="423.583984"/>
      <use xlink:href="#DejaVuSans-36" x="487.207031"/>
      <use xlink:href="#DejaVuSans-25" x="550.830078"/>
      <use xlink:href="#DejaVuSans-29" x="645.849609"/>
     </g>
    </g>
   </g>
   <g id="line2d_1"/>
   <g id="line2d_2"/>
   <g id="line2d_3"/>
   <g id="patch_3">
    <path d="M 25.6 334.4 
L 25.6 10.8 
" style="fill: none; stroke: #000000; stroke-width: 0.8; stroke-linejoin: miter; stroke-linecap: square"/>
   </g>
   <g id="patch_4">
    <path d="M 349.2 334.4 
L 349.2 10.8 
" style="fill: none; stroke: #000000; stroke-width: 0.8; stroke-linejoin: miter; stroke-linecap: square"/>
   </g>
   <g id="patch_5">
    <path d="M 25.6 334.4 
L 349.2 334.4 
" style="fill: none; stroke: #000000; stroke-width: 0.8; stroke-linejoin: miter; stroke-linecap: square"/>
   </g>
   <g id="patch_6">
    <path d="M 25.6 10.8 
L 349.2 10.8 
" style="fill: none; stroke: #000000; stroke-width: 0.8; stroke-linejoin: miter; stroke-linecap: square"/>
   </g>
   <g id="legend_1">
    <g id="patch_7">
     <path d="M 34 328.4 
L 113.55625 328.4 
Q 115.95625 328.4 115.95625 326 
L 115.95625 274.35875 
Q 115.95625 271.95875 113.55625 271.95875 
L 34 271.95875 
Q 31.6 271.95875 31.6 274.35875 
L 31.6 326 
Q 31.6 328.4 34 328.4 
z
" style="fill: #ffffff; opacity: 0.8; stroke: #cccccc; stroke-linejoin: miter"/>
    </g>
    <g id="line2d_4">
     <defs>
      <path id="mca2e549c09" d="M 0 5 
C 1.326016 5 2.597899 4.473168 3.535534 3.535534 
C 4.473168 2.597899 5 1.326016 5 0 
C 5 -1.326016 4.473168 -2.597899 3.535534 -3.535534 
C 2.597899 -4.473168 1.326016 -5 0 -5 
C -1.326016 -5 -2.597899 -4.473168 -3.535534 -3.535534 
C -4.473168 -2.597899 -5 -1.326016 -5 0 
C -5 1.326016 -4.473168 2.597899 -3.535534 3.535534 
C -2.597899 4.473168 -1.326016 5 0 5 
z
" style="stroke: #ffffff; stroke-opacity: 0.7; stroke-width: 0.8"/>
     </defs>
     <g>
      <use xlink:href="#mca2e549c09" x="48.4" y="281.676875" style="fill: #1f77b4; fill-opacity: 0.7; stroke: #ffffff; stroke-opacity: 0.7; stroke-width: 0.8"/>
     </g>
    </g>
    <g id="text_3">
     <!-- H -->
     <g transform="translate(70 285.876875) scale(0.12 -0.12)">
      <defs>
       <path id="DejaVuSans-48" d="M 628 4666 
L 1259 4666 
L 1259 2753 
L 3553 2753 
L 3553 4666 
L 4184 4666 
L 4184 0 
L 3553 0 
L 3553 2222 
L 1259 2222 
L 1259 0 
L 628 0 
L 628 4666 
z
" transform="scale(0.015625)"/>
      </defs>
      <use xlink:href="#DejaVuSans-48"/>
     </g>
    </g>
    <g id="line2d_5">
     <defs>
      <path id="mac65b00694" d="M 0 5 
C 1.326016 5 2.597899 4.473168 3.535534 3.535534 
C 4.473168 2.597899 5 1.326016 5 0 
C 5 -1.326016 4.473168 -2.597899 3.535534 -3.535534 
C 2.597899 -4.473168 1.326016 -5 0 -5 
C -1.326016 -5 -2.597899 -4.473168 -3.535534 -3.535534 
C -4.473168 -2.597899 -5 -1.326016 -5 0 
C -5 1.326016 -4.473168 2.597899 -3.535534 3.535534 
C -2.597899 4.473168 -1.326016 5 0 5 
z
" style="stroke: #ffffff; stroke-opacity: 0.7; stroke-width: 0.8"/>
     </defs>
     <g>
      <use xlink:href="#mac65b00694" x="48.4" y="299.290625" style="fill: #2ca02c; fill-opacity: 0.7; stroke: #ffffff; stroke-opacity: 0.7; stroke-width: 0.8"/>
     </g>
    </g>
    <g id="text_4">
     <!-- T3cDM -->
     <g transform="translate(70 303.490625) scale(0.12 -0.12)">
      <defs>
       <path id="DejaVuSans-54" d="M -19 4666 
L 3928 4666 
L 3928 4134 
L 2272 4134 
L 2272 0 
L 1638 0 
L 1638 4134 
L -19 4134 
L -19 4666 
z
" transform="scale(0.015625)"/>
       <path id="DejaVuSans-63" d="M 3122 3366 
L 3122 2828 
Q 2878 2963 2633 3030 
Q 2388 3097 2138 3097 
Q 1578 3097 1268 2742 
Q 959 2388 959 1747 
Q 959 1106 1268 751 
Q 1578 397 2138 397 
Q 2388 397 2633 464 
Q 2878 531 3122 666 
L 3122 134 
Q 2881 22 2623 -34 
Q 2366 -91 2075 -91 
Q 1284 -91 818 406 
Q 353 903 353 1747 
Q 353 2603 823 3093 
Q 1294 3584 2113 3584 
Q 2378 3584 2631 3529 
Q 2884 3475 3122 3366 
z
" transform="scale(0.015625)"/>
       <path id="DejaVuSans-44" d="M 1259 4147 
L 1259 519 
L 2022 519 
Q 2988 519 3436 956 
Q 3884 1394 3884 2338 
Q 3884 3275 3436 3711 
Q 2988 4147 2022 4147 
L 1259 4147 
z
M 628 4666 
L 1925 4666 
Q 3281 4666 3915 4102 
Q 4550 3538 4550 2338 
Q 4550 1131 3912 565 
Q 3275 0 1925 0 
L 628 0 
L 628 4666 
z
" transform="scale(0.015625)"/>
       <path id="DejaVuSans-4d" d="M 628 4666 
L 1569 4666 
L 2759 1491 
L 3956 4666 
L 4897 4666 
L 4897 0 
L 4281 0 
L 4281 4097 
L 3078 897 
L 2444 897 
L 1241 4097 
L 1241 0 
L 628 0 
L 628 4666 
z
" transform="scale(0.015625)"/>
      </defs>
      <use xlink:href="#DejaVuSans-54"/>
      <use xlink:href="#DejaVuSans-33" x="61.083984"/>
      <use xlink:href="#DejaVuSans-63" x="124.707031"/>
      <use xlink:href="#DejaVuSans-44" x="179.6875"/>
      <use xlink:href="#DejaVuSans-4d" x="256.689453"/>
     </g>
    </g>
    <g id="line2d_6">
     <defs>
      <path id="m818aa6f0e7" d="M 0 5 
C 1.326016 5 2.597899 4.473168 3.535534 3.535534 
C 4.473168 2.597899 5 1.326016 5 0 
C 5 -1.326016 4.473168 -2.597899 3.535534 -3.535534 
C 2.597899 -4.473168 1.326016 -5 0 -5 
C -1.326016 -5 -2.597899 -4.473168 -3.535534 -3.535534 
C -4.473168 -2.597899 -5 -1.326016 -5 0 
C -5 1.326016 -4.473168 2.597899 -3.535534 3.535534 
C -2.597899 4.473168 -1.326016 5 0 5 
z
" style="stroke: #ffffff; stroke-opacity: 0.7; stroke-width: 0.8"/>
     </defs>
     <g>
      <use xlink:href="#m818aa6f0e7" x="48.4" y="316.904375" style="fill: #ff7f0e; fill-opacity: 0.7; stroke: #ffffff; stroke-opacity: 0.7; stroke-width: 0.8"/>
     </g>
    </g>
    <g id="text_5">
     <!-- T1DM -->
     <g transform="translate(70 321.104375) scale(0.12 -0.12)">
      <use xlink:href="#DejaVuSans-54"/>
      <use xlink:href="#DejaVuSans-31" x="61.083984"/>
      <use xlink:href="#DejaVuSans-44" x="124.707031"/>
      <use xlink:href="#DejaVuSans-4d" x="201.708984"/>
     </g>
    </g>
   </g>
  </g>
 </g>
 <defs>
  <clipPath id="p1cec4ba44c">
   <rect x="25.6" y="10.8" width="323.6" height="323.6"/>
  </clipPath>
 </defs>
</svg>
