<?xml version="1.0" encoding="UTF-8" standalone="no"?>
<svg
   width="352pt"
   height="288pt"
   viewBox="0 0 352 288"
   version="1.1"
   id="svg99"
   sodipodi:docname="upsetplot.svg"
   inkscape:export-filename="upsetplot.png"
   inkscape:export-xdpi="300"
   inkscape:export-ydpi="300"
   inkscape:version="1.3.2 (1:1.3.2+202311252150+091e20ef0f)"
   xmlns:inkscape="http://www.inkscape.org/namespaces/inkscape"
   xmlns:sodipodi="http://sodipodi.sourceforge.net/DTD/sodipodi-0.dtd"
   xmlns:xlink="http://www.w3.org/1999/xlink"
   xmlns="http://www.w3.org/2000/svg"
   xmlns:svg="http://www.w3.org/2000/svg"
   xmlns:rdf="http://www.w3.org/1999/02/22-rdf-syntax-ns#"
   xmlns:cc="http://creativecommons.org/ns#"
   xmlns:dc="http://purl.org/dc/elements/1.1/">
  <sodipodi:namedview
     id="namedview99"
     pagecolor="#ffffff"
     bordercolor="#000000"
     borderopacity="0.25"
     inkscape:showpageshadow="2"
     inkscape:pageopacity="0.0"
     inkscape:pagecheckerboard="0"
     inkscape:deskcolor="#d1d1d1"
     inkscape:document-units="pt"
     inkscape:export-bgcolor="#ffffffff"
     inkscape:zoom="1.585466"
     inkscape:cx="164.62037"
     inkscape:cy="137.81437"
     inkscape:window-width="1920"
     inkscape:window-height="1043"
     inkscape:window-x="0"
     inkscape:window-y="0"
     inkscape:window-maximized="1"
     inkscape:current-layer="figure_1" />
  <metadata
     id="metadata1">
    <rdf:RDF>
      <cc:Work>
        <dc:type
           rdf:resource="http://purl.org/dc/dcmitype/StillImage" />
        <dc:date>2025-08-19T14:28:02.135763</dc:date>
        <dc:format>image/svg+xml</dc:format>
        <dc:creator>
          <cc:Agent>
            <dc:title>Matplotlib v3.8.4, https://matplotlib.org/</dc:title>
          </cc:Agent>
        </dc:creator>
      </cc:Work>
    </rdf:RDF>
  </metadata>
  <defs
     id="defs1">
    <style
       type="text/css"
       id="style1">*{stroke-linejoin: round; stroke-linecap: butt}</style>
  </defs>
  <g
     id="figure_1">
    <g
       id="patch_1">
      <path
         d="M 0 288  L 352 288  L 352 0  L 0 0  z "
         style="fill: #ffffff"
         id="path1" />
    </g>
    <g
       id="axes_1">
      <g
         id="patch_2">
        <path
           d="M 44 253.355294  L 316.8 253.355294  L 316.8 236.414118  L 44 236.414118  z "
           clip-path="url(#pa9aea0bf55)"
           style="fill-opacity: 0.05098"
           id="path2" />
      </g>
      <g
         id="patch_3">
        <path
           d="M 44 232.178824  L 316.8 232.178824  L 316.8 215.237647  L 44 215.237647  L 44 232.178824  z "
           clip-path="url(#pa9aea0bf55)"
           style="fill: none"
           id="path3" />
      </g>
      <g
         id="patch_4">
        <path
           d="M 44 211.002353  L 316.8 211.002353  L 316.8 194.061176  L 44 194.061176  z "
           clip-path="url(#pa9aea0bf55)"
           style="fill-opacity: 0.05098"
           id="path4" />
      </g>
      <g
         id="matplotlib.axis_1" />
      <g
         id="matplotlib.axis_2">
        <g
           id="ytick_1" />
        <g
           id="ytick_2" />
        <g
           id="ytick_3" />
      </g>
    </g>
    <g
       id="axes_2">
      <g
         id="matplotlib.axis_3">
        <g
           id="ytick_4">
          <g
             id="line2d_1" />
          <g
             id="text_1">
            <!-- T1DM -->
            <g
               transform="translate(137.609255 248.683925) scale(0.1 -0.1)"
               id="g7">
              <defs
                 id="defs4">
                <path
                   id="DejaVuSans-54"
                   d="M -19 4666  L 3928 4666  L 3928 4134  L 2272 4134  L 2272 0  L 1638 0  L 1638 4134  L -19 4134  L -19 4666  z "
                   transform="scale(0.015625)" />
                <path
                   id="DejaVuSans-31"
                   d="M 794 531  L 1825 531  L 1825 4091  L 703 3866  L 703 4441  L 1819 4666  L 2450 4666  L 2450 531  L 3481 531  L 3481 0  L 794 0  L 794 531  z "
                   transform="scale(0.015625)" />
                <path
                   id="DejaVuSans-44"
                   d="M 1259 4147  L 1259 519  L 2022 519  Q 2988 519 3436 956  Q 3884 1394 3884 2338  Q 3884 3275 3436 3711  Q 2988 4147 2022 4147  L 1259 4147  z M 628 4666  L 1925 4666  Q 3281 4666 3915 4102  Q 4550 3538 4550 2338  Q 4550 1131 3912 565  Q 3275 0 1925 0  L 628 0  L 628 4666  z "
                   transform="scale(0.015625)" />
                <path
                   id="DejaVuSans-4d"
                   d="M 628 4666  L 1569 4666  L 2759 1491  L 3956 4666  L 4897 4666  L 4897 0  L 4281 0  L 4281 4097  L 3078 897  L 2444 897  L 1241 4097  L 1241 0  L 628 0  L 628 4666  z "
                   transform="scale(0.015625)" />
              </defs>
              <use
                 xlink:href="#DejaVuSans-54"
                 id="use4" />
              <use
                 xlink:href="#DejaVuSans-31"
                 x="61.083984"
                 id="use5" />
              <use
                 xlink:href="#DejaVuSans-44"
                 x="124.707031"
                 id="use6" />
              <use
                 xlink:href="#DejaVuSans-4d"
                 x="201.708984"
                 id="use7" />
            </g>
          </g>
        </g>
        <g
           id="ytick_5">
          <g
             id="line2d_2" />
          <g
             id="text_2">
            <!-- T3cDM -->
            <g
               transform="translate(132.110817 227.507454) scale(0.1 -0.1)"
               id="g12">
              <defs
                 id="defs7">
                <path
                   id="DejaVuSans-33"
                   d="M 2597 2516  Q 3050 2419 3304 2112  Q 3559 1806 3559 1356  Q 3559 666 3084 287  Q 2609 -91 1734 -91  Q 1441 -91 1130 -33  Q 819 25 488 141  L 488 750  Q 750 597 1062 519  Q 1375 441 1716 441  Q 2309 441 2620 675  Q 2931 909 2931 1356  Q 2931 1769 2642 2001  Q 2353 2234 1838 2234  L 1294 2234  L 1294 2753  L 1863 2753  Q 2328 2753 2575 2939  Q 2822 3125 2822 3475  Q 2822 3834 2567 4026  Q 2313 4219 1838 4219  Q 1578 4219 1281 4162  Q 984 4106 628 3988  L 628 4550  Q 988 4650 1302 4700  Q 1616 4750 1894 4750  Q 2613 4750 3031 4423  Q 3450 4097 3450 3541  Q 3450 3153 3228 2886  Q 3006 2619 2597 2516  z "
                   transform="scale(0.015625)" />
                <path
                   id="DejaVuSans-63"
                   d="M 3122 3366  L 3122 2828  Q 2878 2963 2633 3030  Q 2388 3097 2138 3097  Q 1578 3097 1268 2742  Q 959 2388 959 1747  Q 959 1106 1268 751  Q 1578 397 2138 397  Q 2388 397 2633 464  Q 2878 531 3122 666  L 3122 134  Q 2881 22 2623 -34  Q 2366 -91 2075 -91  Q 1284 -91 818 406  Q 353 903 353 1747  Q 353 2603 823 3093  Q 1294 3584 2113 3584  Q 2378 3584 2631 3529  Q 2884 3475 3122 3366  z "
                   transform="scale(0.015625)" />
              </defs>
              <use
                 xlink:href="#DejaVuSans-54"
                 id="use8" />
              <use
                 xlink:href="#DejaVuSans-33"
                 x="61.083984"
                 id="use9" />
              <use
                 xlink:href="#DejaVuSans-63"
                 x="124.707031"
                 id="use10" />
              <use
                 xlink:href="#DejaVuSans-44"
                 x="179.6875"
                 id="use11" />
              <use
                 xlink:href="#DejaVuSans-4d"
                 x="256.689453"
                 id="use12" />
            </g>
          </g>
        </g>
        <g
           id="ytick_6">
          <g
             id="line2d_3" />
          <g
             id="text_3">
            <!-- H -->
            <g
               transform="translate(158.88738 206.330983) scale(0.1 -0.1)"
               id="g13">
              <defs
                 id="defs12">
                <path
                   id="DejaVuSans-48"
                   d="M 628 4666  L 1259 4666  L 1259 2753  L 3553 2753  L 3553 4666  L 4184 4666  L 4184 0  L 3553 0  L 3553 2222  L 1259 2222  L 1259 0  L 628 0  L 628 4666  z "
                   transform="scale(0.015625)" />
              </defs>
              <use
                 xlink:href="#DejaVuSans-48"
                 id="use13" />
            </g>
          </g>
        </g>
      </g>
      <g
         id="LineCollection_1">
        <path
           d="M 182.148718 244.884706  L 182.148718 244.884706  "
           clip-path="url(#pb69333cd1a)"
           style="fill: none; stroke: #000000; stroke-width: 2"
           id="path13" />
        <path
           d="M 206.630769 223.708235  L 206.630769 223.708235  "
           clip-path="url(#pb69333cd1a)"
           style="fill: none; stroke: #000000; stroke-width: 2"
           id="path14" />
        <path
           d="M 231.112821 202.531765  L 231.112821 202.531765  "
           clip-path="url(#pb69333cd1a)"
           style="fill: none; stroke: #000000; stroke-width: 2"
           id="path15" />
        <path
           d="M 255.594872 244.884706  L 255.594872 223.708235  "
           clip-path="url(#pb69333cd1a)"
           style="fill: none; stroke: #000000; stroke-width: 2"
           id="path16" />
        <path
           d="M 280.076923 223.708235  L 280.076923 202.531765  "
           clip-path="url(#pb69333cd1a)"
           style="fill: none; stroke: #000000; stroke-width: 2"
           id="path17" />
        <path
           d="M 304.558974 244.884706  L 304.558974 202.531765  "
           clip-path="url(#pb69333cd1a)"
           style="fill: none; stroke: #000000; stroke-width: 2"
           id="path18" />
      </g>
      <g
         id="PathCollection_1">
        <defs
           id="defs18">
          <path
             id="C0_0_d7ece52c70"
             d="M 0 5.6  C 1.485137 5.6 2.909647 5.009949 3.959798 3.959798  C 5.009949 2.909647 5.6 1.485137 5.6 -0  C 5.6 -1.485137 5.009949 -2.909647 3.959798 -3.959798  C 2.909647 -5.009949 1.485137 -5.6 0 -5.6  C -1.485137 -5.6 -2.909647 -5.009949 -3.959798 -3.959798  C -5.009949 -2.909647 -5.6 -1.485137 -5.6 0  C -5.6 1.485137 -5.009949 2.909647 -3.959798 3.959798  C -2.909647 5.009949 -1.485137 5.6 0 5.6  z " />
        </defs>
        <g
           clip-path="url(#pb69333cd1a)"
           id="g18"
           style="fill:#e1812c;fill-opacity:1">
          <use
             xlink:href="#C0_0_d7ece52c70"
             x="182.148718"
             y="244.884706"
             style="stroke:#000000;fill:#e1812c;fill-opacity:1"
             id="use18" />
        </g>
        <g
           clip-path="url(#pb69333cd1a)"
           id="g19">
          <use
             xlink:href="#C0_0_d7ece52c70"
             x="182.148718"
             y="223.708235"
             style="fill-opacity: 0.180392"
             id="use19" />
        </g>
        <g
           clip-path="url(#pb69333cd1a)"
           id="g20">
          <use
             xlink:href="#C0_0_d7ece52c70"
             x="182.148718"
             y="202.531765"
             style="fill-opacity: 0.180392"
             id="use20" />
        </g>
        <g
           clip-path="url(#pb69333cd1a)"
           id="g21">
          <use
             xlink:href="#C0_0_d7ece52c70"
             x="206.630769"
             y="244.884706"
             style="fill-opacity: 0.180392"
             id="use21" />
        </g>
        <g
           clip-path="url(#pb69333cd1a)"
           id="g22"
           style="fill:#3a923a;fill-opacity:1">
          <use
             xlink:href="#C0_0_d7ece52c70"
             x="206.630769"
             y="223.708235"
             style="stroke:#000000;fill:#3a923a;fill-opacity:1"
             id="use22" />
        </g>
        <g
           clip-path="url(#pb69333cd1a)"
           id="g23">
          <use
             xlink:href="#C0_0_d7ece52c70"
             x="206.630769"
             y="202.531765"
             style="fill-opacity: 0.180392"
             id="use23" />
        </g>
        <g
           clip-path="url(#pb69333cd1a)"
           id="g24">
          <use
             xlink:href="#C0_0_d7ece52c70"
             x="231.112821"
             y="244.884706"
             style="fill-opacity: 0.180392"
             id="use24" />
        </g>
        <g
           clip-path="url(#pb69333cd1a)"
           id="g25">
          <use
             xlink:href="#C0_0_d7ece52c70"
             x="231.112821"
             y="223.708235"
             style="fill-opacity: 0.180392"
             id="use25" />
        </g>
        <g
           clip-path="url(#pb69333cd1a)"
           id="g26"
           style="fill:#3274a1;fill-opacity:1">
          <use
             xlink:href="#C0_0_d7ece52c70"
             x="231.112821"
             y="202.531765"
             style="stroke:#000000;fill:#3274a1;fill-opacity:1"
             id="use26" />
        </g>
        <g
           clip-path="url(#pb69333cd1a)"
           id="g27">
          <use
             xlink:href="#C0_0_d7ece52c70"
             x="255.594872"
             y="244.884706"
             style="stroke: #000000"
             id="use27" />
        </g>
        <g
           clip-path="url(#pb69333cd1a)"
           id="g28">
          <use
             xlink:href="#C0_0_d7ece52c70"
             x="255.594872"
             y="223.708235"
             style="stroke: #000000"
             id="use28" />
        </g>
        <g
           clip-path="url(#pb69333cd1a)"
           id="g29">
          <use
             xlink:href="#C0_0_d7ece52c70"
             x="255.594872"
             y="202.531765"
             style="fill-opacity: 0.180392"
             id="use29" />
        </g>
        <g
           clip-path="url(#pb69333cd1a)"
           id="g30">
          <use
             xlink:href="#C0_0_d7ece52c70"
             x="280.076923"
             y="244.884706"
             style="fill-opacity: 0.180392"
             id="use30" />
        </g>
        <g
           clip-path="url(#pb69333cd1a)"
           id="g31">
          <use
             xlink:href="#C0_0_d7ece52c70"
             x="280.076923"
             y="223.708235"
             style="stroke: #000000"
             id="use31" />
        </g>
        <g
           clip-path="url(#pb69333cd1a)"
           id="g32">
          <use
             xlink:href="#C0_0_d7ece52c70"
             x="280.076923"
             y="202.531765"
             style="stroke: #000000"
             id="use32" />
        </g>
        <g
           clip-path="url(#pb69333cd1a)"
           id="g33">
          <use
             xlink:href="#C0_0_d7ece52c70"
             x="304.558974"
             y="244.884706"
             style="stroke: #000000"
             id="use33" />
        </g>
        <g
           clip-path="url(#pb69333cd1a)"
           id="g34">
          <use
             xlink:href="#C0_0_d7ece52c70"
             x="304.558974"
             y="223.708235"
             style="stroke: #000000"
             id="use34" />
        </g>
        <g
           clip-path="url(#pb69333cd1a)"
           id="g35">
          <use
             xlink:href="#C0_0_d7ece52c70"
             x="304.558974"
             y="202.531765"
             style="stroke: #000000"
             id="use35" />
        </g>
      </g>
    </g>
    <g
       id="axes_3">
      <g
         id="patch_5"
         style="fill:#e1812c;fill-opacity:1">
        <path
           d="M 90.166154 250.178824  L 44 250.178824  L 44 239.590588  L 90.166154 239.590588  z "
           clip-path="url(#p394e5e879e)"
           style="stroke:#000000;stroke-linejoin:miter;fill:#e1812c;fill-opacity:1"
           id="path35" />
      </g>
      <g
         id="patch_6"
         style="fill:#3a923a;fill-opacity:1">
        <path
           d="M 90.166154 229.002353  L 48.467692 229.002353  L 48.467692 218.414118  L 90.166154 218.414118  z "
           clip-path="url(#p394e5e879e)"
           style="stroke:#000000;stroke-linejoin:miter;fill:#3a923a;fill-opacity:1"
           id="path36" />
      </g>
      <g
         id="patch_7"
         style="fill:#3274a1;fill-opacity:1">
        <path
           d="M 90.166154 207.825882  L 56.286154 207.825882  L 56.286154 197.237647  L 90.166154 197.237647  z "
           clip-path="url(#p394e5e879e)"
           style="stroke:#000000;stroke-linejoin:miter;fill:#3274a1;fill-opacity:1"
           id="path37" />
      </g>
      <g
         id="matplotlib.axis_4">
        <g
           id="xtick_1">
          <g
             id="line2d_4">
            <path
               d="M 90.166154 256.32  L 90.166154 191.096471  "
               clip-path="url(#p394e5e879e)"
               style="fill: none; stroke: #b0b0b0; stroke-width: 0.8; stroke-linecap: square"
               id="path38" />
          </g>
          <g
             id="line2d_5">
            <defs
               id="defs38">
              <path
                 id="m070671d345"
                 d="M 0 0  L 0 3.5  "
                 style="stroke: #000000; stroke-width: 0.8" />
            </defs>
            <g
               id="g38">
              <use
                 xlink:href="#m070671d345"
                 x="90.166154"
                 y="256.32"
                 style="stroke: #000000; stroke-width: 0.8"
                 id="use38" />
            </g>
          </g>
          <g
             id="text_4">
            <!-- 0 -->
            <g
               transform="translate(86.984904 270.918437) scale(0.1 -0.1)"
               id="g39">
              <defs
                 id="defs39">
                <path
                   id="DejaVuSans-30"
                   d="M 2034 4250  Q 1547 4250 1301 3770  Q 1056 3291 1056 2328  Q 1056 1369 1301 889  Q 1547 409 2034 409  Q 2525 409 2770 889  Q 3016 1369 3016 2328  Q 3016 3291 2770 3770  Q 2525 4250 2034 4250  z M 2034 4750  Q 2819 4750 3233 4129  Q 3647 3509 3647 2328  Q 3647 1150 3233 529  Q 2819 -91 2034 -91  Q 1250 -91 836 529  Q 422 1150 422 2328  Q 422 3509 836 4129  Q 1250 4750 2034 4750  z "
                   transform="scale(0.015625)" />
              </defs>
              <use
                 xlink:href="#DejaVuSans-30"
                 id="use39" />
            </g>
          </g>
        </g>
        <g
           id="xtick_2">
          <g
             id="line2d_6">
            <path
               d="M 52.935385 256.32  L 52.935385 191.096471  "
               clip-path="url(#p394e5e879e)"
               style="fill: none; stroke: #b0b0b0; stroke-width: 0.8; stroke-linecap: square"
               id="path39" />
          </g>
          <g
             id="line2d_7">
            <g
               id="g40">
              <use
                 xlink:href="#m070671d345"
                 x="52.935385"
                 y="256.32"
                 style="stroke: #000000; stroke-width: 0.8"
                 id="use40" />
            </g>
          </g>
          <g
             id="text_5">
            <!-- 100 -->
            <g
               transform="translate(43.391635 270.918437) scale(0.1 -0.1)"
               id="g43">
              <use
                 xlink:href="#DejaVuSans-31"
                 id="use41" />
              <use
                 xlink:href="#DejaVuSans-30"
                 x="63.623047"
                 id="use42" />
              <use
                 xlink:href="#DejaVuSans-30"
                 x="127.246094"
                 id="use43" />
            </g>
          </g>
        </g>
      </g>
      <g
         id="patch_8">
        <path
           d="M 44 256.32  L 90.166154 256.32  "
           style="fill: none; stroke: #000000; stroke-width: 0.8; stroke-linejoin: miter; stroke-linecap: square"
           id="path43" />
      </g>
      <g
         id="text_6">
        <!-- 124 -->
        <g
           transform="translate(24.427755 247.644081) scale(0.1 -0.1)"
           id="g46">
          <defs
             id="defs43">
            <path
               id="DejaVuSans-32"
               d="M 1228 531  L 3431 531  L 3431 0  L 469 0  L 469 531  Q 828 903 1448 1529  Q 2069 2156 2228 2338  Q 2531 2678 2651 2914  Q 2772 3150 2772 3378  Q 2772 3750 2511 3984  Q 2250 4219 1831 4219  Q 1534 4219 1204 4116  Q 875 4013 500 3803  L 500 4441  Q 881 4594 1212 4672  Q 1544 4750 1819 4750  Q 2544 4750 2975 4387  Q 3406 4025 3406 3419  Q 3406 3131 3298 2873  Q 3191 2616 2906 2266  Q 2828 2175 2409 1742  Q 1991 1309 1228 531  z "
               transform="scale(0.015625)" />
            <path
               id="DejaVuSans-34"
               d="M 2419 4116  L 825 1625  L 2419 1625  L 2419 4116  z M 2253 4666  L 3047 4666  L 3047 1625  L 3713 1625  L 3713 1100  L 3047 1100  L 3047 0  L 2419 0  L 2419 1100  L 313 1100  L 313 1709  L 2253 4666  z "
               transform="scale(0.015625)" />
          </defs>
          <use
             xlink:href="#DejaVuSans-31"
             id="use44" />
          <use
             xlink:href="#DejaVuSans-32"
             x="63.623047"
             id="use45" />
          <use
             xlink:href="#DejaVuSans-34"
             x="127.246094"
             id="use46" />
        </g>
      </g>
      <g
         id="text_7">
        <!-- 112 -->
        <g
           transform="translate(28.895448 226.46761) scale(0.1 -0.1)"
           id="g49">
          <use
             xlink:href="#DejaVuSans-31"
             id="use47" />
          <use
             xlink:href="#DejaVuSans-31"
             x="63.623047"
             id="use48" />
          <use
             xlink:href="#DejaVuSans-32"
             x="127.246094"
             id="use49" />
        </g>
      </g>
      <g
         id="text_8">
        <!-- 91 -->
        <g
           transform="translate(43.076409 205.29114) scale(0.1 -0.1)"
           id="g51">
          <defs
             id="defs49">
            <path
               id="DejaVuSans-39"
               d="M 703 97  L 703 672  Q 941 559 1184 500  Q 1428 441 1663 441  Q 2288 441 2617 861  Q 2947 1281 2994 2138  Q 2813 1869 2534 1725  Q 2256 1581 1919 1581  Q 1219 1581 811 2004  Q 403 2428 403 3163  Q 403 3881 828 4315  Q 1253 4750 1959 4750  Q 2769 4750 3195 4129  Q 3622 3509 3622 2328  Q 3622 1225 3098 567  Q 2575 -91 1691 -91  Q 1453 -91 1209 -44  Q 966 3 703 97  z M 1959 2075  Q 2384 2075 2632 2365  Q 2881 2656 2881 3163  Q 2881 3666 2632 3958  Q 2384 4250 1959 4250  Q 1534 4250 1286 3958  Q 1038 3666 1038 3163  Q 1038 2656 1286 2365  Q 1534 2075 1959 2075  z "
               transform="scale(0.015625)" />
          </defs>
          <use
             xlink:href="#DejaVuSans-39"
             id="use50" />
          <use
             xlink:href="#DejaVuSans-31"
             x="63.623047"
             id="use51" />
        </g>
      </g>
    </g>
    <g
       id="axes_4">
      <g
         id="patch_9">
        <path
           d="M 169.907692 178.051765  L 316.8 178.051765  L 316.8 34.56  L 169.907692 34.56  z "
           style="fill: #ffffff"
           id="path51" />
      </g>
      <g
         id="matplotlib.axis_5">
        <g
           id="ytick_7">
          <g
             id="line2d_8">
            <path
               d="M 169.907692 178.051765  L 316.8 178.051765  "
               clip-path="url(#p9bb8354f27)"
               style="fill: none; stroke: #b0b0b0; stroke-width: 0.8; stroke-linecap: square"
               id="path52" />
          </g>
          <g
             id="line2d_9">
            <defs
               id="defs52">
              <path
                 id="mf3cbf1eb01"
                 d="M 0 0  L -3.5 0  "
                 style="stroke: #000000; stroke-width: 0.8" />
            </defs>
            <g
               id="g52">
              <use
                 xlink:href="#mf3cbf1eb01"
                 x="169.907692"
                 y="178.051765"
                 style="stroke: #000000; stroke-width: 0.8"
                 id="use52" />
            </g>
          </g>
          <g
             id="text_9">
            <!-- 0 -->
            <g
               transform="translate(156.545192 181.850983) scale(0.1 -0.1)"
               id="g53">
              <use
                 xlink:href="#DejaVuSans-30"
                 id="use53" />
            </g>
          </g>
        </g>
        <g
           id="ytick_8">
          <g
             id="line2d_10">
            <path
               d="M 169.907692 146.635943  L 316.8 146.635943  "
               clip-path="url(#p9bb8354f27)"
               style="fill: none; stroke: #b0b0b0; stroke-width: 0.8; stroke-linecap: square"
               id="path53" />
          </g>
          <g
             id="line2d_11">
            <g
               id="g54">
              <use
                 xlink:href="#mf3cbf1eb01"
                 x="169.907692"
                 y="146.635943"
                 style="stroke: #000000; stroke-width: 0.8"
                 id="use54" />
            </g>
          </g>
          <g
             id="text_10">
            <!-- 20 -->
            <g
               transform="translate(150.182692 150.435162) scale(0.1 -0.1)"
               id="g56">
              <use
                 xlink:href="#DejaVuSans-32"
                 id="use55" />
              <use
                 xlink:href="#DejaVuSans-30"
                 x="63.623047"
                 id="use56" />
            </g>
          </g>
        </g>
        <g
           id="ytick_9">
          <g
             id="line2d_12">
            <path
               d="M 169.907692 115.220122  L 316.8 115.220122  "
               clip-path="url(#p9bb8354f27)"
               style="fill: none; stroke: #b0b0b0; stroke-width: 0.8; stroke-linecap: square"
               id="path56" />
          </g>
          <g
             id="line2d_13">
            <g
               id="g57">
              <use
                 xlink:href="#mf3cbf1eb01"
                 x="169.907692"
                 y="115.220122"
                 style="stroke: #000000; stroke-width: 0.8"
                 id="use57" />
            </g>
          </g>
          <g
             id="text_11">
            <!-- 40 -->
            <g
               transform="translate(150.182692 119.01934) scale(0.1 -0.1)"
               id="g59">
              <use
                 xlink:href="#DejaVuSans-34"
                 id="use58" />
              <use
                 xlink:href="#DejaVuSans-30"
                 x="63.623047"
                 id="use59" />
            </g>
          </g>
        </g>
        <g
           id="ytick_10">
          <g
             id="line2d_14">
            <path
               d="M 169.907692 83.8043  L 316.8 83.8043  "
               clip-path="url(#p9bb8354f27)"
               style="fill: none; stroke: #b0b0b0; stroke-width: 0.8; stroke-linecap: square"
               id="path59" />
          </g>
          <g
             id="line2d_15">
            <g
               id="g60">
              <use
                 xlink:href="#mf3cbf1eb01"
                 x="169.907692"
                 y="83.8043"
                 style="stroke: #000000; stroke-width: 0.8"
                 id="use60" />
            </g>
          </g>
          <g
             id="text_12">
            <!-- 60 -->
            <g
               transform="translate(150.182692 87.603519) scale(0.1 -0.1)"
               id="g62">
              <defs
                 id="defs60">
                <path
                   id="DejaVuSans-36"
                   d="M 2113 2584  Q 1688 2584 1439 2293  Q 1191 2003 1191 1497  Q 1191 994 1439 701  Q 1688 409 2113 409  Q 2538 409 2786 701  Q 3034 994 3034 1497  Q 3034 2003 2786 2293  Q 2538 2584 2113 2584  z M 3366 4563  L 3366 3988  Q 3128 4100 2886 4159  Q 2644 4219 2406 4219  Q 1781 4219 1451 3797  Q 1122 3375 1075 2522  Q 1259 2794 1537 2939  Q 1816 3084 2150 3084  Q 2853 3084 3261 2657  Q 3669 2231 3669 1497  Q 3669 778 3244 343  Q 2819 -91 2113 -91  Q 1303 -91 875 529  Q 447 1150 447 2328  Q 447 3434 972 4092  Q 1497 4750 2381 4750  Q 2619 4750 2861 4703  Q 3103 4656 3366 4563  z "
                   transform="scale(0.015625)" />
              </defs>
              <use
                 xlink:href="#DejaVuSans-36"
                 id="use61" />
              <use
                 xlink:href="#DejaVuSans-30"
                 x="63.623047"
                 id="use62" />
            </g>
          </g>
        </g>
        <g
           id="ytick_11">
          <g
             id="line2d_16">
            <path
               d="M 169.907692 52.388479  L 316.8 52.388479  "
               clip-path="url(#p9bb8354f27)"
               style="fill: none; stroke: #b0b0b0; stroke-width: 0.8; stroke-linecap: square"
               id="path62" />
          </g>
          <g
             id="line2d_17">
            <g
               id="g63">
              <use
                 xlink:href="#mf3cbf1eb01"
                 x="169.907692"
                 y="52.388479"
                 style="stroke: #000000; stroke-width: 0.8"
                 id="use63" />
            </g>
          </g>
          <g
             id="text_13">
            <!-- 80 -->
            <g
               transform="translate(150.182692 56.187697) scale(0.1 -0.1)"
               id="g65">
              <defs
                 id="defs63">
                <path
                   id="DejaVuSans-38"
                   d="M 2034 2216  Q 1584 2216 1326 1975  Q 1069 1734 1069 1313  Q 1069 891 1326 650  Q 1584 409 2034 409  Q 2484 409 2743 651  Q 3003 894 3003 1313  Q 3003 1734 2745 1975  Q 2488 2216 2034 2216  z M 1403 2484  Q 997 2584 770 2862  Q 544 3141 544 3541  Q 544 4100 942 4425  Q 1341 4750 2034 4750  Q 2731 4750 3128 4425  Q 3525 4100 3525 3541  Q 3525 3141 3298 2862  Q 3072 2584 2669 2484  Q 3125 2378 3379 2068  Q 3634 1759 3634 1313  Q 3634 634 3220 271  Q 2806 -91 2034 -91  Q 1263 -91 848 271  Q 434 634 434 1313  Q 434 1759 690 2068  Q 947 2378 1403 2484  z M 1172 3481  Q 1172 3119 1398 2916  Q 1625 2713 2034 2713  Q 2441 2713 2670 2916  Q 2900 3119 2900 3481  Q 2900 3844 2670 4047  Q 2441 4250 2034 4250  Q 1625 4250 1398 4047  Q 1172 3844 1172 3481  z "
                   transform="scale(0.015625)" />
              </defs>
              <use
                 xlink:href="#DejaVuSans-38"
                 id="use64" />
              <use
                 xlink:href="#DejaVuSans-30"
                 x="63.623047"
                 id="use65" />
            </g>
          </g>
        </g>
        <g
           id="text_14">
          <!-- Intersection size -->
          <g
             transform="translate(144.103005 147.333226) rotate(-90) scale(0.1 -0.1)"
             id="g82">
            <defs
               id="defs65">
              <path
                 id="DejaVuSans-49"
                 d="M 628 4666  L 1259 4666  L 1259 0  L 628 0  L 628 4666  z "
                 transform="scale(0.015625)" />
              <path
                 id="DejaVuSans-6e"
                 d="M 3513 2113  L 3513 0  L 2938 0  L 2938 2094  Q 2938 2591 2744 2837  Q 2550 3084 2163 3084  Q 1697 3084 1428 2787  Q 1159 2491 1159 1978  L 1159 0  L 581 0  L 581 3500  L 1159 3500  L 1159 2956  Q 1366 3272 1645 3428  Q 1925 3584 2291 3584  Q 2894 3584 3203 3211  Q 3513 2838 3513 2113  z "
                 transform="scale(0.015625)" />
              <path
                 id="DejaVuSans-74"
                 d="M 1172 4494  L 1172 3500  L 2356 3500  L 2356 3053  L 1172 3053  L 1172 1153  Q 1172 725 1289 603  Q 1406 481 1766 481  L 2356 481  L 2356 0  L 1766 0  Q 1100 0 847 248  Q 594 497 594 1153  L 594 3053  L 172 3053  L 172 3500  L 594 3500  L 594 4494  L 1172 4494  z "
                 transform="scale(0.015625)" />
              <path
                 id="DejaVuSans-65"
                 d="M 3597 1894  L 3597 1613  L 953 1613  Q 991 1019 1311 708  Q 1631 397 2203 397  Q 2534 397 2845 478  Q 3156 559 3463 722  L 3463 178  Q 3153 47 2828 -22  Q 2503 -91 2169 -91  Q 1331 -91 842 396  Q 353 884 353 1716  Q 353 2575 817 3079  Q 1281 3584 2069 3584  Q 2775 3584 3186 3129  Q 3597 2675 3597 1894  z M 3022 2063  Q 3016 2534 2758 2815  Q 2500 3097 2075 3097  Q 1594 3097 1305 2825  Q 1016 2553 972 2059  L 3022 2063  z "
                 transform="scale(0.015625)" />
              <path
                 id="DejaVuSans-72"
                 d="M 2631 2963  Q 2534 3019 2420 3045  Q 2306 3072 2169 3072  Q 1681 3072 1420 2755  Q 1159 2438 1159 1844  L 1159 0  L 581 0  L 581 3500  L 1159 3500  L 1159 2956  Q 1341 3275 1631 3429  Q 1922 3584 2338 3584  Q 2397 3584 2469 3576  Q 2541 3569 2628 3553  L 2631 2963  z "
                 transform="scale(0.015625)" />
              <path
                 id="DejaVuSans-73"
                 d="M 2834 3397  L 2834 2853  Q 2591 2978 2328 3040  Q 2066 3103 1784 3103  Q 1356 3103 1142 2972  Q 928 2841 928 2578  Q 928 2378 1081 2264  Q 1234 2150 1697 2047  L 1894 2003  Q 2506 1872 2764 1633  Q 3022 1394 3022 966  Q 3022 478 2636 193  Q 2250 -91 1575 -91  Q 1294 -91 989 -36  Q 684 19 347 128  L 347 722  Q 666 556 975 473  Q 1284 391 1588 391  Q 1994 391 2212 530  Q 2431 669 2431 922  Q 2431 1156 2273 1281  Q 2116 1406 1581 1522  L 1381 1569  Q 847 1681 609 1914  Q 372 2147 372 2553  Q 372 3047 722 3315  Q 1072 3584 1716 3584  Q 2034 3584 2315 3537  Q 2597 3491 2834 3397  z "
                 transform="scale(0.015625)" />
              <path
                 id="DejaVuSans-69"
                 d="M 603 3500  L 1178 3500  L 1178 0  L 603 0  L 603 3500  z M 603 4863  L 1178 4863  L 1178 4134  L 603 4134  L 603 4863  z "
                 transform="scale(0.015625)" />
              <path
                 id="DejaVuSans-6f"
                 d="M 1959 3097  Q 1497 3097 1228 2736  Q 959 2375 959 1747  Q 959 1119 1226 758  Q 1494 397 1959 397  Q 2419 397 2687 759  Q 2956 1122 2956 1747  Q 2956 2369 2687 2733  Q 2419 3097 1959 3097  z M 1959 3584  Q 2709 3584 3137 3096  Q 3566 2609 3566 1747  Q 3566 888 3137 398  Q 2709 -91 1959 -91  Q 1206 -91 779 398  Q 353 888 353 1747  Q 353 2609 779 3096  Q 1206 3584 1959 3584  z "
                 transform="scale(0.015625)" />
              <path
                 id="DejaVuSans-20"
                 transform="scale(0.015625)" />
              <path
                 id="DejaVuSans-7a"
                 d="M 353 3500  L 3084 3500  L 3084 2975  L 922 459  L 3084 459  L 3084 0  L 275 0  L 275 525  L 2438 3041  L 353 3041  L 353 3500  z "
                 transform="scale(0.015625)" />
            </defs>
            <use
               xlink:href="#DejaVuSans-49"
               id="use66" />
            <use
               xlink:href="#DejaVuSans-6e"
               x="29.492188"
               id="use67" />
            <use
               xlink:href="#DejaVuSans-74"
               x="92.871094"
               id="use68" />
            <use
               xlink:href="#DejaVuSans-65"
               x="132.080078"
               id="use69" />
            <use
               xlink:href="#DejaVuSans-72"
               x="193.603516"
               id="use70" />
            <use
               xlink:href="#DejaVuSans-73"
               x="234.716797"
               id="use71" />
            <use
               xlink:href="#DejaVuSans-65"
               x="286.816406"
               id="use72" />
            <use
               xlink:href="#DejaVuSans-63"
               x="348.339844"
               id="use73" />
            <use
               xlink:href="#DejaVuSans-74"
               x="403.320312"
               id="use74" />
            <use
               xlink:href="#DejaVuSans-69"
               x="442.529297"
               id="use75" />
            <use
               xlink:href="#DejaVuSans-6f"
               x="470.3125"
               id="use76" />
            <use
               xlink:href="#DejaVuSans-6e"
               x="531.494141"
               id="use77" />
            <use
               xlink:href="#DejaVuSans-20"
               x="594.873047"
               id="use78" />
            <use
               xlink:href="#DejaVuSans-73"
               x="626.660156"
               id="use79" />
            <use
               xlink:href="#DejaVuSans-69"
               x="678.759766"
               id="use80" />
            <use
               xlink:href="#DejaVuSans-7a"
               x="706.542969"
               id="use81" />
            <use
               xlink:href="#DejaVuSans-65"
               x="759.033203"
               id="use82" />
          </g>
        </g>
      </g>
      <g
         id="patch_10">
        <path
           d="M 169.907692 178.051765  L 169.907692 34.56  "
           style="fill: none; stroke: #000000; stroke-width: 0.8; stroke-linejoin: miter; stroke-linecap: square"
           id="path82" />
      </g>
      <g
         id="text_15">
        <!-- 20 -->
        <g
           transform="translate(175.786218 143.121338) scale(0.1 -0.1)"
           id="g84">
          <use
             xlink:href="#DejaVuSans-32"
             id="use83" />
          <use
             xlink:href="#DejaVuSans-30"
             x="63.623047"
             id="use84" />
        </g>
      </g>
      <g
         id="text_16">
        <!-- 5 -->
        <g
           transform="translate(203.449519 166.683204) scale(0.1 -0.1)"
           id="g85">
          <defs
             id="defs84">
            <path
               id="DejaVuSans-35"
               d="M 691 4666  L 3169 4666  L 3169 4134  L 1269 4134  L 1269 2991  Q 1406 3038 1543 3061  Q 1681 3084 1819 3084  Q 2600 3084 3056 2656  Q 3513 2228 3513 1497  Q 3513 744 3044 326  Q 2575 -91 1722 -91  Q 1428 -91 1123 -41  Q 819 9 494 109  L 494 744  Q 775 591 1075 516  Q 1375 441 1709 441  Q 2250 441 2565 725  Q 2881 1009 2881 1497  Q 2881 1984 2565 2268  Q 2250 2553 1709 2553  Q 1456 2553 1204 2497  Q 953 2441 691 2322  L 691 4666  z "
               transform="scale(0.015625)" />
          </defs>
          <use
             xlink:href="#DejaVuSans-35"
             id="use85" />
        </g>
      </g>
      <g
         id="text_17">
        <!-- 1 -->
        <g
           transform="translate(227.931571 172.966368) scale(0.1 -0.1)"
           id="g86">
          <use
             xlink:href="#DejaVuSans-31"
             id="use86" />
        </g>
      </g>
      <g
         id="text_18">
        <!-- 17 -->
        <g
           transform="translate(249.232372 147.833711) scale(0.1 -0.1)"
           id="g88">
          <defs
             id="defs86">
            <path
               id="DejaVuSans-37"
               d="M 525 4666  L 3525 4666  L 3525 4397  L 1831 0  L 1172 0  L 2766 4134  L 525 4134  L 525 4666  z "
               transform="scale(0.015625)" />
          </defs>
          <use
             xlink:href="#DejaVuSans-31"
             id="use87" />
          <use
             xlink:href="#DejaVuSans-37"
             x="63.623047"
             id="use88" />
        </g>
      </g>
      <g
         id="text_19">
        <!-- 3 -->
        <g
           transform="translate(276.895673 169.824786) scale(0.1 -0.1)"
           id="g89">
          <use
             xlink:href="#DejaVuSans-33"
             id="use89" />
        </g>
      </g>
      <g
         id="text_20">
        <!-- 87 -->
        <g
           transform="translate(298.196474 37.878336) scale(0.1 -0.1)"
           id="g91">
          <use
             xlink:href="#DejaVuSans-38"
             id="use90" />
          <use
             xlink:href="#DejaVuSans-37"
             x="63.623047"
             id="use91" />
        </g>
      </g>
      <g
         id="patch_11"
         style="fill:#e1812c;fill-opacity:1">
        <path
           d="M 176.028205 178.051765  L 188.269231 178.051765  L 188.269231 146.635943  L 176.028205 146.635943  z "
           clip-path="url(#p9bb8354f27)"
           style="stroke:#000000;stroke-linejoin:miter;fill:#e1812c;fill-opacity:1"
           id="path91" />
      </g>
      <g
         id="patch_12"
         style="fill:#3a923a;fill-opacity:1">
        <path
           d="M 200.510256 178.051765  L 212.751282 178.051765  L 212.751282 170.197809  L 200.510256 170.197809  z "
           clip-path="url(#p9bb8354f27)"
           style="stroke:#000000;stroke-linejoin:miter;fill:#3a923a;fill-opacity:1"
           id="path92" />
      </g>
      <g
         id="patch_13"
         style="fill:#3274a1;fill-opacity:1">
        <path
           d="M 224.992308 178.051765  L 237.233333 178.051765  L 237.233333 176.480974  L 224.992308 176.480974  z "
           clip-path="url(#p9bb8354f27)"
           style="stroke:#000000;stroke-linejoin:miter;fill:#3274a1;fill-opacity:1"
           id="path93" />
      </g>
      <g
         id="patch_14">
        <path
           d="M 249.474359 178.051765  L 261.715385 178.051765  L 261.715385 151.348316  L 249.474359 151.348316  z "
           clip-path="url(#p9bb8354f27)"
           style="stroke: #000000; stroke-linejoin: miter"
           id="path94" />
      </g>
      <g
         id="patch_15">
        <path
           d="M 273.95641 178.051765  L 286.197436 178.051765  L 286.197436 173.339391  L 273.95641 173.339391  z "
           clip-path="url(#p9bb8354f27)"
           style="stroke: #000000; stroke-linejoin: miter"
           id="path95" />
      </g>
      <g
         id="patch_16">
        <path
           d="M 298.438462 178.051765  L 310.679487 178.051765  L 310.679487 41.392941  L 298.438462 41.392941  z "
           clip-path="url(#p9bb8354f27)"
           style="stroke: #000000; stroke-linejoin: miter"
           id="path96" />
      </g>
    </g>
  </g>
  <defs
     id="defs99">
    <clipPath
       id="pa9aea0bf55">
      <rect
         x="44"
         y="191.096471"
         width="272.8"
         height="65.223529"
         id="rect96" />
    </clipPath>
    <clipPath
       id="pb69333cd1a">
      <rect
         x="169.907692"
         y="191.096471"
         width="146.892308"
         height="65.223529"
         id="rect97" />
    </clipPath>
    <clipPath
       id="p394e5e879e">
      <rect
         x="44"
         y="191.096471"
         width="46.166154"
         height="65.223529"
         id="rect98" />
    </clipPath>
    <clipPath
       id="p9bb8354f27">
      <rect
         x="169.907692"
         y="34.56"
         width="146.892308"
         height="143.491765"
         id="rect99" />
    </clipPath>
  </defs>
</svg>
